ISO-10303-21;
HEADER;
/* Generated by software containing ST-Developer
 * from STEP Tools, Inc. (www.steptools.com) 
 */

FILE_DESCRIPTION(
/* description */ (''),
/* implementation_level */ '2;1');

FILE_NAME(
/* name */ 'Back.step',
/* time_stamp */ '2026-08-30T18:42:55+04:00',
/* author */ (''),
/* organization */ (''),
/* preprocessor_version */ 'ST-DEVELOPER v20.1',
/* originating_system */ 'Autodesk Translation Framework v15.8.0.0',
/* authorisation */ '');

FILE_SCHEMA (('AUTOMOTIVE_DESIGN { 1 0 10303 214 3 1 1 }'));
ENDSEC;

DATA;
#10=MECHANICAL_DESIGN_GEOMETRIC_PRESENTATION_REPRESENTATION('',(#13,#14),
#1234);
#11=SHAPE_REPRESENTATION_RELATIONSHIP('SRR','None',#1241,#12);
#12=ADVANCED_BREP_SHAPE_REPRESENTATION('',(#15,#16),#1233);
#13=STYLED_ITEM('',(#1250),#15);
#14=STYLED_ITEM('',(#1250),#16);
#15=MANIFOLD_SOLID_BREP('Body1',#769);
#16=MANIFOLD_SOLID_BREP('Body2',#770);
#17=CYLINDRICAL_SURFACE('',#794,1.25);
#18=CYLINDRICAL_SURFACE('',#796,1.25);
#19=CYLINDRICAL_SURFACE('',#798,1.25);
#20=CYLINDRICAL_SURFACE('',#801,1.25);
#21=CIRCLE('',#789,1.25);
#22=CIRCLE('',#790,1.25);
#23=CIRCLE('',#795,1.25);
#24=CIRCLE('',#797,1.25);
#25=CIRCLE('',#799,1.25);
#26=CIRCLE('',#800,1.25);
#27=CIRCLE('',#802,1.25);
#28=CIRCLE('',#803,1.25);
#29=FACE_BOUND('',#84,.T.);
#30=FACE_BOUND('',#87,.T.);
#31=FACE_BOUND('',#88,.T.);
#32=FACE_BOUND('',#99,.T.);
#33=FACE_BOUND('',#107,.T.);
#34=FACE_BOUND('',#109,.T.);
#35=FACE_BOUND('',#110,.T.);
#36=FACE_BOUND('',#113,.T.);
#37=FACE_BOUND('',#114,.T.);
#38=FACE_BOUND('',#117,.T.);
#39=FACE_BOUND('',#118,.T.);
#40=FACE_BOUND('',#122,.T.);
#41=FACE_BOUND('',#132,.T.);
#42=FACE_OUTER_BOUND('',#81,.T.);
#43=FACE_OUTER_BOUND('',#82,.T.);
#44=FACE_OUTER_BOUND('',#83,.T.);
#45=FACE_OUTER_BOUND('',#85,.T.);
#46=FACE_OUTER_BOUND('',#86,.T.);
#47=FACE_OUTER_BOUND('',#89,.T.);
#48=FACE_OUTER_BOUND('',#90,.T.);
#49=FACE_OUTER_BOUND('',#91,.T.);
#50=FACE_OUTER_BOUND('',#92,.T.);
#51=FACE_OUTER_BOUND('',#93,.T.);
#52=FACE_OUTER_BOUND('',#94,.T.);
#53=FACE_OUTER_BOUND('',#95,.T.);
#54=FACE_OUTER_BOUND('',#96,.T.);
#55=FACE_OUTER_BOUND('',#97,.T.);
#56=FACE_OUTER_BOUND('',#98,.T.);
#57=FACE_OUTER_BOUND('',#100,.T.);
#58=FACE_OUTER_BOUND('',#101,.T.);
#59=FACE_OUTER_BOUND('',#102,.T.);
#60=FACE_OUTER_BOUND('',#103,.T.);
#61=FACE_OUTER_BOUND('',#104,.T.);
#62=FACE_OUTER_BOUND('',#105,.T.);
#63=FACE_OUTER_BOUND('',#106,.T.);
#64=FACE_OUTER_BOUND('',#108,.T.);
#65=FACE_OUTER_BOUND('',#111,.T.);
#66=FACE_OUTER_BOUND('',#112,.T.);
#67=FACE_OUTER_BOUND('',#115,.T.);
#68=FACE_OUTER_BOUND('',#116,.T.);
#69=FACE_OUTER_BOUND('',#119,.T.);
#70=FACE_OUTER_BOUND('',#120,.T.);
#71=FACE_OUTER_BOUND('',#121,.T.);
#72=FACE_OUTER_BOUND('',#123,.T.);
#73=FACE_OUTER_BOUND('',#124,.T.);
#74=FACE_OUTER_BOUND('',#125,.T.);
#75=FACE_OUTER_BOUND('',#126,.T.);
#76=FACE_OUTER_BOUND('',#127,.T.);
#77=FACE_OUTER_BOUND('',#128,.T.);
#78=FACE_OUTER_BOUND('',#129,.T.);
#79=FACE_OUTER_BOUND('',#130,.T.);
#80=FACE_OUTER_BOUND('',#131,.T.);
#81=EDGE_LOOP('',(#491,#492,#493,#494));
#82=EDGE_LOOP('',(#495,#496,#497,#498));
#83=EDGE_LOOP('',(#499,#500,#501,#502,#503,#504,#505,#506));
#84=EDGE_LOOP('',(#507,#508,#509,#510));
#85=EDGE_LOOP('',(#511,#512,#513,#514));
#86=EDGE_LOOP('',(#515,#516,#517,#518));
#87=EDGE_LOOP('',(#519));
#88=EDGE_LOOP('',(#520));
#89=EDGE_LOOP('',(#521,#522,#523,#524));
#90=EDGE_LOOP('',(#525,#526,#527,#528));
#91=EDGE_LOOP('',(#529,#530,#531,#532));
#92=EDGE_LOOP('',(#533,#534,#535,#536));
#93=EDGE_LOOP('',(#537,#538,#539,#540));
#94=EDGE_LOOP('',(#541,#542,#543,#544));
#95=EDGE_LOOP('',(#545,#546,#547,#548));
#96=EDGE_LOOP('',(#549,#550,#551,#552));
#97=EDGE_LOOP('',(#553,#554,#555,#556));
#98=EDGE_LOOP('',(#557,#558,#559,#560,#561,#562,#563,#564));
#99=EDGE_LOOP('',(#565,#566,#567,#568,#569,#570,#571,#572));
#100=EDGE_LOOP('',(#573,#574,#575,#576));
#101=EDGE_LOOP('',(#577,#578,#579,#580));
#102=EDGE_LOOP('',(#581,#582,#583,#584));
#103=EDGE_LOOP('',(#585,#586,#587,#588));
#104=EDGE_LOOP('',(#589,#590,#591,#592));
#105=EDGE_LOOP('',(#593,#594,#595,#596));
#106=EDGE_LOOP('',(#597,#598,#599,#600,#601,#602,#603,#604));
#107=EDGE_LOOP('',(#605,#606,#607,#608));
#108=EDGE_LOOP('',(#609,#610,#611,#612));
#109=EDGE_LOOP('',(#613));
#110=EDGE_LOOP('',(#614));
#111=EDGE_LOOP('',(#615,#616,#617,#618));
#112=EDGE_LOOP('',(#619,#620,#621,#622));
#113=EDGE_LOOP('',(#623));
#114=EDGE_LOOP('',(#624));
#115=EDGE_LOOP('',(#625,#626,#627,#628));
#116=EDGE_LOOP('',(#629,#630,#631,#632));
#117=EDGE_LOOP('',(#633));
#118=EDGE_LOOP('',(#634));
#119=EDGE_LOOP('',(#635,#636,#637,#638));
#120=EDGE_LOOP('',(#639,#640,#641,#642));
#121=EDGE_LOOP('',(#643,#644,#645,#646,#647,#648));
#122=EDGE_LOOP('',(#649,#650,#651,#652));
#123=EDGE_LOOP('',(#653,#654,#655,#656));
#124=EDGE_LOOP('',(#657,#658,#659,#660));
#125=EDGE_LOOP('',(#661,#662,#663,#664));
#126=EDGE_LOOP('',(#665,#666,#667,#668));
#127=EDGE_LOOP('',(#669,#670,#671,#672));
#128=EDGE_LOOP('',(#673,#674,#675,#676));
#129=EDGE_LOOP('',(#677,#678,#679,#680));
#130=EDGE_LOOP('',(#681,#682,#683,#684));
#131=EDGE_LOOP('',(#685,#686,#687,#688,#689,#690));
#132=EDGE_LOOP('',(#691,#692,#693,#694));
#133=LINE('',#1025,#227);
#134=LINE('',#1027,#228);
#135=LINE('',#1029,#229);
#136=LINE('',#1030,#230);
#137=LINE('',#1033,#231);
#138=LINE('',#1035,#232);
#139=LINE('',#1036,#233);
#140=LINE('',#1039,#234);
#141=LINE('',#1041,#235);
#142=LINE('',#1043,#236);
#143=LINE('',#1045,#237);
#144=LINE('',#1047,#238);
#145=LINE('',#1048,#239);
#146=LINE('',#1051,#240);
#147=LINE('',#1053,#241);
#148=LINE('',#1055,#242);
#149=LINE('',#1056,#243);
#150=LINE('',#1059,#244);
#151=LINE('',#1060,#245);
#152=LINE('',#1063,#246);
#153=LINE('',#1064,#247);
#154=LINE('',#1071,#248);
#155=LINE('',#1072,#249);
#156=LINE('',#1075,#250);
#157=LINE('',#1076,#251);
#158=LINE('',#1079,#252);
#159=LINE('',#1080,#253);
#160=LINE('',#1083,#254);
#161=LINE('',#1087,#255);
#162=LINE('',#1093,#256);
#163=LINE('',#1099,#257);
#164=LINE('',#1104,#258);
#165=LINE('',#1106,#259);
#166=LINE('',#1108,#260);
#167=LINE('',#1109,#261);
#168=LINE('',#1112,#262);
#169=LINE('',#1114,#263);
#170=LINE('',#1115,#264);
#171=LINE('',#1118,#265);
#172=LINE('',#1120,#266);
#173=LINE('',#1122,#267);
#174=LINE('',#1124,#268);
#175=LINE('',#1126,#269);
#176=LINE('',#1127,#270);
#177=LINE('',#1128,#271);
#178=LINE('',#1131,#272);
#179=LINE('',#1132,#273);
#180=LINE('',#1135,#274);
#181=LINE('',#1136,#275);
#182=LINE('',#1139,#276);
#183=LINE('',#1140,#277);
#184=LINE('',#1143,#278);
#185=LINE('',#1144,#279);
#186=LINE('',#1147,#280);
#187=LINE('',#1148,#281);
#188=LINE('',#1150,#282);
#189=LINE('',#1154,#283);
#190=LINE('',#1156,#284);
#191=LINE('',#1158,#285);
#192=LINE('',#1159,#286);
#193=LINE('',#1161,#287);
#194=LINE('',#1162,#288);
#195=LINE('',#1164,#289);
#196=LINE('',#1166,#290);
#197=LINE('',#1172,#291);
#198=LINE('',#1174,#292);
#199=LINE('',#1176,#293);
#200=LINE('',#1177,#294);
#201=LINE('',#1180,#295);
#202=LINE('',#1182,#296);
#203=LINE('',#1183,#297);
#204=LINE('',#1186,#298);
#205=LINE('',#1188,#299);
#206=LINE('',#1190,#300);
#207=LINE('',#1191,#301);
#208=LINE('',#1194,#302);
#209=LINE('',#1196,#303);
#210=LINE('',#1198,#304);
#211=LINE('',#1199,#305);
#212=LINE('',#1202,#306);
#213=LINE('',#1203,#307);
#214=LINE('',#1206,#308);
#215=LINE('',#1208,#309);
#216=LINE('',#1209,#310);
#217=LINE('',#1212,#311);
#218=LINE('',#1213,#312);
#219=LINE('',#1216,#313);
#220=LINE('',#1217,#314);
#221=LINE('',#1219,#315);
#222=LINE('',#1222,#316);
#223=LINE('',#1223,#317);
#224=LINE('',#1226,#318);
#225=LINE('',#1227,#319);
#226=LINE('',#1229,#320);
#227=VECTOR('',#835,10.);
#228=VECTOR('',#836,10.);
#229=VECTOR('',#837,10.);
#230=VECTOR('',#838,10.);
#231=VECTOR('',#841,10.);
#232=VECTOR('',#842,10.);
#233=VECTOR('',#843,10.);
#234=VECTOR('',#846,10.);
#235=VECTOR('',#847,10.);
#236=VECTOR('',#848,10.);
#237=VECTOR('',#849,10.);
#238=VECTOR('',#850,10.);
#239=VECTOR('',#851,10.);
#240=VECTOR('',#852,10.);
#241=VECTOR('',#853,10.);
#242=VECTOR('',#854,10.);
#243=VECTOR('',#855,10.);
#244=VECTOR('',#858,10.);
#245=VECTOR('',#859,10.);
#246=VECTOR('',#862,10.);
#247=VECTOR('',#863,10.);
#248=VECTOR('',#870,10.);
#249=VECTOR('',#871,10.);
#250=VECTOR('',#874,10.);
#251=VECTOR('',#875,10.);
#252=VECTOR('',#878,10.);
#253=VECTOR('',#879,10.);
#254=VECTOR('',#882,1.25);
#255=VECTOR('',#887,1.25);
#256=VECTOR('',#894,1.25);
#257=VECTOR('',#901,1.25);
#258=VECTOR('',#906,10.);
#259=VECTOR('',#907,10.);
#260=VECTOR('',#908,10.);
#261=VECTOR('',#909,10.);
#262=VECTOR('',#912,10.);
#263=VECTOR('',#913,10.);
#264=VECTOR('',#914,10.);
#265=VECTOR('',#917,10.);
#266=VECTOR('',#918,10.);
#267=VECTOR('',#919,10.);
#268=VECTOR('',#920,10.);
#269=VECTOR('',#921,10.);
#270=VECTOR('',#922,10.);
#271=VECTOR('',#923,10.);
#272=VECTOR('',#926,10.);
#273=VECTOR('',#927,10.);
#274=VECTOR('',#930,10.);
#275=VECTOR('',#931,10.);
#276=VECTOR('',#934,10.);
#277=VECTOR('',#935,10.);
#278=VECTOR('',#938,10.);
#279=VECTOR('',#939,10.);
#280=VECTOR('',#942,10.);
#281=VECTOR('',#943,10.);
#282=VECTOR('',#946,10.);
#283=VECTOR('',#949,10.);
#284=VECTOR('',#950,10.);
#285=VECTOR('',#951,10.);
#286=VECTOR('',#952,10.);
#287=VECTOR('',#955,10.);
#288=VECTOR('',#956,10.);
#289=VECTOR('',#959,10.);
#290=VECTOR('',#962,10.);
#291=VECTOR('',#969,10.);
#292=VECTOR('',#970,10.);
#293=VECTOR('',#971,10.);
#294=VECTOR('',#972,10.);
#295=VECTOR('',#975,10.);
#296=VECTOR('',#976,10.);
#297=VECTOR('',#977,10.);
#298=VECTOR('',#980,10.);
#299=VECTOR('',#981,10.);
#300=VECTOR('',#982,10.);
#301=VECTOR('',#983,10.);
#302=VECTOR('',#984,10.);
#303=VECTOR('',#985,10.);
#304=VECTOR('',#986,10.);
#305=VECTOR('',#987,10.);
#306=VECTOR('',#990,10.);
#307=VECTOR('',#991,10.);
#308=VECTOR('',#994,10.);
#309=VECTOR('',#995,10.);
#310=VECTOR('',#996,10.);
#311=VECTOR('',#999,10.);
#312=VECTOR('',#1000,10.);
#313=VECTOR('',#1003,10.);
#314=VECTOR('',#1004,10.);
#315=VECTOR('',#1007,10.);
#316=VECTOR('',#1010,10.);
#317=VECTOR('',#1011,10.);
#318=VECTOR('',#1014,10.);
#319=VECTOR('',#1015,10.);
#320=VECTOR('',#1018,10.);
#321=VERTEX_POINT('',#1023);
#322=VERTEX_POINT('',#1024);
#323=VERTEX_POINT('',#1026);
#324=VERTEX_POINT('',#1028);
#325=VERTEX_POINT('',#1032);
#326=VERTEX_POINT('',#1034);
#327=VERTEX_POINT('',#1038);
#328=VERTEX_POINT('',#1040);
#329=VERTEX_POINT('',#1042);
#330=VERTEX_POINT('',#1044);
#331=VERTEX_POINT('',#1046);
#332=VERTEX_POINT('',#1049);
#333=VERTEX_POINT('',#1050);
#334=VERTEX_POINT('',#1052);
#335=VERTEX_POINT('',#1054);
#336=VERTEX_POINT('',#1058);
#337=VERTEX_POINT('',#1062);
#338=VERTEX_POINT('',#1065);
#339=VERTEX_POINT('',#1067);
#340=VERTEX_POINT('',#1070);
#341=VERTEX_POINT('',#1074);
#342=VERTEX_POINT('',#1078);
#343=VERTEX_POINT('',#1082);
#344=VERTEX_POINT('',#1086);
#345=VERTEX_POINT('',#1090);
#346=VERTEX_POINT('',#1092);
#347=VERTEX_POINT('',#1096);
#348=VERTEX_POINT('',#1098);
#349=VERTEX_POINT('',#1102);
#350=VERTEX_POINT('',#1103);
#351=VERTEX_POINT('',#1105);
#352=VERTEX_POINT('',#1107);
#353=VERTEX_POINT('',#1111);
#354=VERTEX_POINT('',#1113);
#355=VERTEX_POINT('',#1117);
#356=VERTEX_POINT('',#1119);
#357=VERTEX_POINT('',#1121);
#358=VERTEX_POINT('',#1123);
#359=VERTEX_POINT('',#1125);
#360=VERTEX_POINT('',#1130);
#361=VERTEX_POINT('',#1134);
#362=VERTEX_POINT('',#1138);
#363=VERTEX_POINT('',#1142);
#364=VERTEX_POINT('',#1146);
#365=VERTEX_POINT('',#1152);
#366=VERTEX_POINT('',#1153);
#367=VERTEX_POINT('',#1155);
#368=VERTEX_POINT('',#1157);
#369=VERTEX_POINT('',#1170);
#370=VERTEX_POINT('',#1171);
#371=VERTEX_POINT('',#1173);
#372=VERTEX_POINT('',#1175);
#373=VERTEX_POINT('',#1179);
#374=VERTEX_POINT('',#1181);
#375=VERTEX_POINT('',#1185);
#376=VERTEX_POINT('',#1187);
#377=VERTEX_POINT('',#1189);
#378=VERTEX_POINT('',#1192);
#379=VERTEX_POINT('',#1193);
#380=VERTEX_POINT('',#1195);
#381=VERTEX_POINT('',#1197);
#382=VERTEX_POINT('',#1201);
#383=VERTEX_POINT('',#1205);
#384=VERTEX_POINT('',#1207);
#385=VERTEX_POINT('',#1211);
#386=VERTEX_POINT('',#1215);
#387=VERTEX_POINT('',#1221);
#388=VERTEX_POINT('',#1225);
#389=EDGE_CURVE('',#321,#322,#133,.T.);
#390=EDGE_CURVE('',#322,#323,#134,.T.);
#391=EDGE_CURVE('',#323,#324,#135,.F.);
#392=EDGE_CURVE('',#324,#321,#136,.T.);
#393=EDGE_CURVE('',#325,#322,#137,.T.);
#394=EDGE_CURVE('',#326,#325,#138,.T.);
#395=EDGE_CURVE('',#326,#323,#139,.T.);
#396=EDGE_CURVE('',#321,#327,#140,.T.);
#397=EDGE_CURVE('',#328,#327,#141,.T.);
#398=EDGE_CURVE('',#328,#329,#142,.T.);
#399=EDGE_CURVE('',#330,#329,#143,.T.);
#400=EDGE_CURVE('',#330,#331,#144,.T.);
#401=EDGE_CURVE('',#325,#331,#145,.T.);
#402=EDGE_CURVE('',#332,#333,#146,.T.);
#403=EDGE_CURVE('',#333,#334,#147,.T.);
#404=EDGE_CURVE('',#334,#335,#148,.T.);
#405=EDGE_CURVE('',#335,#332,#149,.T.);
#406=EDGE_CURVE('',#331,#336,#150,.T.);
#407=EDGE_CURVE('',#336,#326,#151,.F.);
#408=EDGE_CURVE('',#337,#330,#152,.T.);
#409=EDGE_CURVE('',#337,#336,#153,.T.);
#410=EDGE_CURVE('',#338,#338,#21,.T.);
#411=EDGE_CURVE('',#339,#339,#22,.T.);
#412=EDGE_CURVE('',#329,#340,#154,.T.);
#413=EDGE_CURVE('',#340,#337,#155,.F.);
#414=EDGE_CURVE('',#341,#328,#156,.T.);
#415=EDGE_CURVE('',#341,#340,#157,.T.);
#416=EDGE_CURVE('',#327,#342,#158,.T.);
#417=EDGE_CURVE('',#342,#341,#159,.F.);
#418=EDGE_CURVE('',#339,#343,#160,.T.);
#419=EDGE_CURVE('',#343,#343,#23,.T.);
#420=EDGE_CURVE('',#338,#344,#161,.T.);
#421=EDGE_CURVE('',#344,#344,#24,.T.);
#422=EDGE_CURVE('',#345,#345,#25,.T.);
#423=EDGE_CURVE('',#345,#346,#162,.T.);
#424=EDGE_CURVE('',#346,#346,#26,.T.);
#425=EDGE_CURVE('',#347,#347,#27,.T.);
#426=EDGE_CURVE('',#347,#348,#163,.T.);
#427=EDGE_CURVE('',#348,#348,#28,.T.);
#428=EDGE_CURVE('',#349,#350,#164,.T.);
#429=EDGE_CURVE('',#350,#351,#165,.T.);
#430=EDGE_CURVE('',#351,#352,#166,.T.);
#431=EDGE_CURVE('',#352,#349,#167,.T.);
#432=EDGE_CURVE('',#353,#352,#168,.T.);
#433=EDGE_CURVE('',#354,#353,#169,.T.);
#434=EDGE_CURVE('',#349,#354,#170,.T.);
#435=EDGE_CURVE('',#351,#355,#171,.T.);
#436=EDGE_CURVE('',#356,#355,#172,.T.);
#437=EDGE_CURVE('',#356,#357,#173,.T.);
#438=EDGE_CURVE('',#358,#357,#174,.T.);
#439=EDGE_CURVE('',#358,#359,#175,.T.);
#440=EDGE_CURVE('',#353,#359,#176,.T.);
#441=EDGE_CURVE('',#324,#342,#177,.T.);
#442=EDGE_CURVE('',#360,#354,#178,.T.);
#443=EDGE_CURVE('',#359,#360,#179,.T.);
#444=EDGE_CURVE('',#361,#358,#180,.T.);
#445=EDGE_CURVE('',#360,#361,#181,.T.);
#446=EDGE_CURVE('',#362,#361,#182,.T.);
#447=EDGE_CURVE('',#357,#362,#183,.T.);
#448=EDGE_CURVE('',#363,#356,#184,.T.);
#449=EDGE_CURVE('',#362,#363,#185,.T.);
#450=EDGE_CURVE('',#364,#363,#186,.T.);
#451=EDGE_CURVE('',#355,#364,#187,.T.);
#452=EDGE_CURVE('',#364,#350,#188,.T.);
#453=EDGE_CURVE('',#365,#366,#189,.T.);
#454=EDGE_CURVE('',#366,#367,#190,.T.);
#455=EDGE_CURVE('',#367,#368,#191,.T.);
#456=EDGE_CURVE('',#368,#365,#192,.T.);
#457=EDGE_CURVE('',#332,#366,#193,.T.);
#458=EDGE_CURVE('',#335,#367,#194,.T.);
#459=EDGE_CURVE('',#334,#368,#195,.T.);
#460=EDGE_CURVE('',#365,#333,#196,.T.);
#461=EDGE_CURVE('',#369,#370,#197,.T.);
#462=EDGE_CURVE('',#370,#371,#198,.T.);
#463=EDGE_CURVE('',#371,#372,#199,.T.);
#464=EDGE_CURVE('',#372,#369,#200,.T.);
#465=EDGE_CURVE('',#373,#372,#201,.T.);
#466=EDGE_CURVE('',#374,#373,#202,.T.);
#467=EDGE_CURVE('',#369,#374,#203,.T.);
#468=EDGE_CURVE('',#371,#375,#204,.T.);
#469=EDGE_CURVE('',#375,#376,#205,.T.);
#470=EDGE_CURVE('',#376,#377,#206,.T.);
#471=EDGE_CURVE('',#373,#377,#207,.T.);
#472=EDGE_CURVE('',#378,#379,#208,.T.);
#473=EDGE_CURVE('',#380,#378,#209,.T.);
#474=EDGE_CURVE('',#381,#380,#210,.T.);
#475=EDGE_CURVE('',#379,#381,#211,.T.);
#476=EDGE_CURVE('',#382,#374,#212,.T.);
#477=EDGE_CURVE('',#377,#382,#213,.T.);
#478=EDGE_CURVE('',#378,#383,#214,.T.);
#479=EDGE_CURVE('',#384,#383,#215,.T.);
#480=EDGE_CURVE('',#380,#384,#216,.T.);
#481=EDGE_CURVE('',#385,#384,#217,.T.);
#482=EDGE_CURVE('',#381,#385,#218,.T.);
#483=EDGE_CURVE('',#386,#385,#219,.T.);
#484=EDGE_CURVE('',#379,#386,#220,.T.);
#485=EDGE_CURVE('',#383,#386,#221,.T.);
#486=EDGE_CURVE('',#376,#387,#222,.T.);
#487=EDGE_CURVE('',#382,#387,#223,.T.);
#488=EDGE_CURVE('',#388,#370,#224,.T.);
#489=EDGE_CURVE('',#375,#388,#225,.T.);
#490=EDGE_CURVE('',#387,#388,#226,.T.);
#491=ORIENTED_EDGE('',*,*,#389,.T.);
#492=ORIENTED_EDGE('',*,*,#390,.T.);
#493=ORIENTED_EDGE('',*,*,#391,.T.);
#494=ORIENTED_EDGE('',*,*,#392,.T.);
#495=ORIENTED_EDGE('',*,*,#390,.F.);
#496=ORIENTED_EDGE('',*,*,#393,.F.);
#497=ORIENTED_EDGE('',*,*,#394,.F.);
#498=ORIENTED_EDGE('',*,*,#395,.T.);
#499=ORIENTED_EDGE('',*,*,#389,.F.);
#500=ORIENTED_EDGE('',*,*,#396,.T.);
#501=ORIENTED_EDGE('',*,*,#397,.F.);
#502=ORIENTED_EDGE('',*,*,#398,.T.);
#503=ORIENTED_EDGE('',*,*,#399,.F.);
#504=ORIENTED_EDGE('',*,*,#400,.T.);
#505=ORIENTED_EDGE('',*,*,#401,.F.);
#506=ORIENTED_EDGE('',*,*,#393,.T.);
#507=ORIENTED_EDGE('',*,*,#402,.T.);
#508=ORIENTED_EDGE('',*,*,#403,.T.);
#509=ORIENTED_EDGE('',*,*,#404,.T.);
#510=ORIENTED_EDGE('',*,*,#405,.T.);
#511=ORIENTED_EDGE('',*,*,#401,.T.);
#512=ORIENTED_EDGE('',*,*,#406,.T.);
#513=ORIENTED_EDGE('',*,*,#407,.T.);
#514=ORIENTED_EDGE('',*,*,#394,.T.);
#515=ORIENTED_EDGE('',*,*,#406,.F.);
#516=ORIENTED_EDGE('',*,*,#400,.F.);
#517=ORIENTED_EDGE('',*,*,#408,.F.);
#518=ORIENTED_EDGE('',*,*,#409,.T.);
#519=ORIENTED_EDGE('',*,*,#410,.T.);
#520=ORIENTED_EDGE('',*,*,#411,.T.);
#521=ORIENTED_EDGE('',*,*,#399,.T.);
#522=ORIENTED_EDGE('',*,*,#412,.T.);
#523=ORIENTED_EDGE('',*,*,#413,.T.);
#524=ORIENTED_EDGE('',*,*,#408,.T.);
#525=ORIENTED_EDGE('',*,*,#412,.F.);
#526=ORIENTED_EDGE('',*,*,#398,.F.);
#527=ORIENTED_EDGE('',*,*,#414,.F.);
#528=ORIENTED_EDGE('',*,*,#415,.T.);
#529=ORIENTED_EDGE('',*,*,#397,.T.);
#530=ORIENTED_EDGE('',*,*,#416,.T.);
#531=ORIENTED_EDGE('',*,*,#417,.T.);
#532=ORIENTED_EDGE('',*,*,#414,.T.);
#533=ORIENTED_EDGE('',*,*,#411,.F.);
#534=ORIENTED_EDGE('',*,*,#418,.T.);
#535=ORIENTED_EDGE('',*,*,#419,.F.);
#536=ORIENTED_EDGE('',*,*,#418,.F.);
#537=ORIENTED_EDGE('',*,*,#410,.F.);
#538=ORIENTED_EDGE('',*,*,#420,.T.);
#539=ORIENTED_EDGE('',*,*,#421,.F.);
#540=ORIENTED_EDGE('',*,*,#420,.F.);
#541=ORIENTED_EDGE('',*,*,#422,.F.);
#542=ORIENTED_EDGE('',*,*,#423,.T.);
#543=ORIENTED_EDGE('',*,*,#424,.F.);
#544=ORIENTED_EDGE('',*,*,#423,.F.);
#545=ORIENTED_EDGE('',*,*,#425,.F.);
#546=ORIENTED_EDGE('',*,*,#426,.T.);
#547=ORIENTED_EDGE('',*,*,#427,.F.);
#548=ORIENTED_EDGE('',*,*,#426,.F.);
#549=ORIENTED_EDGE('',*,*,#428,.T.);
#550=ORIENTED_EDGE('',*,*,#429,.T.);
#551=ORIENTED_EDGE('',*,*,#430,.T.);
#552=ORIENTED_EDGE('',*,*,#431,.T.);
#553=ORIENTED_EDGE('',*,*,#431,.F.);
#554=ORIENTED_EDGE('',*,*,#432,.F.);
#555=ORIENTED_EDGE('',*,*,#433,.F.);
#556=ORIENTED_EDGE('',*,*,#434,.F.);
#557=ORIENTED_EDGE('',*,*,#430,.F.);
#558=ORIENTED_EDGE('',*,*,#435,.T.);
#559=ORIENTED_EDGE('',*,*,#436,.F.);
#560=ORIENTED_EDGE('',*,*,#437,.T.);
#561=ORIENTED_EDGE('',*,*,#438,.F.);
#562=ORIENTED_EDGE('',*,*,#439,.T.);
#563=ORIENTED_EDGE('',*,*,#440,.F.);
#564=ORIENTED_EDGE('',*,*,#432,.T.);
#565=ORIENTED_EDGE('',*,*,#415,.F.);
#566=ORIENTED_EDGE('',*,*,#417,.F.);
#567=ORIENTED_EDGE('',*,*,#441,.F.);
#568=ORIENTED_EDGE('',*,*,#391,.F.);
#569=ORIENTED_EDGE('',*,*,#395,.F.);
#570=ORIENTED_EDGE('',*,*,#407,.F.);
#571=ORIENTED_EDGE('',*,*,#409,.F.);
#572=ORIENTED_EDGE('',*,*,#413,.F.);
#573=ORIENTED_EDGE('',*,*,#442,.T.);
#574=ORIENTED_EDGE('',*,*,#433,.T.);
#575=ORIENTED_EDGE('',*,*,#440,.T.);
#576=ORIENTED_EDGE('',*,*,#443,.T.);
#577=ORIENTED_EDGE('',*,*,#443,.F.);
#578=ORIENTED_EDGE('',*,*,#439,.F.);
#579=ORIENTED_EDGE('',*,*,#444,.F.);
#580=ORIENTED_EDGE('',*,*,#445,.F.);
#581=ORIENTED_EDGE('',*,*,#446,.T.);
#582=ORIENTED_EDGE('',*,*,#444,.T.);
#583=ORIENTED_EDGE('',*,*,#438,.T.);
#584=ORIENTED_EDGE('',*,*,#447,.T.);
#585=ORIENTED_EDGE('',*,*,#447,.F.);
#586=ORIENTED_EDGE('',*,*,#437,.F.);
#587=ORIENTED_EDGE('',*,*,#448,.F.);
#588=ORIENTED_EDGE('',*,*,#449,.F.);
#589=ORIENTED_EDGE('',*,*,#450,.T.);
#590=ORIENTED_EDGE('',*,*,#448,.T.);
#591=ORIENTED_EDGE('',*,*,#436,.T.);
#592=ORIENTED_EDGE('',*,*,#451,.T.);
#593=ORIENTED_EDGE('',*,*,#429,.F.);
#594=ORIENTED_EDGE('',*,*,#452,.F.);
#595=ORIENTED_EDGE('',*,*,#451,.F.);
#596=ORIENTED_EDGE('',*,*,#435,.F.);
#597=ORIENTED_EDGE('',*,*,#428,.F.);
#598=ORIENTED_EDGE('',*,*,#434,.T.);
#599=ORIENTED_EDGE('',*,*,#442,.F.);
#600=ORIENTED_EDGE('',*,*,#445,.T.);
#601=ORIENTED_EDGE('',*,*,#446,.F.);
#602=ORIENTED_EDGE('',*,*,#449,.T.);
#603=ORIENTED_EDGE('',*,*,#450,.F.);
#604=ORIENTED_EDGE('',*,*,#452,.T.);
#605=ORIENTED_EDGE('',*,*,#453,.T.);
#606=ORIENTED_EDGE('',*,*,#454,.T.);
#607=ORIENTED_EDGE('',*,*,#455,.T.);
#608=ORIENTED_EDGE('',*,*,#456,.T.);
#609=ORIENTED_EDGE('',*,*,#457,.F.);
#610=ORIENTED_EDGE('',*,*,#405,.F.);
#611=ORIENTED_EDGE('',*,*,#458,.T.);
#612=ORIENTED_EDGE('',*,*,#454,.F.);
#613=ORIENTED_EDGE('',*,*,#424,.T.);
#614=ORIENTED_EDGE('',*,*,#427,.T.);
#615=ORIENTED_EDGE('',*,*,#458,.F.);
#616=ORIENTED_EDGE('',*,*,#404,.F.);
#617=ORIENTED_EDGE('',*,*,#459,.T.);
#618=ORIENTED_EDGE('',*,*,#455,.F.);
#619=ORIENTED_EDGE('',*,*,#459,.F.);
#620=ORIENTED_EDGE('',*,*,#403,.F.);
#621=ORIENTED_EDGE('',*,*,#460,.F.);
#622=ORIENTED_EDGE('',*,*,#456,.F.);
#623=ORIENTED_EDGE('',*,*,#419,.T.);
#624=ORIENTED_EDGE('',*,*,#421,.T.);
#625=ORIENTED_EDGE('',*,*,#460,.T.);
#626=ORIENTED_EDGE('',*,*,#402,.F.);
#627=ORIENTED_EDGE('',*,*,#457,.T.);
#628=ORIENTED_EDGE('',*,*,#453,.F.);
#629=ORIENTED_EDGE('',*,*,#392,.F.);
#630=ORIENTED_EDGE('',*,*,#441,.T.);
#631=ORIENTED_EDGE('',*,*,#416,.F.);
#632=ORIENTED_EDGE('',*,*,#396,.F.);
#633=ORIENTED_EDGE('',*,*,#422,.T.);
#634=ORIENTED_EDGE('',*,*,#425,.T.);
#635=ORIENTED_EDGE('',*,*,#461,.T.);
#636=ORIENTED_EDGE('',*,*,#462,.T.);
#637=ORIENTED_EDGE('',*,*,#463,.T.);
#638=ORIENTED_EDGE('',*,*,#464,.T.);
#639=ORIENTED_EDGE('',*,*,#464,.F.);
#640=ORIENTED_EDGE('',*,*,#465,.F.);
#641=ORIENTED_EDGE('',*,*,#466,.F.);
#642=ORIENTED_EDGE('',*,*,#467,.F.);
#643=ORIENTED_EDGE('',*,*,#463,.F.);
#644=ORIENTED_EDGE('',*,*,#468,.T.);
#645=ORIENTED_EDGE('',*,*,#469,.T.);
#646=ORIENTED_EDGE('',*,*,#470,.T.);
#647=ORIENTED_EDGE('',*,*,#471,.F.);
#648=ORIENTED_EDGE('',*,*,#465,.T.);
#649=ORIENTED_EDGE('',*,*,#472,.F.);
#650=ORIENTED_EDGE('',*,*,#473,.F.);
#651=ORIENTED_EDGE('',*,*,#474,.F.);
#652=ORIENTED_EDGE('',*,*,#475,.F.);
#653=ORIENTED_EDGE('',*,*,#476,.T.);
#654=ORIENTED_EDGE('',*,*,#466,.T.);
#655=ORIENTED_EDGE('',*,*,#471,.T.);
#656=ORIENTED_EDGE('',*,*,#477,.T.);
#657=ORIENTED_EDGE('',*,*,#473,.T.);
#658=ORIENTED_EDGE('',*,*,#478,.T.);
#659=ORIENTED_EDGE('',*,*,#479,.F.);
#660=ORIENTED_EDGE('',*,*,#480,.F.);
#661=ORIENTED_EDGE('',*,*,#474,.T.);
#662=ORIENTED_EDGE('',*,*,#480,.T.);
#663=ORIENTED_EDGE('',*,*,#481,.F.);
#664=ORIENTED_EDGE('',*,*,#482,.F.);
#665=ORIENTED_EDGE('',*,*,#475,.T.);
#666=ORIENTED_EDGE('',*,*,#482,.T.);
#667=ORIENTED_EDGE('',*,*,#483,.F.);
#668=ORIENTED_EDGE('',*,*,#484,.F.);
#669=ORIENTED_EDGE('',*,*,#472,.T.);
#670=ORIENTED_EDGE('',*,*,#484,.T.);
#671=ORIENTED_EDGE('',*,*,#485,.F.);
#672=ORIENTED_EDGE('',*,*,#478,.F.);
#673=ORIENTED_EDGE('',*,*,#477,.F.);
#674=ORIENTED_EDGE('',*,*,#470,.F.);
#675=ORIENTED_EDGE('',*,*,#486,.T.);
#676=ORIENTED_EDGE('',*,*,#487,.F.);
#677=ORIENTED_EDGE('',*,*,#462,.F.);
#678=ORIENTED_EDGE('',*,*,#488,.F.);
#679=ORIENTED_EDGE('',*,*,#489,.F.);
#680=ORIENTED_EDGE('',*,*,#468,.F.);
#681=ORIENTED_EDGE('',*,*,#469,.F.);
#682=ORIENTED_EDGE('',*,*,#489,.T.);
#683=ORIENTED_EDGE('',*,*,#490,.F.);
#684=ORIENTED_EDGE('',*,*,#486,.F.);
#685=ORIENTED_EDGE('',*,*,#461,.F.);
#686=ORIENTED_EDGE('',*,*,#467,.T.);
#687=ORIENTED_EDGE('',*,*,#476,.F.);
#688=ORIENTED_EDGE('',*,*,#487,.T.);
#689=ORIENTED_EDGE('',*,*,#490,.T.);
#690=ORIENTED_EDGE('',*,*,#488,.T.);
#691=ORIENTED_EDGE('',*,*,#485,.T.);
#692=ORIENTED_EDGE('',*,*,#483,.T.);
#693=ORIENTED_EDGE('',*,*,#481,.T.);
#694=ORIENTED_EDGE('',*,*,#479,.T.);
#695=PLANE('',#784);
#696=PLANE('',#785);
#697=PLANE('',#786);
#698=PLANE('',#787);
#699=PLANE('',#788);
#700=PLANE('',#791);
#701=PLANE('',#792);
#702=PLANE('',#793);
#703=PLANE('',#804);
#704=PLANE('',#805);
#705=PLANE('',#806);
#706=PLANE('',#807);
#707=PLANE('',#808);
#708=PLANE('',#809);
#709=PLANE('',#810);
#710=PLANE('',#811);
#711=PLANE('',#812);
#712=PLANE('',#813);
#713=PLANE('',#814);
#714=PLANE('',#815);
#715=PLANE('',#816);
#716=PLANE('',#817);
#717=PLANE('',#818);
#718=PLANE('',#819);
#719=PLANE('',#820);
#720=PLANE('',#821);
#721=PLANE('',#822);
#722=PLANE('',#823);
#723=PLANE('',#824);
#724=PLANE('',#825);
#725=PLANE('',#826);
#726=PLANE('',#827);
#727=PLANE('',#828);
#728=PLANE('',#829);
#729=PLANE('',#830);
#730=ADVANCED_FACE('',(#42),#695,.T.);
#731=ADVANCED_FACE('',(#43),#696,.T.);
#732=ADVANCED_FACE('',(#44,#29),#697,.T.);
#733=ADVANCED_FACE('',(#45),#698,.T.);
#734=ADVANCED_FACE('',(#46,#30,#31),#699,.T.);
#735=ADVANCED_FACE('',(#47),#700,.T.);
#736=ADVANCED_FACE('',(#48),#701,.T.);
#737=ADVANCED_FACE('',(#49),#702,.T.);
#738=ADVANCED_FACE('',(#50),#17,.F.);
#739=ADVANCED_FACE('',(#51),#18,.F.);
#740=ADVANCED_FACE('',(#52),#19,.F.);
#741=ADVANCED_FACE('',(#53),#20,.F.);
#742=ADVANCED_FACE('',(#54),#703,.T.);
#743=ADVANCED_FACE('',(#55),#704,.T.);
#744=ADVANCED_FACE('',(#56,#32),#705,.F.);
#745=ADVANCED_FACE('',(#57),#706,.T.);
#746=ADVANCED_FACE('',(#58),#707,.T.);
#747=ADVANCED_FACE('',(#59),#708,.T.);
#748=ADVANCED_FACE('',(#60),#709,.T.);
#749=ADVANCED_FACE('',(#61),#710,.T.);
#750=ADVANCED_FACE('',(#62),#711,.T.);
#751=ADVANCED_FACE('',(#63,#33),#712,.T.);
#752=ADVANCED_FACE('',(#64,#34,#35),#713,.T.);
#753=ADVANCED_FACE('',(#65),#714,.T.);
#754=ADVANCED_FACE('',(#66,#36,#37),#715,.T.);
#755=ADVANCED_FACE('',(#67),#716,.T.);
#756=ADVANCED_FACE('',(#68,#38,#39),#717,.T.);
#757=ADVANCED_FACE('',(#69),#718,.T.);
#758=ADVANCED_FACE('',(#70),#719,.T.);
#759=ADVANCED_FACE('',(#71,#40),#720,.F.);
#760=ADVANCED_FACE('',(#72),#721,.T.);
#761=ADVANCED_FACE('',(#73),#722,.T.);
#762=ADVANCED_FACE('',(#74),#723,.T.);
#763=ADVANCED_FACE('',(#75),#724,.T.);
#764=ADVANCED_FACE('',(#76),#725,.T.);
#765=ADVANCED_FACE('',(#77),#726,.T.);
#766=ADVANCED_FACE('',(#78),#727,.T.);
#767=ADVANCED_FACE('',(#79),#728,.T.);
#768=ADVANCED_FACE('',(#80,#41),#729,.T.);
#769=CLOSED_SHELL('',(#730,#731,#732,#733,#734,#735,#736,#737,#738,#739,
#740,#741,#742,#743,#744,#745,#746,#747,#748,#749,#750,#751,#752,#753,#754,
#755,#756));
#770=CLOSED_SHELL('',(#757,#758,#759,#760,#761,#762,#763,#764,#765,#766,
#767,#768));
#771=DERIVED_UNIT_ELEMENT(#773,1.);
#772=DERIVED_UNIT_ELEMENT(#1236,-3.);
#773=(
MASS_UNIT()
NAMED_UNIT(*)
SI_UNIT(.KILO.,.GRAM.)
);
#774=DERIVED_UNIT((#771,#772));
#775=MEASURE_REPRESENTATION_ITEM('density measure',
POSITIVE_RATIO_MEASURE(7850.),#774);
#776=PROPERTY_DEFINITION_REPRESENTATION(#781,#778);
#777=PROPERTY_DEFINITION_REPRESENTATION(#782,#779);
#778=REPRESENTATION('material name',(#780),#1233);
#779=REPRESENTATION('density',(#775),#1233);
#780=DESCRIPTIVE_REPRESENTATION_ITEM('Steel','Steel');
#781=PROPERTY_DEFINITION('material property','material name',#1243);
#782=PROPERTY_DEFINITION('material property','density of part',#1243);
#783=AXIS2_PLACEMENT_3D('',#1021,#831,#832);
#784=AXIS2_PLACEMENT_3D('',#1022,#833,#834);
#785=AXIS2_PLACEMENT_3D('',#1031,#839,#840);
#786=AXIS2_PLACEMENT_3D('',#1037,#844,#845);
#787=AXIS2_PLACEMENT_3D('',#1057,#856,#857);
#788=AXIS2_PLACEMENT_3D('',#1061,#860,#861);
#789=AXIS2_PLACEMENT_3D('',#1066,#864,#865);
#790=AXIS2_PLACEMENT_3D('',#1068,#866,#867);
#791=AXIS2_PLACEMENT_3D('',#1069,#868,#869);
#792=AXIS2_PLACEMENT_3D('',#1073,#872,#873);
#793=AXIS2_PLACEMENT_3D('',#1077,#876,#877);
#794=AXIS2_PLACEMENT_3D('',#1081,#880,#881);
#795=AXIS2_PLACEMENT_3D('',#1084,#883,#884);
#796=AXIS2_PLACEMENT_3D('',#1085,#885,#886);
#797=AXIS2_PLACEMENT_3D('',#1088,#888,#889);
#798=AXIS2_PLACEMENT_3D('',#1089,#890,#891);
#799=AXIS2_PLACEMENT_3D('',#1091,#892,#893);
#800=AXIS2_PLACEMENT_3D('',#1094,#895,#896);
#801=AXIS2_PLACEMENT_3D('',#1095,#897,#898);
#802=AXIS2_PLACEMENT_3D('',#1097,#899,#900);
#803=AXIS2_PLACEMENT_3D('',#1100,#902,#903);
#804=AXIS2_PLACEMENT_3D('',#1101,#904,#905);
#805=AXIS2_PLACEMENT_3D('',#1110,#910,#911);
#806=AXIS2_PLACEMENT_3D('',#1116,#915,#916);
#807=AXIS2_PLACEMENT_3D('',#1129,#924,#925);
#808=AXIS2_PLACEMENT_3D('',#1133,#928,#929);
#809=AXIS2_PLACEMENT_3D('',#1137,#932,#933);
#810=AXIS2_PLACEMENT_3D('',#1141,#936,#937);
#811=AXIS2_PLACEMENT_3D('',#1145,#940,#941);
#812=AXIS2_PLACEMENT_3D('',#1149,#944,#945);
#813=AXIS2_PLACEMENT_3D('',#1151,#947,#948);
#814=AXIS2_PLACEMENT_3D('',#1160,#953,#954);
#815=AXIS2_PLACEMENT_3D('',#1163,#957,#958);
#816=AXIS2_PLACEMENT_3D('',#1165,#960,#961);
#817=AXIS2_PLACEMENT_3D('',#1167,#963,#964);
#818=AXIS2_PLACEMENT_3D('',#1168,#965,#966);
#819=AXIS2_PLACEMENT_3D('',#1169,#967,#968);
#820=AXIS2_PLACEMENT_3D('',#1178,#973,#974);
#821=AXIS2_PLACEMENT_3D('',#1184,#978,#979);
#822=AXIS2_PLACEMENT_3D('',#1200,#988,#989);
#823=AXIS2_PLACEMENT_3D('',#1204,#992,#993);
#824=AXIS2_PLACEMENT_3D('',#1210,#997,#998);
#825=AXIS2_PLACEMENT_3D('',#1214,#1001,#1002);
#826=AXIS2_PLACEMENT_3D('',#1218,#1005,#1006);
#827=AXIS2_PLACEMENT_3D('',#1220,#1008,#1009);
#828=AXIS2_PLACEMENT_3D('',#1224,#1012,#1013);
#829=AXIS2_PLACEMENT_3D('',#1228,#1016,#1017);
#830=AXIS2_PLACEMENT_3D('',#1230,#1019,#1020);
#831=DIRECTION('axis',(0.,0.,1.));
#832=DIRECTION('refdir',(1.,0.,0.));
#833=DIRECTION('center_axis',(0.,-0.707106781186547,-0.707106781186548));
#834=DIRECTION('ref_axis',(-1.,0.,0.));
#835=DIRECTION('',(0.,0.707106781186548,-0.707106781186547));
#836=DIRECTION('',(1.,0.,0.));
#837=DIRECTION('',(0.,0.707106781186548,-0.707106781186547));
#838=DIRECTION('',(-1.,0.,0.));
#839=DIRECTION('center_axis',(0.,0.,-1.));
#840=DIRECTION('ref_axis',(0.,-1.,0.));
#841=DIRECTION('',(0.,-1.,0.));
#842=DIRECTION('',(-1.,0.,0.));
#843=DIRECTION('',(0.,-1.,0.));
#844=DIRECTION('center_axis',(-1.,0.,0.));
#845=DIRECTION('ref_axis',(0.,0.,1.));
#846=DIRECTION('',(0.,0.,1.));
#847=DIRECTION('',(0.,-0.707106781186549,-0.707106781186546));
#848=DIRECTION('',(0.,1.,0.));
#849=DIRECTION('',(0.,-0.707106781186548,0.707106781186548));
#850=DIRECTION('',(0.,0.,-1.));
#851=DIRECTION('',(0.,0.707106781186546,0.707106781186549));
#852=DIRECTION('',(0.,1.,0.));
#853=DIRECTION('',(0.,0.,1.));
#854=DIRECTION('',(0.,-1.,0.));
#855=DIRECTION('',(0.,0.,-1.));
#856=DIRECTION('center_axis',(0.,0.707106781186549,-0.707106781186546));
#857=DIRECTION('ref_axis',(-1.,0.,0.));
#858=DIRECTION('',(1.,0.,0.));
#859=DIRECTION('',(0.,0.707106781186546,0.707106781186549));
#860=DIRECTION('center_axis',(0.,1.,0.));
#861=DIRECTION('ref_axis',(0.,0.,-1.));
#862=DIRECTION('',(-1.,0.,0.));
#863=DIRECTION('',(0.,0.,-1.));
#864=DIRECTION('center_axis',(0.,-1.,0.));
#865=DIRECTION('ref_axis',(-1.,0.,0.));
#866=DIRECTION('center_axis',(0.,-1.,0.));
#867=DIRECTION('ref_axis',(-1.,0.,0.));
#868=DIRECTION('center_axis',(0.,0.707106781186548,0.707106781186548));
#869=DIRECTION('ref_axis',(1.,0.,0.));
#870=DIRECTION('',(1.,0.,0.));
#871=DIRECTION('',(0.,-0.707106781186548,0.707106781186548));
#872=DIRECTION('center_axis',(0.,0.,1.));
#873=DIRECTION('ref_axis',(0.,1.,0.));
#874=DIRECTION('',(-1.,0.,0.));
#875=DIRECTION('',(0.,1.,0.));
#876=DIRECTION('center_axis',(0.,-0.707106781186546,0.707106781186549));
#877=DIRECTION('ref_axis',(1.,0.,0.));
#878=DIRECTION('',(1.,0.,0.));
#879=DIRECTION('',(0.,-0.707106781186549,-0.707106781186546));
#880=DIRECTION('center_axis',(0.,-1.,0.));
#881=DIRECTION('ref_axis',(-1.,0.,0.));
#882=DIRECTION('',(0.,-1.,0.));
#883=DIRECTION('center_axis',(0.,1.,0.));
#884=DIRECTION('ref_axis',(-1.,0.,0.));
#885=DIRECTION('center_axis',(0.,-1.,0.));
#886=DIRECTION('ref_axis',(-1.,0.,0.));
#887=DIRECTION('',(0.,-1.,0.));
#888=DIRECTION('center_axis',(0.,1.,0.));
#889=DIRECTION('ref_axis',(-1.,0.,0.));
#890=DIRECTION('center_axis',(0.,1.,0.));
#891=DIRECTION('ref_axis',(1.,0.,0.));
#892=DIRECTION('center_axis',(0.,1.,0.));
#893=DIRECTION('ref_axis',(1.,0.,0.));
#894=DIRECTION('',(0.,1.,0.));
#895=DIRECTION('center_axis',(0.,-1.,0.));
#896=DIRECTION('ref_axis',(1.,0.,0.));
#897=DIRECTION('center_axis',(0.,1.,0.));
#898=DIRECTION('ref_axis',(1.,0.,0.));
#899=DIRECTION('center_axis',(0.,1.,0.));
#900=DIRECTION('ref_axis',(1.,0.,0.));
#901=DIRECTION('',(0.,1.,0.));
#902=DIRECTION('center_axis',(0.,-1.,0.));
#903=DIRECTION('ref_axis',(1.,0.,0.));
#904=DIRECTION('center_axis',(0.,-0.707106781186548,-0.707106781186547));
#905=DIRECTION('ref_axis',(-1.,0.,0.));
#906=DIRECTION('',(0.,-0.707106781186547,0.707106781186548));
#907=DIRECTION('',(-1.,0.,0.));
#908=DIRECTION('',(0.,0.707106781186547,-0.707106781186548));
#909=DIRECTION('',(1.,0.,0.));
#910=DIRECTION('center_axis',(0.,0.,-1.));
#911=DIRECTION('ref_axis',(0.,1.,0.));
#912=DIRECTION('',(0.,-1.,0.));
#913=DIRECTION('',(-1.,0.,0.));
#914=DIRECTION('',(0.,1.,0.));
#915=DIRECTION('center_axis',(1.,0.,0.));
#916=DIRECTION('ref_axis',(0.,1.,0.));
#917=DIRECTION('',(0.,0.,1.));
#918=DIRECTION('',(0.,-0.707106781186548,-0.707106781186547));
#919=DIRECTION('',(0.,1.,0.));
#920=DIRECTION('',(0.,-0.707106781186548,0.707106781186548));
#921=DIRECTION('',(0.,0.,-1.));
#922=DIRECTION('',(0.,0.707106781186546,0.707106781186549));
#923=DIRECTION('',(0.,0.,1.));
#924=DIRECTION('center_axis',(0.,0.707106781186549,-0.707106781186546));
#925=DIRECTION('ref_axis',(-1.,0.,0.));
#926=DIRECTION('',(0.,-0.707106781186546,-0.707106781186549));
#927=DIRECTION('',(1.,0.,0.));
#928=DIRECTION('center_axis',(0.,1.,0.));
#929=DIRECTION('ref_axis',(0.,0.,1.));
#930=DIRECTION('',(-1.,0.,0.));
#931=DIRECTION('',(0.,0.,1.));
#932=DIRECTION('center_axis',(0.,0.707106781186548,0.707106781186548));
#933=DIRECTION('ref_axis',(1.,0.,0.));
#934=DIRECTION('',(0.,0.707106781186548,-0.707106781186548));
#935=DIRECTION('',(1.,0.,0.));
#936=DIRECTION('center_axis',(0.,0.,1.));
#937=DIRECTION('ref_axis',(0.,-1.,0.));
#938=DIRECTION('',(-1.,0.,0.));
#939=DIRECTION('',(0.,-1.,0.));
#940=DIRECTION('center_axis',(0.,-0.707106781186547,0.707106781186548));
#941=DIRECTION('ref_axis',(1.,0.,0.));
#942=DIRECTION('',(0.,0.707106781186548,0.707106781186547));
#943=DIRECTION('',(1.,0.,0.));
#944=DIRECTION('center_axis',(0.,-1.,0.));
#945=DIRECTION('ref_axis',(0.,0.,-1.));
#946=DIRECTION('',(0.,0.,-1.));
#947=DIRECTION('center_axis',(1.,0.,0.));
#948=DIRECTION('ref_axis',(0.,0.,-1.));
#949=DIRECTION('',(0.,-1.,0.));
#950=DIRECTION('',(0.,0.,1.));
#951=DIRECTION('',(0.,1.,0.));
#952=DIRECTION('',(0.,0.,-1.));
#953=DIRECTION('center_axis',(0.,1.,0.));
#954=DIRECTION('ref_axis',(0.,0.,-1.));
#955=DIRECTION('',(1.,0.,0.));
#956=DIRECTION('',(1.,0.,0.));
#957=DIRECTION('center_axis',(0.,0.,-1.));
#958=DIRECTION('ref_axis',(0.,-1.,0.));
#959=DIRECTION('',(1.,0.,0.));
#960=DIRECTION('center_axis',(0.,-1.,0.));
#961=DIRECTION('ref_axis',(0.,0.,1.));
#962=DIRECTION('',(-1.,0.,0.));
#963=DIRECTION('center_axis',(0.,0.,1.));
#964=DIRECTION('ref_axis',(0.,1.,0.));
#965=DIRECTION('center_axis',(0.,-1.,0.));
#966=DIRECTION('ref_axis',(0.,0.,1.));
#967=DIRECTION('center_axis',(0.,0.707106781186548,0.707106781186548));
#968=DIRECTION('ref_axis',(1.,0.,0.));
#969=DIRECTION('',(0.,0.707106781186548,-0.707106781186548));
#970=DIRECTION('',(-1.,0.,0.));
#971=DIRECTION('',(0.,-0.707106781186548,0.707106781186548));
#972=DIRECTION('',(1.,0.,0.));
#973=DIRECTION('center_axis',(0.,0.,1.));
#974=DIRECTION('ref_axis',(0.,-1.,0.));
#975=DIRECTION('',(0.,1.,0.));
#976=DIRECTION('',(-1.,0.,0.));
#977=DIRECTION('',(0.,-1.,0.));
#978=DIRECTION('center_axis',(1.,0.,0.));
#979=DIRECTION('ref_axis',(0.,1.,0.));
#980=DIRECTION('',(0.,0.,-1.));
#981=DIRECTION('',(0.,-1.,0.));
#982=DIRECTION('',(0.,0.,1.));
#983=DIRECTION('',(0.,-0.707106781186548,-0.707106781186547));
#984=DIRECTION('',(0.,-1.,0.));
#985=DIRECTION('',(0.,0.,-1.));
#986=DIRECTION('',(0.,1.,0.));
#987=DIRECTION('',(0.,0.,1.));
#988=DIRECTION('center_axis',(0.,-0.707106781186547,0.707106781186548));
#989=DIRECTION('ref_axis',(1.,0.,0.));
#990=DIRECTION('',(0.,0.707106781186548,0.707106781186547));
#991=DIRECTION('',(1.,0.,0.));
#992=DIRECTION('center_axis',(0.,-1.,0.));
#993=DIRECTION('ref_axis',(0.,0.,-1.));
#994=DIRECTION('',(1.,0.,0.));
#995=DIRECTION('',(0.,0.,-1.));
#996=DIRECTION('',(1.,0.,0.));
#997=DIRECTION('center_axis',(0.,0.,-1.));
#998=DIRECTION('ref_axis',(0.,1.,0.));
#999=DIRECTION('',(0.,1.,0.));
#1000=DIRECTION('',(1.,0.,0.));
#1001=DIRECTION('center_axis',(0.,1.,0.));
#1002=DIRECTION('ref_axis',(0.,0.,1.));
#1003=DIRECTION('',(0.,0.,1.));
#1004=DIRECTION('',(1.,0.,0.));
#1005=DIRECTION('center_axis',(0.,0.,1.));
#1006=DIRECTION('ref_axis',(0.,-1.,0.));
#1007=DIRECTION('',(0.,-1.,0.));
#1008=DIRECTION('center_axis',(0.,-1.,0.));
#1009=DIRECTION('ref_axis',(0.,0.,-1.));
#1010=DIRECTION('',(1.,0.,0.));
#1011=DIRECTION('',(0.,0.,-1.));
#1012=DIRECTION('center_axis',(0.,1.,0.));
#1013=DIRECTION('ref_axis',(0.,0.,1.));
#1014=DIRECTION('',(0.,0.,1.));
#1015=DIRECTION('',(1.,0.,0.));
#1016=DIRECTION('center_axis',(0.,0.,-1.));
#1017=DIRECTION('ref_axis',(0.,1.,0.));
#1018=DIRECTION('',(0.,1.,0.));
#1019=DIRECTION('center_axis',(1.,0.,0.));
#1020=DIRECTION('ref_axis',(0.,0.,-1.));
#1021=CARTESIAN_POINT('',(0.,0.,0.));
#1022=CARTESIAN_POINT('Origin',(0.,-3.2,-3.6));
#1023=CARTESIAN_POINT('',(-20.,-4.2,-2.6));
#1024=CARTESIAN_POINT('',(-20.,-2.20000000000001,-4.6));
#1025=CARTESIAN_POINT('',(-20.,4.80000000000003,-11.6));
#1026=CARTESIAN_POINT('',(0.,-2.20000000000001,-4.6));
#1027=CARTESIAN_POINT('',(0.,-2.2,-4.6));
#1028=CARTESIAN_POINT('',(0.,-4.2,-2.6));
#1029=CARTESIAN_POINT('',(0.,4.80000000000003,-11.6));
#1030=CARTESIAN_POINT('',(0.,-4.2,-2.6));
#1031=CARTESIAN_POINT('Origin',(0.,154.2,-4.6));
#1032=CARTESIAN_POINT('',(-20.,152.2,-4.6));
#1033=CARTESIAN_POINT('',(-20.,154.2,-4.6));
#1034=CARTESIAN_POINT('',(0.,152.2,-4.6));
#1035=CARTESIAN_POINT('',(0.,152.2,-4.6));
#1036=CARTESIAN_POINT('',(0.,154.2,-4.6));
#1037=CARTESIAN_POINT('Origin',(-20.,75.,42.6));
#1038=CARTESIAN_POINT('',(-20.,-4.2,87.8));
#1039=CARTESIAN_POINT('',(-20.,-4.2,-4.6));
#1040=CARTESIAN_POINT('',(-20.,-2.2,89.8));
#1041=CARTESIAN_POINT('',(-20.,4.80000000000007,96.8));
#1042=CARTESIAN_POINT('',(-20.,152.2,89.8));
#1043=CARTESIAN_POINT('',(-20.,-4.2,89.8));
#1044=CARTESIAN_POINT('',(-20.,154.2,87.8));
#1045=CARTESIAN_POINT('',(-20.,145.2,96.8));
#1046=CARTESIAN_POINT('',(-20.,154.2,-2.59999999999999));
#1047=CARTESIAN_POINT('',(-20.,154.2,89.8));
#1048=CARTESIAN_POINT('',(-20.,145.2,-11.5999999999999));
#1049=CARTESIAN_POINT('',(-20.,-0.199999999999996,-0.6));
#1050=CARTESIAN_POINT('',(-20.,150.2,-0.6));
#1051=CARTESIAN_POINT('',(-20.,150.2,-0.6));
#1052=CARTESIAN_POINT('',(-20.,150.2,85.8));
#1053=CARTESIAN_POINT('',(-20.,150.2,85.8));
#1054=CARTESIAN_POINT('',(-20.,-0.199999999999996,85.8));
#1055=CARTESIAN_POINT('',(-20.,-0.2,85.8));
#1056=CARTESIAN_POINT('',(-20.,-0.2,-0.6));
#1057=CARTESIAN_POINT('Origin',(0.,153.2,-3.6));
#1058=CARTESIAN_POINT('',(0.,154.2,-2.59999999999999));
#1059=CARTESIAN_POINT('',(0.,154.2,-2.6));
#1060=CARTESIAN_POINT('',(0.,145.2,-11.5999999999999));
#1061=CARTESIAN_POINT('Origin',(0.,154.2,89.8));
#1062=CARTESIAN_POINT('',(0.,154.2,87.8));
#1063=CARTESIAN_POINT('',(0.,154.2,87.8));
#1064=CARTESIAN_POINT('',(0.,154.2,89.8));
#1065=CARTESIAN_POINT('',(-8.75,154.2,15.4));
#1066=CARTESIAN_POINT('Origin',(-10.,154.2,15.4));
#1067=CARTESIAN_POINT('',(-8.75,154.2,69.8));
#1068=CARTESIAN_POINT('Origin',(-10.,154.2,69.8));
#1069=CARTESIAN_POINT('Origin',(0.,153.2,88.8));
#1070=CARTESIAN_POINT('',(0.,152.2,89.8));
#1071=CARTESIAN_POINT('',(0.,152.2,89.8));
#1072=CARTESIAN_POINT('',(0.,145.2,96.8));
#1073=CARTESIAN_POINT('Origin',(0.,-4.2,89.8));
#1074=CARTESIAN_POINT('',(0.,-2.2,89.8));
#1075=CARTESIAN_POINT('',(0.,-2.2,89.8));
#1076=CARTESIAN_POINT('',(0.,-4.2,89.8));
#1077=CARTESIAN_POINT('Origin',(0.,-3.2,88.8));
#1078=CARTESIAN_POINT('',(0.,-4.2,87.8));
#1079=CARTESIAN_POINT('',(0.,-4.2,87.8));
#1080=CARTESIAN_POINT('',(0.,4.80000000000007,96.8));
#1081=CARTESIAN_POINT('Origin',(-10.,154.2,69.8));
#1082=CARTESIAN_POINT('',(-8.75,150.2,69.8));
#1083=CARTESIAN_POINT('',(-8.75,154.2,69.8));
#1084=CARTESIAN_POINT('Origin',(-10.,150.2,69.8));
#1085=CARTESIAN_POINT('Origin',(-10.,154.2,15.4));
#1086=CARTESIAN_POINT('',(-8.75,150.2,15.4));
#1087=CARTESIAN_POINT('',(-8.75,154.2,15.4));
#1088=CARTESIAN_POINT('Origin',(-10.,150.2,15.4));
#1089=CARTESIAN_POINT('Origin',(-10.,-4.2,69.8));
#1090=CARTESIAN_POINT('',(-11.25,-4.2,69.8));
#1091=CARTESIAN_POINT('Origin',(-10.,-4.2,69.8));
#1092=CARTESIAN_POINT('',(-11.25,-0.2,69.8));
#1093=CARTESIAN_POINT('',(-11.25,-4.2,69.8));
#1094=CARTESIAN_POINT('Origin',(-10.,-0.2,69.8));
#1095=CARTESIAN_POINT('Origin',(-10.0000001490116,-4.2,15.4));
#1096=CARTESIAN_POINT('',(-11.2500001490116,-4.2,15.4));
#1097=CARTESIAN_POINT('Origin',(-10.0000001490116,-4.2,15.4));
#1098=CARTESIAN_POINT('',(-11.2500001490116,-0.2,15.4));
#1099=CARTESIAN_POINT('',(-11.2500001490116,-4.2,15.4));
#1100=CARTESIAN_POINT('Origin',(-10.0000001490116,-0.2,15.4));
#1101=CARTESIAN_POINT('Origin',(0.,-6.2,-6.6));
#1102=CARTESIAN_POINT('',(5.,-5.20000000000001,-7.6));
#1103=CARTESIAN_POINT('',(5.,-7.2,-5.6));
#1104=CARTESIAN_POINT('',(5.,1.79999999999996,-14.6));
#1105=CARTESIAN_POINT('',(0.,-7.2,-5.6));
#1106=CARTESIAN_POINT('',(0.,-7.2,-5.6));
#1107=CARTESIAN_POINT('',(0.,-5.20000000000001,-7.6));
#1108=CARTESIAN_POINT('',(0.,1.79999999999996,-14.6));
#1109=CARTESIAN_POINT('',(0.,-5.2,-7.6));
#1110=CARTESIAN_POINT('Origin',(0.,-7.20000000000001,-7.6));
#1111=CARTESIAN_POINT('',(0.,155.2,-7.6));
#1112=CARTESIAN_POINT('',(0.,157.2,-7.6));
#1113=CARTESIAN_POINT('',(5.,155.2,-7.6));
#1114=CARTESIAN_POINT('',(0.,155.2,-7.6));
#1115=CARTESIAN_POINT('',(5.,157.2,-7.6));
#1116=CARTESIAN_POINT('Origin',(0.,75.,42.6));
#1117=CARTESIAN_POINT('',(0.,-7.2,90.8));
#1118=CARTESIAN_POINT('',(0.,-7.2,-7.6));
#1119=CARTESIAN_POINT('',(0.,-5.2,92.8));
#1120=CARTESIAN_POINT('',(0.,1.80000000000003,99.8));
#1121=CARTESIAN_POINT('',(0.,155.2,92.8));
#1122=CARTESIAN_POINT('',(0.,-7.2,92.8));
#1123=CARTESIAN_POINT('',(0.,157.2,90.8));
#1124=CARTESIAN_POINT('',(0.,148.2,99.8));
#1125=CARTESIAN_POINT('',(0.,157.2,-5.6));
#1126=CARTESIAN_POINT('',(0.,157.2,92.8));
#1127=CARTESIAN_POINT('',(0.,148.2,-14.6));
#1128=CARTESIAN_POINT('',(0.,-4.2,-4.6));
#1129=CARTESIAN_POINT('Origin',(0.,156.2,-6.6));
#1130=CARTESIAN_POINT('',(5.,157.2,-5.6));
#1131=CARTESIAN_POINT('',(5.,148.2,-14.6));
#1132=CARTESIAN_POINT('',(0.,157.2,-5.6));
#1133=CARTESIAN_POINT('Origin',(0.,157.2,-7.60000000000001));
#1134=CARTESIAN_POINT('',(5.,157.2,90.8));
#1135=CARTESIAN_POINT('',(0.,157.2,90.8));
#1136=CARTESIAN_POINT('',(5.,157.2,92.8));
#1137=CARTESIAN_POINT('Origin',(0.,156.2,91.8));
#1138=CARTESIAN_POINT('',(5.,155.2,92.8));
#1139=CARTESIAN_POINT('',(5.,148.2,99.8));
#1140=CARTESIAN_POINT('',(0.,155.2,92.8));
#1141=CARTESIAN_POINT('Origin',(0.,157.2,92.8));
#1142=CARTESIAN_POINT('',(5.,-5.2,92.8));
#1143=CARTESIAN_POINT('',(0.,-5.2,92.8));
#1144=CARTESIAN_POINT('',(5.,-7.2,92.8));
#1145=CARTESIAN_POINT('Origin',(0.,-6.2,91.8));
#1146=CARTESIAN_POINT('',(5.,-7.2,90.8));
#1147=CARTESIAN_POINT('',(5.,1.80000000000003,99.8));
#1148=CARTESIAN_POINT('',(0.,-7.2,90.8));
#1149=CARTESIAN_POINT('Origin',(0.,-7.2,92.8));
#1150=CARTESIAN_POINT('',(5.,-7.2,-7.6));
#1151=CARTESIAN_POINT('Origin',(5.,75.,42.6));
#1152=CARTESIAN_POINT('',(5.,150.2,-0.6));
#1153=CARTESIAN_POINT('',(5.,-0.199999999999996,-0.6));
#1154=CARTESIAN_POINT('',(5.,150.2,-0.6));
#1155=CARTESIAN_POINT('',(5.,-0.199999999999996,85.8));
#1156=CARTESIAN_POINT('',(5.,-0.2,-0.6));
#1157=CARTESIAN_POINT('',(5.,150.2,85.8));
#1158=CARTESIAN_POINT('',(5.,-0.2,85.8));
#1159=CARTESIAN_POINT('',(5.,150.2,85.8));
#1160=CARTESIAN_POINT('Origin',(0.,-0.2,85.8));
#1161=CARTESIAN_POINT('',(0.,-0.2,-0.6));
#1162=CARTESIAN_POINT('',(0.,-0.2,85.8));
#1163=CARTESIAN_POINT('Origin',(0.,150.2,85.8));
#1164=CARTESIAN_POINT('',(0.,150.2,85.8));
#1165=CARTESIAN_POINT('Origin',(0.,150.2,-0.599999999999996));
#1166=CARTESIAN_POINT('',(0.,150.2,-0.6));
#1167=CARTESIAN_POINT('Origin',(0.,-0.199999999999996,-0.6));
#1168=CARTESIAN_POINT('Origin',(0.,-4.2,-4.6));
#1169=CARTESIAN_POINT('Origin',(0.,156.2,92.2));
#1170=CARTESIAN_POINT('',(5.,155.2,93.2));
#1171=CARTESIAN_POINT('',(5.,157.2,91.2));
#1172=CARTESIAN_POINT('',(5.,148.2,100.2));
#1173=CARTESIAN_POINT('',(0.,157.2,91.2));
#1174=CARTESIAN_POINT('',(0.,157.2,91.2));
#1175=CARTESIAN_POINT('',(0.,155.2,93.2));
#1176=CARTESIAN_POINT('',(0.,148.2,100.2));
#1177=CARTESIAN_POINT('',(0.,155.2,93.2));
#1178=CARTESIAN_POINT('Origin',(0.,157.2,93.2));
#1179=CARTESIAN_POINT('',(0.,-5.2,93.2));
#1180=CARTESIAN_POINT('',(0.,-7.2,93.2));
#1181=CARTESIAN_POINT('',(5.,-5.2,93.2));
#1182=CARTESIAN_POINT('',(0.,-5.2,93.2));
#1183=CARTESIAN_POINT('',(5.,-7.2,93.2));
#1184=CARTESIAN_POINT('Origin',(0.,75.,43.));
#1185=CARTESIAN_POINT('',(0.,157.2,-7.2));
#1186=CARTESIAN_POINT('',(0.,157.2,93.2));
#1187=CARTESIAN_POINT('',(0.,-7.2,-7.2));
#1188=CARTESIAN_POINT('',(0.,157.2,-7.2));
#1189=CARTESIAN_POINT('',(0.,-7.2,91.2));
#1190=CARTESIAN_POINT('',(0.,-7.2,-7.2));
#1191=CARTESIAN_POINT('',(0.,1.80000000000003,100.2));
#1192=CARTESIAN_POINT('',(0.,146.2,4.));
#1193=CARTESIAN_POINT('',(0.,3.8,4.));
#1194=CARTESIAN_POINT('',(0.,146.2,4.));
#1195=CARTESIAN_POINT('',(0.,146.2,82.2));
#1196=CARTESIAN_POINT('',(0.,146.2,82.2));
#1197=CARTESIAN_POINT('',(0.,3.8,82.2));
#1198=CARTESIAN_POINT('',(0.,3.8,82.2));
#1199=CARTESIAN_POINT('',(0.,3.8,4.));
#1200=CARTESIAN_POINT('Origin',(0.,-6.2,92.2));
#1201=CARTESIAN_POINT('',(5.,-7.2,91.2));
#1202=CARTESIAN_POINT('',(5.,1.80000000000003,100.2));
#1203=CARTESIAN_POINT('',(0.,-7.2,91.2));
#1204=CARTESIAN_POINT('Origin',(0.,146.2,82.2));
#1205=CARTESIAN_POINT('',(5.,146.2,4.));
#1206=CARTESIAN_POINT('',(0.,146.2,4.));
#1207=CARTESIAN_POINT('',(5.,146.2,82.2));
#1208=CARTESIAN_POINT('',(5.,146.2,82.2));
#1209=CARTESIAN_POINT('',(0.,146.2,82.2));
#1210=CARTESIAN_POINT('Origin',(0.,3.8,82.2));
#1211=CARTESIAN_POINT('',(5.,3.80000000000001,82.2));
#1212=CARTESIAN_POINT('',(5.,3.8,82.2));
#1213=CARTESIAN_POINT('',(0.,3.8,82.2));
#1214=CARTESIAN_POINT('Origin',(0.,3.8,4.));
#1215=CARTESIAN_POINT('',(5.,3.80000000000001,4.));
#1216=CARTESIAN_POINT('',(5.,3.8,4.));
#1217=CARTESIAN_POINT('',(0.,3.8,4.));
#1218=CARTESIAN_POINT('Origin',(0.,146.2,4.));
#1219=CARTESIAN_POINT('',(5.,146.2,4.));
#1220=CARTESIAN_POINT('Origin',(0.,-7.2,93.2));
#1221=CARTESIAN_POINT('',(5.,-7.20000000000001,-7.2));
#1222=CARTESIAN_POINT('',(0.,-7.2,-7.2));
#1223=CARTESIAN_POINT('',(5.,-7.2,-7.2));
#1224=CARTESIAN_POINT('Origin',(0.,157.2,-7.20000000000001));
#1225=CARTESIAN_POINT('',(5.,157.2,-7.2));
#1226=CARTESIAN_POINT('',(5.,157.2,93.2));
#1227=CARTESIAN_POINT('',(0.,157.2,-7.2));
#1228=CARTESIAN_POINT('Origin',(0.,-7.20000000000001,-7.2));
#1229=CARTESIAN_POINT('',(5.,157.2,-7.2));
#1230=CARTESIAN_POINT('Origin',(5.,75.,43.));
#1231=UNCERTAINTY_MEASURE_WITH_UNIT(LENGTH_MEASURE(0.01),#1235,
'DISTANCE_ACCURACY_VALUE',
'Maximum model space distance between geometric entities at asserted c
onnectivities');
#1232=UNCERTAINTY_MEASURE_WITH_UNIT(LENGTH_MEASURE(0.01),#1235,
'DISTANCE_ACCURACY_VALUE',
'Maximum model space distance between geometric entities at asserted c
onnectivities');
#1233=(
GEOMETRIC_REPRESENTATION_CONTEXT(3)
GLOBAL_UNCERTAINTY_ASSIGNED_CONTEXT((#1231))
GLOBAL_UNIT_ASSIGNED_CONTEXT((#1235,#1237,#1238))
REPRESENTATION_CONTEXT('','3D')
);
#1234=(
GEOMETRIC_REPRESENTATION_CONTEXT(3)
GLOBAL_UNCERTAINTY_ASSIGNED_CONTEXT((#1232))
GLOBAL_UNIT_ASSIGNED_CONTEXT((#1235,#1237,#1238))
REPRESENTATION_CONTEXT('','3D')
);
#1235=(
LENGTH_UNIT()
NAMED_UNIT(*)
SI_UNIT(.MILLI.,.METRE.)
);
#1236=(
LENGTH_UNIT()
NAMED_UNIT(*)
SI_UNIT($,.METRE.)
);
#1237=(
NAMED_UNIT(*)
PLANE_ANGLE_UNIT()
SI_UNIT($,.RADIAN.)
);
#1238=(
NAMED_UNIT(*)
SI_UNIT($,.STERADIAN.)
SOLID_ANGLE_UNIT()
);
#1239=SHAPE_DEFINITION_REPRESENTATION(#1240,#1241);
#1240=PRODUCT_DEFINITION_SHAPE('',$,#1243);
#1241=SHAPE_REPRESENTATION('',(#783),#1233);
#1242=PRODUCT_DEFINITION_CONTEXT('part definition',#1247,'design');
#1243=PRODUCT_DEFINITION('2026-08-30-18-42-54-937','Back',#1244,#1242);
#1244=PRODUCT_DEFINITION_FORMATION('',$,#1249);
#1245=PRODUCT_RELATED_PRODUCT_CATEGORY('Back','Back',(#1249));
#1246=APPLICATION_PROTOCOL_DEFINITION('international standard',
'automotive_design',2009,#1247);
#1247=APPLICATION_CONTEXT(
'Core Data for Automotive Mechanical Design Process');
#1248=PRODUCT_CONTEXT('part definition',#1247,'mechanical');
#1249=PRODUCT('2026-08-30-18-42-54-937','Back',$,(#1248));
#1250=PRESENTATION_STYLE_ASSIGNMENT((#1251));
#1251=SURFACE_STYLE_USAGE(.BOTH.,#1252);
#1252=SURFACE_SIDE_STYLE('',(#1253));
#1253=SURFACE_STYLE_FILL_AREA(#1254);
#1254=FILL_AREA_STYLE('Steel - Satin',(#1255));
#1255=FILL_AREA_STYLE_COLOUR('Steel - Satin',#1256);
#1256=COLOUR_RGB('Steel - Satin',0.627450980392157,0.627450980392157,0.627450980392157);
ENDSEC;
END-ISO-10303-21;
