ISO-10303-21;
HEADER;
/* Generated by software containing ST-Developer
 * from STEP Tools, Inc. (www.steptools.com) 
 */

FILE_DESCRIPTION(
/* description */ (''),
/* implementation_level */ '2;1');

FILE_NAME(
/* name */ 'Lid.step',
/* time_stamp */ '2026-08-30T18:43:01+04:00',
/* author */ (''),
/* organization */ (''),
/* preprocessor_version */ 'ST-DEVELOPER v20.1',
/* originating_system */ 'Autodesk Translation Framework v15.8.0.0',
/* authorisation */ '');

FILE_SCHEMA (('AUTOMOTIVE_DESIGN { 1 0 10303 214 3 1 1 }'));
ENDSEC;

DATA;
#10=MECHANICAL_DESIGN_GEOMETRIC_PRESENTATION_REPRESENTATION('',(#13,#14,
#15),#1967);
#11=SHAPE_REPRESENTATION_RELATIONSHIP('SRR','None',#1974,#12);
#12=ADVANCED_BREP_SHAPE_REPRESENTATION('',(#16,#17,#18),#1966);
#13=STYLED_ITEM('',(#1983),#16);
#14=STYLED_ITEM('',(#1983),#17);
#15=STYLED_ITEM('',(#1983),#18);
#16=MANIFOLD_SOLID_BREP('Body1',#1177);
#17=MANIFOLD_SOLID_BREP('Body2',#1178);
#18=MANIFOLD_SOLID_BREP('Body3',#1179);
#19=FACE_BOUND('',#180,.T.);
#20=FACE_BOUND('',#181,.T.);
#21=FACE_BOUND('',#182,.T.);
#22=FACE_BOUND('',#183,.T.);
#23=FACE_BOUND('',#184,.T.);
#24=FACE_BOUND('',#185,.T.);
#25=FACE_BOUND('',#186,.T.);
#26=FACE_BOUND('',#187,.T.);
#27=FACE_BOUND('',#189,.T.);
#28=FACE_BOUND('',#190,.T.);
#29=FACE_BOUND('',#191,.T.);
#30=FACE_BOUND('',#192,.T.);
#31=FACE_BOUND('',#193,.T.);
#32=FACE_BOUND('',#194,.T.);
#33=FACE_BOUND('',#195,.T.);
#34=FACE_BOUND('',#196,.T.);
#35=FACE_BOUND('',#199,.T.);
#36=FACE_BOUND('',#200,.T.);
#37=FACE_BOUND('',#205,.T.);
#38=FACE_BOUND('',#206,.T.);
#39=FACE_BOUND('',#212,.T.);
#40=FACE_BOUND('',#213,.T.);
#41=FACE_BOUND('',#219,.T.);
#42=FACE_BOUND('',#220,.T.);
#43=PLANE('',#1205);
#44=PLANE('',#1209);
#45=PLANE('',#1213);
#46=PLANE('',#1217);
#47=PLANE('',#1221);
#48=PLANE('',#1225);
#49=PLANE('',#1229);
#50=PLANE('',#1233);
#51=PLANE('',#1237);
#52=PLANE('',#1241);
#53=PLANE('',#1245);
#54=PLANE('',#1249);
#55=PLANE('',#1253);
#56=PLANE('',#1257);
#57=PLANE('',#1261);
#58=PLANE('',#1265);
#59=PLANE('',#1269);
#60=PLANE('',#1270);
#61=PLANE('',#1271);
#62=PLANE('',#1272);
#63=PLANE('',#1273);
#64=PLANE('',#1274);
#65=PLANE('',#1275);
#66=PLANE('',#1276);
#67=PLANE('',#1279);
#68=PLANE('',#1284);
#69=PLANE('',#1285);
#70=PLANE('',#1286);
#71=PLANE('',#1287);
#72=PLANE('',#1288);
#73=PLANE('',#1289);
#74=PLANE('',#1292);
#75=PLANE('',#1297);
#76=PLANE('',#1298);
#77=PLANE('',#1299);
#78=PLANE('',#1300);
#79=FACE_OUTER_BOUND('',#139,.T.);
#80=FACE_OUTER_BOUND('',#140,.T.);
#81=FACE_OUTER_BOUND('',#141,.T.);
#82=FACE_OUTER_BOUND('',#142,.T.);
#83=FACE_OUTER_BOUND('',#143,.T.);
#84=FACE_OUTER_BOUND('',#144,.T.);
#85=FACE_OUTER_BOUND('',#145,.T.);
#86=FACE_OUTER_BOUND('',#146,.T.);
#87=FACE_OUTER_BOUND('',#147,.T.);
#88=FACE_OUTER_BOUND('',#148,.T.);
#89=FACE_OUTER_BOUND('',#149,.T.);
#90=FACE_OUTER_BOUND('',#150,.T.);
#91=FACE_OUTER_BOUND('',#151,.T.);
#92=FACE_OUTER_BOUND('',#152,.T.);
#93=FACE_OUTER_BOUND('',#153,.T.);
#94=FACE_OUTER_BOUND('',#154,.T.);
#95=FACE_OUTER_BOUND('',#155,.T.);
#96=FACE_OUTER_BOUND('',#156,.T.);
#97=FACE_OUTER_BOUND('',#157,.T.);
#98=FACE_OUTER_BOUND('',#158,.T.);
#99=FACE_OUTER_BOUND('',#159,.T.);
#100=FACE_OUTER_BOUND('',#160,.T.);
#101=FACE_OUTER_BOUND('',#161,.T.);
#102=FACE_OUTER_BOUND('',#162,.T.);
#103=FACE_OUTER_BOUND('',#163,.T.);
#104=FACE_OUTER_BOUND('',#164,.T.);
#105=FACE_OUTER_BOUND('',#165,.T.);
#106=FACE_OUTER_BOUND('',#166,.T.);
#107=FACE_OUTER_BOUND('',#167,.T.);
#108=FACE_OUTER_BOUND('',#168,.T.);
#109=FACE_OUTER_BOUND('',#169,.T.);
#110=FACE_OUTER_BOUND('',#170,.T.);
#111=FACE_OUTER_BOUND('',#171,.T.);
#112=FACE_OUTER_BOUND('',#172,.T.);
#113=FACE_OUTER_BOUND('',#173,.T.);
#114=FACE_OUTER_BOUND('',#174,.T.);
#115=FACE_OUTER_BOUND('',#175,.T.);
#116=FACE_OUTER_BOUND('',#176,.T.);
#117=FACE_OUTER_BOUND('',#177,.T.);
#118=FACE_OUTER_BOUND('',#178,.T.);
#119=FACE_OUTER_BOUND('',#179,.T.);
#120=FACE_OUTER_BOUND('',#188,.T.);
#121=FACE_OUTER_BOUND('',#197,.T.);
#122=FACE_OUTER_BOUND('',#198,.T.);
#123=FACE_OUTER_BOUND('',#201,.T.);
#124=FACE_OUTER_BOUND('',#202,.T.);
#125=FACE_OUTER_BOUND('',#203,.T.);
#126=FACE_OUTER_BOUND('',#204,.T.);
#127=FACE_OUTER_BOUND('',#207,.T.);
#128=FACE_OUTER_BOUND('',#208,.T.);
#129=FACE_OUTER_BOUND('',#209,.T.);
#130=FACE_OUTER_BOUND('',#210,.T.);
#131=FACE_OUTER_BOUND('',#211,.T.);
#132=FACE_OUTER_BOUND('',#214,.T.);
#133=FACE_OUTER_BOUND('',#215,.T.);
#134=FACE_OUTER_BOUND('',#216,.T.);
#135=FACE_OUTER_BOUND('',#217,.T.);
#136=FACE_OUTER_BOUND('',#218,.T.);
#137=FACE_OUTER_BOUND('',#221,.T.);
#138=FACE_OUTER_BOUND('',#222,.T.);
#139=EDGE_LOOP('',(#769,#770,#771,#772));
#140=EDGE_LOOP('',(#773,#774,#775,#776));
#141=EDGE_LOOP('',(#777,#778,#779,#780));
#142=EDGE_LOOP('',(#781,#782,#783,#784));
#143=EDGE_LOOP('',(#785,#786,#787,#788));
#144=EDGE_LOOP('',(#789,#790,#791,#792));
#145=EDGE_LOOP('',(#793,#794,#795,#796));
#146=EDGE_LOOP('',(#797,#798,#799,#800));
#147=EDGE_LOOP('',(#801,#802,#803,#804));
#148=EDGE_LOOP('',(#805,#806,#807,#808));
#149=EDGE_LOOP('',(#809,#810,#811,#812));
#150=EDGE_LOOP('',(#813,#814,#815,#816));
#151=EDGE_LOOP('',(#817,#818,#819,#820));
#152=EDGE_LOOP('',(#821,#822,#823,#824));
#153=EDGE_LOOP('',(#825,#826,#827,#828));
#154=EDGE_LOOP('',(#829,#830,#831,#832));
#155=EDGE_LOOP('',(#833,#834,#835,#836));
#156=EDGE_LOOP('',(#837,#838,#839,#840));
#157=EDGE_LOOP('',(#841,#842,#843,#844));
#158=EDGE_LOOP('',(#845,#846,#847,#848));
#159=EDGE_LOOP('',(#849,#850,#851,#852));
#160=EDGE_LOOP('',(#853,#854,#855,#856));
#161=EDGE_LOOP('',(#857,#858,#859,#860));
#162=EDGE_LOOP('',(#861,#862,#863,#864));
#163=EDGE_LOOP('',(#865,#866,#867,#868));
#164=EDGE_LOOP('',(#869,#870,#871,#872));
#165=EDGE_LOOP('',(#873,#874,#875,#876));
#166=EDGE_LOOP('',(#877,#878,#879,#880));
#167=EDGE_LOOP('',(#881,#882,#883,#884));
#168=EDGE_LOOP('',(#885,#886,#887,#888));
#169=EDGE_LOOP('',(#889,#890,#891,#892));
#170=EDGE_LOOP('',(#893,#894,#895,#896));
#171=EDGE_LOOP('',(#897,#898,#899,#900));
#172=EDGE_LOOP('',(#901,#902,#903,#904));
#173=EDGE_LOOP('',(#905,#906,#907,#908));
#174=EDGE_LOOP('',(#909,#910,#911,#912));
#175=EDGE_LOOP('',(#913,#914,#915,#916));
#176=EDGE_LOOP('',(#917,#918,#919,#920));
#177=EDGE_LOOP('',(#921,#922,#923,#924));
#178=EDGE_LOOP('',(#925,#926,#927,#928));
#179=EDGE_LOOP('',(#929,#930,#931,#932));
#180=EDGE_LOOP('',(#933,#934,#935,#936,#937,#938,#939,#940));
#181=EDGE_LOOP('',(#941,#942,#943,#944,#945,#946,#947,#948));
#182=EDGE_LOOP('',(#949,#950,#951,#952,#953,#954,#955,#956));
#183=EDGE_LOOP('',(#957,#958,#959,#960,#961,#962,#963,#964));
#184=EDGE_LOOP('',(#965));
#185=EDGE_LOOP('',(#966));
#186=EDGE_LOOP('',(#967));
#187=EDGE_LOOP('',(#968));
#188=EDGE_LOOP('',(#969,#970,#971,#972));
#189=EDGE_LOOP('',(#973,#974,#975,#976,#977,#978,#979,#980));
#190=EDGE_LOOP('',(#981,#982,#983,#984,#985,#986,#987,#988));
#191=EDGE_LOOP('',(#989,#990,#991,#992,#993,#994,#995,#996));
#192=EDGE_LOOP('',(#997,#998,#999,#1000,#1001,#1002,#1003,#1004));
#193=EDGE_LOOP('',(#1005));
#194=EDGE_LOOP('',(#1006));
#195=EDGE_LOOP('',(#1007));
#196=EDGE_LOOP('',(#1008));
#197=EDGE_LOOP('',(#1009,#1010,#1011,#1012));
#198=EDGE_LOOP('',(#1013,#1014,#1015,#1016));
#199=EDGE_LOOP('',(#1017));
#200=EDGE_LOOP('',(#1018));
#201=EDGE_LOOP('',(#1019,#1020,#1021,#1022,#1023));
#202=EDGE_LOOP('',(#1024,#1025,#1026,#1027));
#203=EDGE_LOOP('',(#1028,#1029,#1030,#1031));
#204=EDGE_LOOP('',(#1032,#1033,#1034,#1035));
#205=EDGE_LOOP('',(#1036));
#206=EDGE_LOOP('',(#1037));
#207=EDGE_LOOP('',(#1038,#1039,#1040,#1041,#1042));
#208=EDGE_LOOP('',(#1043,#1044,#1045,#1046));
#209=EDGE_LOOP('',(#1047,#1048,#1049,#1050));
#210=EDGE_LOOP('',(#1051,#1052,#1053,#1054));
#211=EDGE_LOOP('',(#1055,#1056,#1057,#1058));
#212=EDGE_LOOP('',(#1059));
#213=EDGE_LOOP('',(#1060));
#214=EDGE_LOOP('',(#1061,#1062,#1063,#1064,#1065));
#215=EDGE_LOOP('',(#1066,#1067,#1068,#1069));
#216=EDGE_LOOP('',(#1070,#1071,#1072,#1073));
#217=EDGE_LOOP('',(#1074,#1075,#1076,#1077,#1078));
#218=EDGE_LOOP('',(#1079,#1080,#1081,#1082));
#219=EDGE_LOOP('',(#1083));
#220=EDGE_LOOP('',(#1084));
#221=EDGE_LOOP('',(#1085,#1086,#1087,#1088));
#222=EDGE_LOOP('',(#1089,#1090,#1091,#1092));
#223=LINE('',#1638,#337);
#224=LINE('',#1644,#338);
#225=LINE('',#1650,#339);
#226=LINE('',#1656,#340);
#227=LINE('',#1661,#341);
#228=LINE('',#1663,#342);
#229=LINE('',#1665,#343);
#230=LINE('',#1666,#344);
#231=LINE('',#1672,#345);
#232=LINE('',#1675,#346);
#233=LINE('',#1677,#347);
#234=LINE('',#1678,#348);
#235=LINE('',#1684,#349);
#236=LINE('',#1687,#350);
#237=LINE('',#1689,#351);
#238=LINE('',#1690,#352);
#239=LINE('',#1696,#353);
#240=LINE('',#1699,#354);
#241=LINE('',#1701,#355);
#242=LINE('',#1702,#356);
#243=LINE('',#1709,#357);
#244=LINE('',#1711,#358);
#245=LINE('',#1713,#359);
#246=LINE('',#1714,#360);
#247=LINE('',#1720,#361);
#248=LINE('',#1723,#362);
#249=LINE('',#1725,#363);
#250=LINE('',#1726,#364);
#251=LINE('',#1732,#365);
#252=LINE('',#1735,#366);
#253=LINE('',#1737,#367);
#254=LINE('',#1738,#368);
#255=LINE('',#1744,#369);
#256=LINE('',#1747,#370);
#257=LINE('',#1749,#371);
#258=LINE('',#1750,#372);
#259=LINE('',#1757,#373);
#260=LINE('',#1759,#374);
#261=LINE('',#1761,#375);
#262=LINE('',#1762,#376);
#263=LINE('',#1768,#377);
#264=LINE('',#1771,#378);
#265=LINE('',#1773,#379);
#266=LINE('',#1774,#380);
#267=LINE('',#1780,#381);
#268=LINE('',#1783,#382);
#269=LINE('',#1785,#383);
#270=LINE('',#1786,#384);
#271=LINE('',#1792,#385);
#272=LINE('',#1795,#386);
#273=LINE('',#1797,#387);
#274=LINE('',#1798,#388);
#275=LINE('',#1805,#389);
#276=LINE('',#1807,#390);
#277=LINE('',#1809,#391);
#278=LINE('',#1810,#392);
#279=LINE('',#1816,#393);
#280=LINE('',#1819,#394);
#281=LINE('',#1821,#395);
#282=LINE('',#1822,#396);
#283=LINE('',#1828,#397);
#284=LINE('',#1831,#398);
#285=LINE('',#1833,#399);
#286=LINE('',#1834,#400);
#287=LINE('',#1840,#401);
#288=LINE('',#1843,#402);
#289=LINE('',#1845,#403);
#290=LINE('',#1846,#404);
#291=LINE('',#1853,#405);
#292=LINE('',#1855,#406);
#293=LINE('',#1857,#407);
#294=LINE('',#1858,#408);
#295=LINE('',#1861,#409);
#296=LINE('',#1863,#410);
#297=LINE('',#1864,#411);
#298=LINE('',#1867,#412);
#299=LINE('',#1869,#413);
#300=LINE('',#1870,#414);
#301=LINE('',#1872,#415);
#302=LINE('',#1873,#416);
#303=LINE('',#1879,#417);
#304=LINE('',#1881,#418);
#305=LINE('',#1883,#419);
#306=LINE('',#1884,#420);
#307=LINE('',#1887,#421);
#308=LINE('',#1889,#422);
#309=LINE('',#1890,#423);
#310=LINE('',#1897,#424);
#311=LINE('',#1899,#425);
#312=LINE('',#1900,#426);
#313=LINE('',#1903,#427);
#314=LINE('',#1907,#428);
#315=LINE('',#1911,#429);
#316=LINE('',#1913,#430);
#317=LINE('',#1914,#431);
#318=LINE('',#1916,#432);
#319=LINE('',#1917,#433);
#320=LINE('',#1923,#434);
#321=LINE('',#1925,#435);
#322=LINE('',#1927,#436);
#323=LINE('',#1928,#437);
#324=LINE('',#1931,#438);
#325=LINE('',#1933,#439);
#326=LINE('',#1934,#440);
#327=LINE('',#1941,#441);
#328=LINE('',#1943,#442);
#329=LINE('',#1944,#443);
#330=LINE('',#1947,#444);
#331=LINE('',#1951,#445);
#332=LINE('',#1955,#446);
#333=LINE('',#1957,#447);
#334=LINE('',#1958,#448);
#335=LINE('',#1960,#449);
#336=LINE('',#1961,#450);
#337=VECTOR('',#1307,2.);
#338=VECTOR('',#1314,1.99999999999999);
#339=VECTOR('',#1321,1.99999999999999);
#340=VECTOR('',#1328,1.99999999999999);
#341=VECTOR('',#1333,10.);
#342=VECTOR('',#1334,10.);
#343=VECTOR('',#1335,10.);
#344=VECTOR('',#1336,10.);
#345=VECTOR('',#1343,10.);
#346=VECTOR('',#1346,10.);
#347=VECTOR('',#1347,10.);
#348=VECTOR('',#1348,10.);
#349=VECTOR('',#1355,10.);
#350=VECTOR('',#1358,10.);
#351=VECTOR('',#1359,10.);
#352=VECTOR('',#1360,10.);
#353=VECTOR('',#1367,10.);
#354=VECTOR('',#1370,10.);
#355=VECTOR('',#1371,10.);
#356=VECTOR('',#1372,10.);
#357=VECTOR('',#1381,10.);
#358=VECTOR('',#1382,10.);
#359=VECTOR('',#1383,10.);
#360=VECTOR('',#1384,10.);
#361=VECTOR('',#1391,10.);
#362=VECTOR('',#1394,10.);
#363=VECTOR('',#1395,10.);
#364=VECTOR('',#1396,10.);
#365=VECTOR('',#1403,10.);
#366=VECTOR('',#1406,10.);
#367=VECTOR('',#1407,10.);
#368=VECTOR('',#1408,10.);
#369=VECTOR('',#1415,10.);
#370=VECTOR('',#1418,10.);
#371=VECTOR('',#1419,10.);
#372=VECTOR('',#1420,10.);
#373=VECTOR('',#1429,10.);
#374=VECTOR('',#1430,10.);
#375=VECTOR('',#1431,10.);
#376=VECTOR('',#1432,10.);
#377=VECTOR('',#1439,10.);
#378=VECTOR('',#1442,10.);
#379=VECTOR('',#1443,10.);
#380=VECTOR('',#1444,10.);
#381=VECTOR('',#1451,10.);
#382=VECTOR('',#1454,10.);
#383=VECTOR('',#1455,10.);
#384=VECTOR('',#1456,10.);
#385=VECTOR('',#1463,10.);
#386=VECTOR('',#1466,10.);
#387=VECTOR('',#1467,10.);
#388=VECTOR('',#1468,10.);
#389=VECTOR('',#1477,10.);
#390=VECTOR('',#1478,10.);
#391=VECTOR('',#1479,10.);
#392=VECTOR('',#1480,10.);
#393=VECTOR('',#1487,10.);
#394=VECTOR('',#1490,10.);
#395=VECTOR('',#1491,10.);
#396=VECTOR('',#1492,10.);
#397=VECTOR('',#1499,10.);
#398=VECTOR('',#1502,10.);
#399=VECTOR('',#1503,10.);
#400=VECTOR('',#1504,10.);
#401=VECTOR('',#1511,10.);
#402=VECTOR('',#1514,10.);
#403=VECTOR('',#1515,10.);
#404=VECTOR('',#1516,10.);
#405=VECTOR('',#1525,10.);
#406=VECTOR('',#1526,10.);
#407=VECTOR('',#1527,10.);
#408=VECTOR('',#1528,10.);
#409=VECTOR('',#1531,10.);
#410=VECTOR('',#1532,10.);
#411=VECTOR('',#1533,10.);
#412=VECTOR('',#1536,10.);
#413=VECTOR('',#1537,10.);
#414=VECTOR('',#1538,10.);
#415=VECTOR('',#1541,10.);
#416=VECTOR('',#1542,10.);
#417=VECTOR('',#1549,10.);
#418=VECTOR('',#1550,10.);
#419=VECTOR('',#1551,10.);
#420=VECTOR('',#1552,10.);
#421=VECTOR('',#1555,10.);
#422=VECTOR('',#1556,10.);
#423=VECTOR('',#1557,10.);
#424=VECTOR('',#1564,10.);
#425=VECTOR('',#1565,10.);
#426=VECTOR('',#1566,10.);
#427=VECTOR('',#1569,1.50000000000002);
#428=VECTOR('',#1574,1.5);
#429=VECTOR('',#1579,10.);
#430=VECTOR('',#1580,10.);
#431=VECTOR('',#1581,10.);
#432=VECTOR('',#1584,10.);
#433=VECTOR('',#1585,10.);
#434=VECTOR('',#1592,10.);
#435=VECTOR('',#1593,10.);
#436=VECTOR('',#1594,10.);
#437=VECTOR('',#1595,10.);
#438=VECTOR('',#1598,10.);
#439=VECTOR('',#1599,10.);
#440=VECTOR('',#1600,10.);
#441=VECTOR('',#1607,10.);
#442=VECTOR('',#1608,10.);
#443=VECTOR('',#1609,10.);
#444=VECTOR('',#1612,1.49999999999999);
#445=VECTOR('',#1617,1.5);
#446=VECTOR('',#1622,10.);
#447=VECTOR('',#1623,10.);
#448=VECTOR('',#1624,10.);
#449=VECTOR('',#1627,10.);
#450=VECTOR('',#1628,10.);
#451=CIRCLE('',#1194,2.);
#452=CIRCLE('',#1195,2.);
#453=CIRCLE('',#1197,1.99999999999999);
#454=CIRCLE('',#1198,1.99999999999999);
#455=CIRCLE('',#1200,1.99999999999999);
#456=CIRCLE('',#1201,1.99999999999999);
#457=CIRCLE('',#1203,1.99999999999999);
#458=CIRCLE('',#1204,1.99999999999999);
#459=CIRCLE('',#1207,2.49999999999997);
#460=CIRCLE('',#1208,2.49999999999997);
#461=CIRCLE('',#1211,2.5);
#462=CIRCLE('',#1212,2.5);
#463=CIRCLE('',#1215,2.49999999999996);
#464=CIRCLE('',#1216,2.49999999999996);
#465=CIRCLE('',#1219,2.49999999999996);
#466=CIRCLE('',#1220,2.49999999999996);
#467=CIRCLE('',#1223,2.49999999999997);
#468=CIRCLE('',#1224,2.49999999999997);
#469=CIRCLE('',#1227,2.5);
#470=CIRCLE('',#1228,2.5);
#471=CIRCLE('',#1231,2.49999999999996);
#472=CIRCLE('',#1232,2.49999999999996);
#473=CIRCLE('',#1235,2.49999999999996);
#474=CIRCLE('',#1236,2.49999999999996);
#475=CIRCLE('',#1239,2.49999999999997);
#476=CIRCLE('',#1240,2.49999999999997);
#477=CIRCLE('',#1243,2.5);
#478=CIRCLE('',#1244,2.5);
#479=CIRCLE('',#1247,2.49999999999996);
#480=CIRCLE('',#1248,2.49999999999996);
#481=CIRCLE('',#1251,2.49999999999996);
#482=CIRCLE('',#1252,2.49999999999996);
#483=CIRCLE('',#1255,2.49999999999997);
#484=CIRCLE('',#1256,2.49999999999997);
#485=CIRCLE('',#1259,2.5);
#486=CIRCLE('',#1260,2.5);
#487=CIRCLE('',#1263,2.49999999999996);
#488=CIRCLE('',#1264,2.49999999999996);
#489=CIRCLE('',#1267,2.49999999999996);
#490=CIRCLE('',#1268,2.49999999999996);
#491=CIRCLE('',#1277,1.5);
#492=CIRCLE('',#1278,1.50000000000002);
#493=CIRCLE('',#1281,1.50000000000002);
#494=CIRCLE('',#1283,1.5);
#495=CIRCLE('',#1290,1.5);
#496=CIRCLE('',#1291,1.49999999999999);
#497=CIRCLE('',#1294,1.49999999999999);
#498=CIRCLE('',#1296,1.5);
#499=VERTEX_POINT('',#1635);
#500=VERTEX_POINT('',#1637);
#501=VERTEX_POINT('',#1641);
#502=VERTEX_POINT('',#1643);
#503=VERTEX_POINT('',#1647);
#504=VERTEX_POINT('',#1649);
#505=VERTEX_POINT('',#1653);
#506=VERTEX_POINT('',#1655);
#507=VERTEX_POINT('',#1659);
#508=VERTEX_POINT('',#1660);
#509=VERTEX_POINT('',#1662);
#510=VERTEX_POINT('',#1664);
#511=VERTEX_POINT('',#1668);
#512=VERTEX_POINT('',#1670);
#513=VERTEX_POINT('',#1674);
#514=VERTEX_POINT('',#1676);
#515=VERTEX_POINT('',#1680);
#516=VERTEX_POINT('',#1682);
#517=VERTEX_POINT('',#1686);
#518=VERTEX_POINT('',#1688);
#519=VERTEX_POINT('',#1692);
#520=VERTEX_POINT('',#1694);
#521=VERTEX_POINT('',#1698);
#522=VERTEX_POINT('',#1700);
#523=VERTEX_POINT('',#1707);
#524=VERTEX_POINT('',#1708);
#525=VERTEX_POINT('',#1710);
#526=VERTEX_POINT('',#1712);
#527=VERTEX_POINT('',#1716);
#528=VERTEX_POINT('',#1718);
#529=VERTEX_POINT('',#1722);
#530=VERTEX_POINT('',#1724);
#531=VERTEX_POINT('',#1728);
#532=VERTEX_POINT('',#1730);
#533=VERTEX_POINT('',#1734);
#534=VERTEX_POINT('',#1736);
#535=VERTEX_POINT('',#1740);
#536=VERTEX_POINT('',#1742);
#537=VERTEX_POINT('',#1746);
#538=VERTEX_POINT('',#1748);
#539=VERTEX_POINT('',#1755);
#540=VERTEX_POINT('',#1756);
#541=VERTEX_POINT('',#1758);
#542=VERTEX_POINT('',#1760);
#543=VERTEX_POINT('',#1764);
#544=VERTEX_POINT('',#1766);
#545=VERTEX_POINT('',#1770);
#546=VERTEX_POINT('',#1772);
#547=VERTEX_POINT('',#1776);
#548=VERTEX_POINT('',#1778);
#549=VERTEX_POINT('',#1782);
#550=VERTEX_POINT('',#1784);
#551=VERTEX_POINT('',#1788);
#552=VERTEX_POINT('',#1790);
#553=VERTEX_POINT('',#1794);
#554=VERTEX_POINT('',#1796);
#555=VERTEX_POINT('',#1803);
#556=VERTEX_POINT('',#1804);
#557=VERTEX_POINT('',#1806);
#558=VERTEX_POINT('',#1808);
#559=VERTEX_POINT('',#1812);
#560=VERTEX_POINT('',#1814);
#561=VERTEX_POINT('',#1818);
#562=VERTEX_POINT('',#1820);
#563=VERTEX_POINT('',#1824);
#564=VERTEX_POINT('',#1826);
#565=VERTEX_POINT('',#1830);
#566=VERTEX_POINT('',#1832);
#567=VERTEX_POINT('',#1836);
#568=VERTEX_POINT('',#1838);
#569=VERTEX_POINT('',#1842);
#570=VERTEX_POINT('',#1844);
#571=VERTEX_POINT('',#1851);
#572=VERTEX_POINT('',#1852);
#573=VERTEX_POINT('',#1854);
#574=VERTEX_POINT('',#1856);
#575=VERTEX_POINT('',#1860);
#576=VERTEX_POINT('',#1862);
#577=VERTEX_POINT('',#1866);
#578=VERTEX_POINT('',#1868);
#579=VERTEX_POINT('',#1877);
#580=VERTEX_POINT('',#1878);
#581=VERTEX_POINT('',#1880);
#582=VERTEX_POINT('',#1882);
#583=VERTEX_POINT('',#1886);
#584=VERTEX_POINT('',#1888);
#585=VERTEX_POINT('',#1891);
#586=VERTEX_POINT('',#1893);
#587=VERTEX_POINT('',#1896);
#588=VERTEX_POINT('',#1898);
#589=VERTEX_POINT('',#1902);
#590=VERTEX_POINT('',#1906);
#591=VERTEX_POINT('',#1910);
#592=VERTEX_POINT('',#1912);
#593=VERTEX_POINT('',#1921);
#594=VERTEX_POINT('',#1922);
#595=VERTEX_POINT('',#1924);
#596=VERTEX_POINT('',#1926);
#597=VERTEX_POINT('',#1930);
#598=VERTEX_POINT('',#1932);
#599=VERTEX_POINT('',#1935);
#600=VERTEX_POINT('',#1937);
#601=VERTEX_POINT('',#1940);
#602=VERTEX_POINT('',#1942);
#603=VERTEX_POINT('',#1946);
#604=VERTEX_POINT('',#1950);
#605=VERTEX_POINT('',#1954);
#606=VERTEX_POINT('',#1956);
#607=EDGE_CURVE('',#499,#499,#451,.T.);
#608=EDGE_CURVE('',#499,#500,#223,.T.);
#609=EDGE_CURVE('',#500,#500,#452,.T.);
#610=EDGE_CURVE('',#501,#501,#453,.T.);
#611=EDGE_CURVE('',#501,#502,#224,.T.);
#612=EDGE_CURVE('',#502,#502,#454,.T.);
#613=EDGE_CURVE('',#503,#503,#455,.T.);
#614=EDGE_CURVE('',#503,#504,#225,.T.);
#615=EDGE_CURVE('',#504,#504,#456,.T.);
#616=EDGE_CURVE('',#505,#505,#457,.T.);
#617=EDGE_CURVE('',#505,#506,#226,.T.);
#618=EDGE_CURVE('',#506,#506,#458,.T.);
#619=EDGE_CURVE('',#507,#508,#227,.T.);
#620=EDGE_CURVE('',#508,#509,#228,.T.);
#621=EDGE_CURVE('',#510,#509,#229,.T.);
#622=EDGE_CURVE('',#507,#510,#230,.T.);
#623=EDGE_CURVE('',#511,#507,#459,.T.);
#624=EDGE_CURVE('',#512,#510,#460,.T.);
#625=EDGE_CURVE('',#511,#512,#231,.T.);
#626=EDGE_CURVE('',#513,#511,#232,.T.);
#627=EDGE_CURVE('',#514,#512,#233,.T.);
#628=EDGE_CURVE('',#513,#514,#234,.T.);
#629=EDGE_CURVE('',#515,#513,#461,.T.);
#630=EDGE_CURVE('',#516,#514,#462,.T.);
#631=EDGE_CURVE('',#515,#516,#235,.T.);
#632=EDGE_CURVE('',#517,#515,#236,.T.);
#633=EDGE_CURVE('',#518,#516,#237,.T.);
#634=EDGE_CURVE('',#517,#518,#238,.T.);
#635=EDGE_CURVE('',#519,#517,#463,.T.);
#636=EDGE_CURVE('',#520,#518,#464,.T.);
#637=EDGE_CURVE('',#519,#520,#239,.T.);
#638=EDGE_CURVE('',#521,#519,#240,.T.);
#639=EDGE_CURVE('',#522,#520,#241,.T.);
#640=EDGE_CURVE('',#521,#522,#242,.T.);
#641=EDGE_CURVE('',#508,#521,#465,.T.);
#642=EDGE_CURVE('',#509,#522,#466,.T.);
#643=EDGE_CURVE('',#523,#524,#243,.T.);
#644=EDGE_CURVE('',#524,#525,#244,.T.);
#645=EDGE_CURVE('',#526,#525,#245,.T.);
#646=EDGE_CURVE('',#523,#526,#246,.T.);
#647=EDGE_CURVE('',#527,#523,#467,.T.);
#648=EDGE_CURVE('',#528,#526,#468,.T.);
#649=EDGE_CURVE('',#527,#528,#247,.T.);
#650=EDGE_CURVE('',#529,#527,#248,.T.);
#651=EDGE_CURVE('',#530,#528,#249,.T.);
#652=EDGE_CURVE('',#529,#530,#250,.T.);
#653=EDGE_CURVE('',#531,#529,#469,.T.);
#654=EDGE_CURVE('',#532,#530,#470,.T.);
#655=EDGE_CURVE('',#531,#532,#251,.T.);
#656=EDGE_CURVE('',#533,#531,#252,.T.);
#657=EDGE_CURVE('',#534,#532,#253,.T.);
#658=EDGE_CURVE('',#533,#534,#254,.T.);
#659=EDGE_CURVE('',#535,#533,#471,.T.);
#660=EDGE_CURVE('',#536,#534,#472,.T.);
#661=EDGE_CURVE('',#535,#536,#255,.T.);
#662=EDGE_CURVE('',#537,#535,#256,.T.);
#663=EDGE_CURVE('',#538,#536,#257,.T.);
#664=EDGE_CURVE('',#537,#538,#258,.T.);
#665=EDGE_CURVE('',#524,#537,#473,.T.);
#666=EDGE_CURVE('',#525,#538,#474,.T.);
#667=EDGE_CURVE('',#539,#540,#259,.T.);
#668=EDGE_CURVE('',#540,#541,#260,.T.);
#669=EDGE_CURVE('',#542,#541,#261,.T.);
#670=EDGE_CURVE('',#539,#542,#262,.T.);
#671=EDGE_CURVE('',#543,#539,#475,.T.);
#672=EDGE_CURVE('',#544,#542,#476,.T.);
#673=EDGE_CURVE('',#543,#544,#263,.T.);
#674=EDGE_CURVE('',#545,#543,#264,.T.);
#675=EDGE_CURVE('',#546,#544,#265,.T.);
#676=EDGE_CURVE('',#545,#546,#266,.T.);
#677=EDGE_CURVE('',#547,#545,#477,.T.);
#678=EDGE_CURVE('',#548,#546,#478,.T.);
#679=EDGE_CURVE('',#547,#548,#267,.T.);
#680=EDGE_CURVE('',#549,#547,#268,.T.);
#681=EDGE_CURVE('',#550,#548,#269,.T.);
#682=EDGE_CURVE('',#549,#550,#270,.T.);
#683=EDGE_CURVE('',#551,#549,#479,.T.);
#684=EDGE_CURVE('',#552,#550,#480,.T.);
#685=EDGE_CURVE('',#551,#552,#271,.T.);
#686=EDGE_CURVE('',#553,#551,#272,.T.);
#687=EDGE_CURVE('',#554,#552,#273,.T.);
#688=EDGE_CURVE('',#553,#554,#274,.T.);
#689=EDGE_CURVE('',#540,#553,#481,.T.);
#690=EDGE_CURVE('',#541,#554,#482,.T.);
#691=EDGE_CURVE('',#555,#556,#275,.T.);
#692=EDGE_CURVE('',#556,#557,#276,.T.);
#693=EDGE_CURVE('',#558,#557,#277,.T.);
#694=EDGE_CURVE('',#555,#558,#278,.T.);
#695=EDGE_CURVE('',#559,#555,#483,.T.);
#696=EDGE_CURVE('',#560,#558,#484,.T.);
#697=EDGE_CURVE('',#559,#560,#279,.T.);
#698=EDGE_CURVE('',#561,#559,#280,.T.);
#699=EDGE_CURVE('',#562,#560,#281,.T.);
#700=EDGE_CURVE('',#561,#562,#282,.T.);
#701=EDGE_CURVE('',#563,#561,#485,.T.);
#702=EDGE_CURVE('',#564,#562,#486,.T.);
#703=EDGE_CURVE('',#563,#564,#283,.T.);
#704=EDGE_CURVE('',#565,#563,#284,.T.);
#705=EDGE_CURVE('',#566,#564,#285,.T.);
#706=EDGE_CURVE('',#565,#566,#286,.T.);
#707=EDGE_CURVE('',#567,#565,#487,.T.);
#708=EDGE_CURVE('',#568,#566,#488,.T.);
#709=EDGE_CURVE('',#567,#568,#287,.T.);
#710=EDGE_CURVE('',#569,#567,#288,.T.);
#711=EDGE_CURVE('',#570,#568,#289,.T.);
#712=EDGE_CURVE('',#569,#570,#290,.T.);
#713=EDGE_CURVE('',#556,#569,#489,.T.);
#714=EDGE_CURVE('',#557,#570,#490,.T.);
#715=EDGE_CURVE('',#571,#572,#291,.T.);
#716=EDGE_CURVE('',#571,#573,#292,.T.);
#717=EDGE_CURVE('',#574,#573,#293,.T.);
#718=EDGE_CURVE('',#572,#574,#294,.T.);
#719=EDGE_CURVE('',#575,#572,#295,.T.);
#720=EDGE_CURVE('',#576,#574,#296,.T.);
#721=EDGE_CURVE('',#575,#576,#297,.T.);
#722=EDGE_CURVE('',#577,#575,#298,.T.);
#723=EDGE_CURVE('',#578,#576,#299,.T.);
#724=EDGE_CURVE('',#577,#578,#300,.T.);
#725=EDGE_CURVE('',#571,#577,#301,.T.);
#726=EDGE_CURVE('',#573,#578,#302,.T.);
#727=EDGE_CURVE('',#579,#580,#303,.T.);
#728=EDGE_CURVE('',#580,#581,#304,.T.);
#729=EDGE_CURVE('',#581,#582,#305,.T.);
#730=EDGE_CURVE('',#582,#579,#306,.T.);
#731=EDGE_CURVE('',#580,#583,#307,.T.);
#732=EDGE_CURVE('',#584,#583,#308,.T.);
#733=EDGE_CURVE('',#581,#584,#309,.T.);
#734=EDGE_CURVE('',#585,#585,#491,.T.);
#735=EDGE_CURVE('',#586,#586,#492,.T.);
#736=EDGE_CURVE('',#579,#587,#310,.T.);
#737=EDGE_CURVE('',#587,#588,#311,.T.);
#738=EDGE_CURVE('',#583,#588,#312,.T.);
#739=EDGE_CURVE('',#586,#589,#313,.T.);
#740=EDGE_CURVE('',#589,#589,#493,.T.);
#741=EDGE_CURVE('',#585,#590,#314,.T.);
#742=EDGE_CURVE('',#590,#590,#494,.T.);
#743=EDGE_CURVE('',#587,#591,#315,.T.);
#744=EDGE_CURVE('',#591,#592,#316,.T.);
#745=EDGE_CURVE('',#588,#592,#317,.T.);
#746=EDGE_CURVE('',#592,#584,#318,.T.);
#747=EDGE_CURVE('',#591,#582,#319,.T.);
#748=EDGE_CURVE('',#593,#594,#320,.T.);
#749=EDGE_CURVE('',#594,#595,#321,.T.);
#750=EDGE_CURVE('',#595,#596,#322,.T.);
#751=EDGE_CURVE('',#596,#593,#323,.T.);
#752=EDGE_CURVE('',#596,#597,#324,.T.);
#753=EDGE_CURVE('',#598,#597,#325,.T.);
#754=EDGE_CURVE('',#593,#598,#326,.T.);
#755=EDGE_CURVE('',#599,#599,#495,.T.);
#756=EDGE_CURVE('',#600,#600,#496,.T.);
#757=EDGE_CURVE('',#601,#595,#327,.T.);
#758=EDGE_CURVE('',#601,#602,#328,.T.);
#759=EDGE_CURVE('',#597,#602,#329,.T.);
#760=EDGE_CURVE('',#600,#603,#330,.T.);
#761=EDGE_CURVE('',#603,#603,#497,.T.);
#762=EDGE_CURVE('',#599,#604,#331,.T.);
#763=EDGE_CURVE('',#604,#604,#498,.T.);
#764=EDGE_CURVE('',#605,#598,#332,.T.);
#765=EDGE_CURVE('',#606,#605,#333,.T.);
#766=EDGE_CURVE('',#594,#606,#334,.T.);
#767=EDGE_CURVE('',#606,#601,#335,.T.);
#768=EDGE_CURVE('',#602,#605,#336,.T.);
#769=ORIENTED_EDGE('',*,*,#607,.F.);
#770=ORIENTED_EDGE('',*,*,#608,.T.);
#771=ORIENTED_EDGE('',*,*,#609,.F.);
#772=ORIENTED_EDGE('',*,*,#608,.F.);
#773=ORIENTED_EDGE('',*,*,#610,.F.);
#774=ORIENTED_EDGE('',*,*,#611,.T.);
#775=ORIENTED_EDGE('',*,*,#612,.F.);
#776=ORIENTED_EDGE('',*,*,#611,.F.);
#777=ORIENTED_EDGE('',*,*,#613,.F.);
#778=ORIENTED_EDGE('',*,*,#614,.T.);
#779=ORIENTED_EDGE('',*,*,#615,.F.);
#780=ORIENTED_EDGE('',*,*,#614,.F.);
#781=ORIENTED_EDGE('',*,*,#616,.F.);
#782=ORIENTED_EDGE('',*,*,#617,.T.);
#783=ORIENTED_EDGE('',*,*,#618,.F.);
#784=ORIENTED_EDGE('',*,*,#617,.F.);
#785=ORIENTED_EDGE('',*,*,#619,.T.);
#786=ORIENTED_EDGE('',*,*,#620,.T.);
#787=ORIENTED_EDGE('',*,*,#621,.F.);
#788=ORIENTED_EDGE('',*,*,#622,.F.);
#789=ORIENTED_EDGE('',*,*,#623,.T.);
#790=ORIENTED_EDGE('',*,*,#622,.T.);
#791=ORIENTED_EDGE('',*,*,#624,.F.);
#792=ORIENTED_EDGE('',*,*,#625,.F.);
#793=ORIENTED_EDGE('',*,*,#626,.T.);
#794=ORIENTED_EDGE('',*,*,#625,.T.);
#795=ORIENTED_EDGE('',*,*,#627,.F.);
#796=ORIENTED_EDGE('',*,*,#628,.F.);
#797=ORIENTED_EDGE('',*,*,#629,.T.);
#798=ORIENTED_EDGE('',*,*,#628,.T.);
#799=ORIENTED_EDGE('',*,*,#630,.F.);
#800=ORIENTED_EDGE('',*,*,#631,.F.);
#801=ORIENTED_EDGE('',*,*,#632,.T.);
#802=ORIENTED_EDGE('',*,*,#631,.T.);
#803=ORIENTED_EDGE('',*,*,#633,.F.);
#804=ORIENTED_EDGE('',*,*,#634,.F.);
#805=ORIENTED_EDGE('',*,*,#635,.T.);
#806=ORIENTED_EDGE('',*,*,#634,.T.);
#807=ORIENTED_EDGE('',*,*,#636,.F.);
#808=ORIENTED_EDGE('',*,*,#637,.F.);
#809=ORIENTED_EDGE('',*,*,#638,.T.);
#810=ORIENTED_EDGE('',*,*,#637,.T.);
#811=ORIENTED_EDGE('',*,*,#639,.F.);
#812=ORIENTED_EDGE('',*,*,#640,.F.);
#813=ORIENTED_EDGE('',*,*,#641,.T.);
#814=ORIENTED_EDGE('',*,*,#640,.T.);
#815=ORIENTED_EDGE('',*,*,#642,.F.);
#816=ORIENTED_EDGE('',*,*,#620,.F.);
#817=ORIENTED_EDGE('',*,*,#643,.T.);
#818=ORIENTED_EDGE('',*,*,#644,.T.);
#819=ORIENTED_EDGE('',*,*,#645,.F.);
#820=ORIENTED_EDGE('',*,*,#646,.F.);
#821=ORIENTED_EDGE('',*,*,#647,.T.);
#822=ORIENTED_EDGE('',*,*,#646,.T.);
#823=ORIENTED_EDGE('',*,*,#648,.F.);
#824=ORIENTED_EDGE('',*,*,#649,.F.);
#825=ORIENTED_EDGE('',*,*,#650,.T.);
#826=ORIENTED_EDGE('',*,*,#649,.T.);
#827=ORIENTED_EDGE('',*,*,#651,.F.);
#828=ORIENTED_EDGE('',*,*,#652,.F.);
#829=ORIENTED_EDGE('',*,*,#653,.T.);
#830=ORIENTED_EDGE('',*,*,#652,.T.);
#831=ORIENTED_EDGE('',*,*,#654,.F.);
#832=ORIENTED_EDGE('',*,*,#655,.F.);
#833=ORIENTED_EDGE('',*,*,#656,.T.);
#834=ORIENTED_EDGE('',*,*,#655,.T.);
#835=ORIENTED_EDGE('',*,*,#657,.F.);
#836=ORIENTED_EDGE('',*,*,#658,.F.);
#837=ORIENTED_EDGE('',*,*,#659,.T.);
#838=ORIENTED_EDGE('',*,*,#658,.T.);
#839=ORIENTED_EDGE('',*,*,#660,.F.);
#840=ORIENTED_EDGE('',*,*,#661,.F.);
#841=ORIENTED_EDGE('',*,*,#662,.T.);
#842=ORIENTED_EDGE('',*,*,#661,.T.);
#843=ORIENTED_EDGE('',*,*,#663,.F.);
#844=ORIENTED_EDGE('',*,*,#664,.F.);
#845=ORIENTED_EDGE('',*,*,#665,.T.);
#846=ORIENTED_EDGE('',*,*,#664,.T.);
#847=ORIENTED_EDGE('',*,*,#666,.F.);
#848=ORIENTED_EDGE('',*,*,#644,.F.);
#849=ORIENTED_EDGE('',*,*,#667,.T.);
#850=ORIENTED_EDGE('',*,*,#668,.T.);
#851=ORIENTED_EDGE('',*,*,#669,.F.);
#852=ORIENTED_EDGE('',*,*,#670,.F.);
#853=ORIENTED_EDGE('',*,*,#671,.T.);
#854=ORIENTED_EDGE('',*,*,#670,.T.);
#855=ORIENTED_EDGE('',*,*,#672,.F.);
#856=ORIENTED_EDGE('',*,*,#673,.F.);
#857=ORIENTED_EDGE('',*,*,#674,.T.);
#858=ORIENTED_EDGE('',*,*,#673,.T.);
#859=ORIENTED_EDGE('',*,*,#675,.F.);
#860=ORIENTED_EDGE('',*,*,#676,.F.);
#861=ORIENTED_EDGE('',*,*,#677,.T.);
#862=ORIENTED_EDGE('',*,*,#676,.T.);
#863=ORIENTED_EDGE('',*,*,#678,.F.);
#864=ORIENTED_EDGE('',*,*,#679,.F.);
#865=ORIENTED_EDGE('',*,*,#680,.T.);
#866=ORIENTED_EDGE('',*,*,#679,.T.);
#867=ORIENTED_EDGE('',*,*,#681,.F.);
#868=ORIENTED_EDGE('',*,*,#682,.F.);
#869=ORIENTED_EDGE('',*,*,#683,.T.);
#870=ORIENTED_EDGE('',*,*,#682,.T.);
#871=ORIENTED_EDGE('',*,*,#684,.F.);
#872=ORIENTED_EDGE('',*,*,#685,.F.);
#873=ORIENTED_EDGE('',*,*,#686,.T.);
#874=ORIENTED_EDGE('',*,*,#685,.T.);
#875=ORIENTED_EDGE('',*,*,#687,.F.);
#876=ORIENTED_EDGE('',*,*,#688,.F.);
#877=ORIENTED_EDGE('',*,*,#689,.T.);
#878=ORIENTED_EDGE('',*,*,#688,.T.);
#879=ORIENTED_EDGE('',*,*,#690,.F.);
#880=ORIENTED_EDGE('',*,*,#668,.F.);
#881=ORIENTED_EDGE('',*,*,#691,.T.);
#882=ORIENTED_EDGE('',*,*,#692,.T.);
#883=ORIENTED_EDGE('',*,*,#693,.F.);
#884=ORIENTED_EDGE('',*,*,#694,.F.);
#885=ORIENTED_EDGE('',*,*,#695,.T.);
#886=ORIENTED_EDGE('',*,*,#694,.T.);
#887=ORIENTED_EDGE('',*,*,#696,.F.);
#888=ORIENTED_EDGE('',*,*,#697,.F.);
#889=ORIENTED_EDGE('',*,*,#698,.T.);
#890=ORIENTED_EDGE('',*,*,#697,.T.);
#891=ORIENTED_EDGE('',*,*,#699,.F.);
#892=ORIENTED_EDGE('',*,*,#700,.F.);
#893=ORIENTED_EDGE('',*,*,#701,.T.);
#894=ORIENTED_EDGE('',*,*,#700,.T.);
#895=ORIENTED_EDGE('',*,*,#702,.F.);
#896=ORIENTED_EDGE('',*,*,#703,.F.);
#897=ORIENTED_EDGE('',*,*,#704,.T.);
#898=ORIENTED_EDGE('',*,*,#703,.T.);
#899=ORIENTED_EDGE('',*,*,#705,.F.);
#900=ORIENTED_EDGE('',*,*,#706,.F.);
#901=ORIENTED_EDGE('',*,*,#707,.T.);
#902=ORIENTED_EDGE('',*,*,#706,.T.);
#903=ORIENTED_EDGE('',*,*,#708,.F.);
#904=ORIENTED_EDGE('',*,*,#709,.F.);
#905=ORIENTED_EDGE('',*,*,#710,.T.);
#906=ORIENTED_EDGE('',*,*,#709,.T.);
#907=ORIENTED_EDGE('',*,*,#711,.F.);
#908=ORIENTED_EDGE('',*,*,#712,.F.);
#909=ORIENTED_EDGE('',*,*,#713,.T.);
#910=ORIENTED_EDGE('',*,*,#712,.T.);
#911=ORIENTED_EDGE('',*,*,#714,.F.);
#912=ORIENTED_EDGE('',*,*,#692,.F.);
#913=ORIENTED_EDGE('',*,*,#715,.F.);
#914=ORIENTED_EDGE('',*,*,#716,.T.);
#915=ORIENTED_EDGE('',*,*,#717,.F.);
#916=ORIENTED_EDGE('',*,*,#718,.F.);
#917=ORIENTED_EDGE('',*,*,#719,.T.);
#918=ORIENTED_EDGE('',*,*,#718,.T.);
#919=ORIENTED_EDGE('',*,*,#720,.F.);
#920=ORIENTED_EDGE('',*,*,#721,.F.);
#921=ORIENTED_EDGE('',*,*,#722,.T.);
#922=ORIENTED_EDGE('',*,*,#721,.T.);
#923=ORIENTED_EDGE('',*,*,#723,.F.);
#924=ORIENTED_EDGE('',*,*,#724,.F.);
#925=ORIENTED_EDGE('',*,*,#725,.T.);
#926=ORIENTED_EDGE('',*,*,#724,.T.);
#927=ORIENTED_EDGE('',*,*,#726,.F.);
#928=ORIENTED_EDGE('',*,*,#716,.F.);
#929=ORIENTED_EDGE('',*,*,#726,.T.);
#930=ORIENTED_EDGE('',*,*,#723,.T.);
#931=ORIENTED_EDGE('',*,*,#720,.T.);
#932=ORIENTED_EDGE('',*,*,#717,.T.);
#933=ORIENTED_EDGE('',*,*,#642,.T.);
#934=ORIENTED_EDGE('',*,*,#639,.T.);
#935=ORIENTED_EDGE('',*,*,#636,.T.);
#936=ORIENTED_EDGE('',*,*,#633,.T.);
#937=ORIENTED_EDGE('',*,*,#630,.T.);
#938=ORIENTED_EDGE('',*,*,#627,.T.);
#939=ORIENTED_EDGE('',*,*,#624,.T.);
#940=ORIENTED_EDGE('',*,*,#621,.T.);
#941=ORIENTED_EDGE('',*,*,#666,.T.);
#942=ORIENTED_EDGE('',*,*,#663,.T.);
#943=ORIENTED_EDGE('',*,*,#660,.T.);
#944=ORIENTED_EDGE('',*,*,#657,.T.);
#945=ORIENTED_EDGE('',*,*,#654,.T.);
#946=ORIENTED_EDGE('',*,*,#651,.T.);
#947=ORIENTED_EDGE('',*,*,#648,.T.);
#948=ORIENTED_EDGE('',*,*,#645,.T.);
#949=ORIENTED_EDGE('',*,*,#690,.T.);
#950=ORIENTED_EDGE('',*,*,#687,.T.);
#951=ORIENTED_EDGE('',*,*,#684,.T.);
#952=ORIENTED_EDGE('',*,*,#681,.T.);
#953=ORIENTED_EDGE('',*,*,#678,.T.);
#954=ORIENTED_EDGE('',*,*,#675,.T.);
#955=ORIENTED_EDGE('',*,*,#672,.T.);
#956=ORIENTED_EDGE('',*,*,#669,.T.);
#957=ORIENTED_EDGE('',*,*,#714,.T.);
#958=ORIENTED_EDGE('',*,*,#711,.T.);
#959=ORIENTED_EDGE('',*,*,#708,.T.);
#960=ORIENTED_EDGE('',*,*,#705,.T.);
#961=ORIENTED_EDGE('',*,*,#702,.T.);
#962=ORIENTED_EDGE('',*,*,#699,.T.);
#963=ORIENTED_EDGE('',*,*,#696,.T.);
#964=ORIENTED_EDGE('',*,*,#693,.T.);
#965=ORIENTED_EDGE('',*,*,#618,.T.);
#966=ORIENTED_EDGE('',*,*,#615,.T.);
#967=ORIENTED_EDGE('',*,*,#612,.T.);
#968=ORIENTED_EDGE('',*,*,#609,.T.);
#969=ORIENTED_EDGE('',*,*,#725,.F.);
#970=ORIENTED_EDGE('',*,*,#715,.T.);
#971=ORIENTED_EDGE('',*,*,#719,.F.);
#972=ORIENTED_EDGE('',*,*,#722,.F.);
#973=ORIENTED_EDGE('',*,*,#641,.F.);
#974=ORIENTED_EDGE('',*,*,#619,.F.);
#975=ORIENTED_EDGE('',*,*,#623,.F.);
#976=ORIENTED_EDGE('',*,*,#626,.F.);
#977=ORIENTED_EDGE('',*,*,#629,.F.);
#978=ORIENTED_EDGE('',*,*,#632,.F.);
#979=ORIENTED_EDGE('',*,*,#635,.F.);
#980=ORIENTED_EDGE('',*,*,#638,.F.);
#981=ORIENTED_EDGE('',*,*,#665,.F.);
#982=ORIENTED_EDGE('',*,*,#643,.F.);
#983=ORIENTED_EDGE('',*,*,#647,.F.);
#984=ORIENTED_EDGE('',*,*,#650,.F.);
#985=ORIENTED_EDGE('',*,*,#653,.F.);
#986=ORIENTED_EDGE('',*,*,#656,.F.);
#987=ORIENTED_EDGE('',*,*,#659,.F.);
#988=ORIENTED_EDGE('',*,*,#662,.F.);
#989=ORIENTED_EDGE('',*,*,#689,.F.);
#990=ORIENTED_EDGE('',*,*,#667,.F.);
#991=ORIENTED_EDGE('',*,*,#671,.F.);
#992=ORIENTED_EDGE('',*,*,#674,.F.);
#993=ORIENTED_EDGE('',*,*,#677,.F.);
#994=ORIENTED_EDGE('',*,*,#680,.F.);
#995=ORIENTED_EDGE('',*,*,#683,.F.);
#996=ORIENTED_EDGE('',*,*,#686,.F.);
#997=ORIENTED_EDGE('',*,*,#713,.F.);
#998=ORIENTED_EDGE('',*,*,#691,.F.);
#999=ORIENTED_EDGE('',*,*,#695,.F.);
#1000=ORIENTED_EDGE('',*,*,#698,.F.);
#1001=ORIENTED_EDGE('',*,*,#701,.F.);
#1002=ORIENTED_EDGE('',*,*,#704,.F.);
#1003=ORIENTED_EDGE('',*,*,#707,.F.);
#1004=ORIENTED_EDGE('',*,*,#710,.F.);
#1005=ORIENTED_EDGE('',*,*,#616,.T.);
#1006=ORIENTED_EDGE('',*,*,#613,.T.);
#1007=ORIENTED_EDGE('',*,*,#610,.T.);
#1008=ORIENTED_EDGE('',*,*,#607,.T.);
#1009=ORIENTED_EDGE('',*,*,#727,.T.);
#1010=ORIENTED_EDGE('',*,*,#728,.T.);
#1011=ORIENTED_EDGE('',*,*,#729,.T.);
#1012=ORIENTED_EDGE('',*,*,#730,.T.);
#1013=ORIENTED_EDGE('',*,*,#728,.F.);
#1014=ORIENTED_EDGE('',*,*,#731,.T.);
#1015=ORIENTED_EDGE('',*,*,#732,.F.);
#1016=ORIENTED_EDGE('',*,*,#733,.F.);
#1017=ORIENTED_EDGE('',*,*,#734,.T.);
#1018=ORIENTED_EDGE('',*,*,#735,.T.);
#1019=ORIENTED_EDGE('',*,*,#727,.F.);
#1020=ORIENTED_EDGE('',*,*,#736,.T.);
#1021=ORIENTED_EDGE('',*,*,#737,.T.);
#1022=ORIENTED_EDGE('',*,*,#738,.F.);
#1023=ORIENTED_EDGE('',*,*,#731,.F.);
#1024=ORIENTED_EDGE('',*,*,#735,.F.);
#1025=ORIENTED_EDGE('',*,*,#739,.T.);
#1026=ORIENTED_EDGE('',*,*,#740,.F.);
#1027=ORIENTED_EDGE('',*,*,#739,.F.);
#1028=ORIENTED_EDGE('',*,*,#734,.F.);
#1029=ORIENTED_EDGE('',*,*,#741,.T.);
#1030=ORIENTED_EDGE('',*,*,#742,.F.);
#1031=ORIENTED_EDGE('',*,*,#741,.F.);
#1032=ORIENTED_EDGE('',*,*,#743,.T.);
#1033=ORIENTED_EDGE('',*,*,#744,.T.);
#1034=ORIENTED_EDGE('',*,*,#745,.F.);
#1035=ORIENTED_EDGE('',*,*,#737,.F.);
#1036=ORIENTED_EDGE('',*,*,#740,.T.);
#1037=ORIENTED_EDGE('',*,*,#742,.T.);
#1038=ORIENTED_EDGE('',*,*,#729,.F.);
#1039=ORIENTED_EDGE('',*,*,#733,.T.);
#1040=ORIENTED_EDGE('',*,*,#746,.F.);
#1041=ORIENTED_EDGE('',*,*,#744,.F.);
#1042=ORIENTED_EDGE('',*,*,#747,.T.);
#1043=ORIENTED_EDGE('',*,*,#746,.T.);
#1044=ORIENTED_EDGE('',*,*,#732,.T.);
#1045=ORIENTED_EDGE('',*,*,#738,.T.);
#1046=ORIENTED_EDGE('',*,*,#745,.T.);
#1047=ORIENTED_EDGE('',*,*,#730,.F.);
#1048=ORIENTED_EDGE('',*,*,#747,.F.);
#1049=ORIENTED_EDGE('',*,*,#743,.F.);
#1050=ORIENTED_EDGE('',*,*,#736,.F.);
#1051=ORIENTED_EDGE('',*,*,#748,.T.);
#1052=ORIENTED_EDGE('',*,*,#749,.T.);
#1053=ORIENTED_EDGE('',*,*,#750,.T.);
#1054=ORIENTED_EDGE('',*,*,#751,.T.);
#1055=ORIENTED_EDGE('',*,*,#751,.F.);
#1056=ORIENTED_EDGE('',*,*,#752,.T.);
#1057=ORIENTED_EDGE('',*,*,#753,.F.);
#1058=ORIENTED_EDGE('',*,*,#754,.F.);
#1059=ORIENTED_EDGE('',*,*,#755,.T.);
#1060=ORIENTED_EDGE('',*,*,#756,.T.);
#1061=ORIENTED_EDGE('',*,*,#750,.F.);
#1062=ORIENTED_EDGE('',*,*,#757,.F.);
#1063=ORIENTED_EDGE('',*,*,#758,.T.);
#1064=ORIENTED_EDGE('',*,*,#759,.F.);
#1065=ORIENTED_EDGE('',*,*,#752,.F.);
#1066=ORIENTED_EDGE('',*,*,#756,.F.);
#1067=ORIENTED_EDGE('',*,*,#760,.T.);
#1068=ORIENTED_EDGE('',*,*,#761,.F.);
#1069=ORIENTED_EDGE('',*,*,#760,.F.);
#1070=ORIENTED_EDGE('',*,*,#755,.F.);
#1071=ORIENTED_EDGE('',*,*,#762,.T.);
#1072=ORIENTED_EDGE('',*,*,#763,.F.);
#1073=ORIENTED_EDGE('',*,*,#762,.F.);
#1074=ORIENTED_EDGE('',*,*,#748,.F.);
#1075=ORIENTED_EDGE('',*,*,#754,.T.);
#1076=ORIENTED_EDGE('',*,*,#764,.F.);
#1077=ORIENTED_EDGE('',*,*,#765,.F.);
#1078=ORIENTED_EDGE('',*,*,#766,.F.);
#1079=ORIENTED_EDGE('',*,*,#767,.F.);
#1080=ORIENTED_EDGE('',*,*,#765,.T.);
#1081=ORIENTED_EDGE('',*,*,#768,.F.);
#1082=ORIENTED_EDGE('',*,*,#758,.F.);
#1083=ORIENTED_EDGE('',*,*,#761,.T.);
#1084=ORIENTED_EDGE('',*,*,#763,.T.);
#1085=ORIENTED_EDGE('',*,*,#768,.T.);
#1086=ORIENTED_EDGE('',*,*,#764,.T.);
#1087=ORIENTED_EDGE('',*,*,#753,.T.);
#1088=ORIENTED_EDGE('',*,*,#759,.T.);
#1089=ORIENTED_EDGE('',*,*,#749,.F.);
#1090=ORIENTED_EDGE('',*,*,#766,.T.);
#1091=ORIENTED_EDGE('',*,*,#767,.T.);
#1092=ORIENTED_EDGE('',*,*,#757,.T.);
#1093=CYLINDRICAL_SURFACE('',#1193,2.);
#1094=CYLINDRICAL_SURFACE('',#1196,1.99999999999999);
#1095=CYLINDRICAL_SURFACE('',#1199,1.99999999999999);
#1096=CYLINDRICAL_SURFACE('',#1202,1.99999999999999);
#1097=CYLINDRICAL_SURFACE('',#1206,2.49999999999997);
#1098=CYLINDRICAL_SURFACE('',#1210,2.5);
#1099=CYLINDRICAL_SURFACE('',#1214,2.49999999999996);
#1100=CYLINDRICAL_SURFACE('',#1218,2.49999999999996);
#1101=CYLINDRICAL_SURFACE('',#1222,2.49999999999997);
#1102=CYLINDRICAL_SURFACE('',#1226,2.5);
#1103=CYLINDRICAL_SURFACE('',#1230,2.49999999999996);
#1104=CYLINDRICAL_SURFACE('',#1234,2.49999999999996);
#1105=CYLINDRICAL_SURFACE('',#1238,2.49999999999997);
#1106=CYLINDRICAL_SURFACE('',#1242,2.5);
#1107=CYLINDRICAL_SURFACE('',#1246,2.49999999999996);
#1108=CYLINDRICAL_SURFACE('',#1250,2.49999999999996);
#1109=CYLINDRICAL_SURFACE('',#1254,2.49999999999997);
#1110=CYLINDRICAL_SURFACE('',#1258,2.5);
#1111=CYLINDRICAL_SURFACE('',#1262,2.49999999999996);
#1112=CYLINDRICAL_SURFACE('',#1266,2.49999999999996);
#1113=CYLINDRICAL_SURFACE('',#1280,1.50000000000002);
#1114=CYLINDRICAL_SURFACE('',#1282,1.5);
#1115=CYLINDRICAL_SURFACE('',#1293,1.49999999999999);
#1116=CYLINDRICAL_SURFACE('',#1295,1.5);
#1117=ADVANCED_FACE('',(#79),#1093,.F.);
#1118=ADVANCED_FACE('',(#80),#1094,.F.);
#1119=ADVANCED_FACE('',(#81),#1095,.F.);
#1120=ADVANCED_FACE('',(#82),#1096,.F.);
#1121=ADVANCED_FACE('',(#83),#43,.T.);
#1122=ADVANCED_FACE('',(#84),#1097,.F.);
#1123=ADVANCED_FACE('',(#85),#44,.T.);
#1124=ADVANCED_FACE('',(#86),#1098,.F.);
#1125=ADVANCED_FACE('',(#87),#45,.T.);
#1126=ADVANCED_FACE('',(#88),#1099,.F.);
#1127=ADVANCED_FACE('',(#89),#46,.T.);
#1128=ADVANCED_FACE('',(#90),#1100,.F.);
#1129=ADVANCED_FACE('',(#91),#47,.T.);
#1130=ADVANCED_FACE('',(#92),#1101,.F.);
#1131=ADVANCED_FACE('',(#93),#48,.T.);
#1132=ADVANCED_FACE('',(#94),#1102,.F.);
#1133=ADVANCED_FACE('',(#95),#49,.T.);
#1134=ADVANCED_FACE('',(#96),#1103,.F.);
#1135=ADVANCED_FACE('',(#97),#50,.T.);
#1136=ADVANCED_FACE('',(#98),#1104,.F.);
#1137=ADVANCED_FACE('',(#99),#51,.T.);
#1138=ADVANCED_FACE('',(#100),#1105,.F.);
#1139=ADVANCED_FACE('',(#101),#52,.T.);
#1140=ADVANCED_FACE('',(#102),#1106,.F.);
#1141=ADVANCED_FACE('',(#103),#53,.T.);
#1142=ADVANCED_FACE('',(#104),#1107,.F.);
#1143=ADVANCED_FACE('',(#105),#54,.T.);
#1144=ADVANCED_FACE('',(#106),#1108,.F.);
#1145=ADVANCED_FACE('',(#107),#55,.T.);
#1146=ADVANCED_FACE('',(#108),#1109,.F.);
#1147=ADVANCED_FACE('',(#109),#56,.T.);
#1148=ADVANCED_FACE('',(#110),#1110,.F.);
#1149=ADVANCED_FACE('',(#111),#57,.T.);
#1150=ADVANCED_FACE('',(#112),#1111,.F.);
#1151=ADVANCED_FACE('',(#113),#58,.T.);
#1152=ADVANCED_FACE('',(#114),#1112,.F.);
#1153=ADVANCED_FACE('',(#115),#59,.T.);
#1154=ADVANCED_FACE('',(#116),#60,.T.);
#1155=ADVANCED_FACE('',(#117),#61,.T.);
#1156=ADVANCED_FACE('',(#118),#62,.T.);
#1157=ADVANCED_FACE('',(#119,#19,#20,#21,#22,#23,#24,#25,#26),#63,.T.);
#1158=ADVANCED_FACE('',(#120,#27,#28,#29,#30,#31,#32,#33,#34),#64,.F.);
#1159=ADVANCED_FACE('',(#121),#65,.T.);
#1160=ADVANCED_FACE('',(#122,#35,#36),#66,.T.);
#1161=ADVANCED_FACE('',(#123),#67,.T.);
#1162=ADVANCED_FACE('',(#124),#1113,.F.);
#1163=ADVANCED_FACE('',(#125),#1114,.F.);
#1164=ADVANCED_FACE('',(#126,#37,#38),#68,.T.);
#1165=ADVANCED_FACE('',(#127),#69,.T.);
#1166=ADVANCED_FACE('',(#128),#70,.T.);
#1167=ADVANCED_FACE('',(#129),#71,.F.);
#1168=ADVANCED_FACE('',(#130),#72,.T.);
#1169=ADVANCED_FACE('',(#131,#39,#40),#73,.T.);
#1170=ADVANCED_FACE('',(#132),#74,.T.);
#1171=ADVANCED_FACE('',(#133),#1115,.F.);
#1172=ADVANCED_FACE('',(#134),#1116,.F.);
#1173=ADVANCED_FACE('',(#135),#75,.T.);
#1174=ADVANCED_FACE('',(#136,#41,#42),#76,.T.);
#1175=ADVANCED_FACE('',(#137),#77,.T.);
#1176=ADVANCED_FACE('',(#138),#78,.F.);
#1177=CLOSED_SHELL('',(#1117,#1118,#1119,#1120,#1121,#1122,#1123,#1124,
#1125,#1126,#1127,#1128,#1129,#1130,#1131,#1132,#1133,#1134,#1135,#1136,
#1137,#1138,#1139,#1140,#1141,#1142,#1143,#1144,#1145,#1146,#1147,#1148,
#1149,#1150,#1151,#1152,#1153,#1154,#1155,#1156,#1157,#1158));
#1178=CLOSED_SHELL('',(#1159,#1160,#1161,#1162,#1163,#1164,#1165,#1166,
#1167));
#1179=CLOSED_SHELL('',(#1168,#1169,#1170,#1171,#1172,#1173,#1174,#1175,
#1176));
#1180=DERIVED_UNIT_ELEMENT(#1182,1.);
#1181=DERIVED_UNIT_ELEMENT(#1969,-3.);
#1182=(
MASS_UNIT()
NAMED_UNIT(*)
SI_UNIT(.KILO.,.GRAM.)
);
#1183=DERIVED_UNIT((#1180,#1181));
#1184=MEASURE_REPRESENTATION_ITEM('density measure',
POSITIVE_RATIO_MEASURE(7850.),#1183);
#1185=PROPERTY_DEFINITION_REPRESENTATION(#1190,#1187);
#1186=PROPERTY_DEFINITION_REPRESENTATION(#1191,#1188);
#1187=REPRESENTATION('material name',(#1189),#1966);
#1188=REPRESENTATION('density',(#1184),#1966);
#1189=DESCRIPTIVE_REPRESENTATION_ITEM('Steel','Steel');
#1190=PROPERTY_DEFINITION('material property','material name',#1976);
#1191=PROPERTY_DEFINITION('material property','density of part',#1976);
#1192=AXIS2_PLACEMENT_3D('',#1633,#1301,#1302);
#1193=AXIS2_PLACEMENT_3D('',#1634,#1303,#1304);
#1194=AXIS2_PLACEMENT_3D('',#1636,#1305,#1306);
#1195=AXIS2_PLACEMENT_3D('',#1639,#1308,#1309);
#1196=AXIS2_PLACEMENT_3D('',#1640,#1310,#1311);
#1197=AXIS2_PLACEMENT_3D('',#1642,#1312,#1313);
#1198=AXIS2_PLACEMENT_3D('',#1645,#1315,#1316);
#1199=AXIS2_PLACEMENT_3D('',#1646,#1317,#1318);
#1200=AXIS2_PLACEMENT_3D('',#1648,#1319,#1320);
#1201=AXIS2_PLACEMENT_3D('',#1651,#1322,#1323);
#1202=AXIS2_PLACEMENT_3D('',#1652,#1324,#1325);
#1203=AXIS2_PLACEMENT_3D('',#1654,#1326,#1327);
#1204=AXIS2_PLACEMENT_3D('',#1657,#1329,#1330);
#1205=AXIS2_PLACEMENT_3D('',#1658,#1331,#1332);
#1206=AXIS2_PLACEMENT_3D('',#1667,#1337,#1338);
#1207=AXIS2_PLACEMENT_3D('',#1669,#1339,#1340);
#1208=AXIS2_PLACEMENT_3D('',#1671,#1341,#1342);
#1209=AXIS2_PLACEMENT_3D('',#1673,#1344,#1345);
#1210=AXIS2_PLACEMENT_3D('',#1679,#1349,#1350);
#1211=AXIS2_PLACEMENT_3D('',#1681,#1351,#1352);
#1212=AXIS2_PLACEMENT_3D('',#1683,#1353,#1354);
#1213=AXIS2_PLACEMENT_3D('',#1685,#1356,#1357);
#1214=AXIS2_PLACEMENT_3D('',#1691,#1361,#1362);
#1215=AXIS2_PLACEMENT_3D('',#1693,#1363,#1364);
#1216=AXIS2_PLACEMENT_3D('',#1695,#1365,#1366);
#1217=AXIS2_PLACEMENT_3D('',#1697,#1368,#1369);
#1218=AXIS2_PLACEMENT_3D('',#1703,#1373,#1374);
#1219=AXIS2_PLACEMENT_3D('',#1704,#1375,#1376);
#1220=AXIS2_PLACEMENT_3D('',#1705,#1377,#1378);
#1221=AXIS2_PLACEMENT_3D('',#1706,#1379,#1380);
#1222=AXIS2_PLACEMENT_3D('',#1715,#1385,#1386);
#1223=AXIS2_PLACEMENT_3D('',#1717,#1387,#1388);
#1224=AXIS2_PLACEMENT_3D('',#1719,#1389,#1390);
#1225=AXIS2_PLACEMENT_3D('',#1721,#1392,#1393);
#1226=AXIS2_PLACEMENT_3D('',#1727,#1397,#1398);
#1227=AXIS2_PLACEMENT_3D('',#1729,#1399,#1400);
#1228=AXIS2_PLACEMENT_3D('',#1731,#1401,#1402);
#1229=AXIS2_PLACEMENT_3D('',#1733,#1404,#1405);
#1230=AXIS2_PLACEMENT_3D('',#1739,#1409,#1410);
#1231=AXIS2_PLACEMENT_3D('',#1741,#1411,#1412);
#1232=AXIS2_PLACEMENT_3D('',#1743,#1413,#1414);
#1233=AXIS2_PLACEMENT_3D('',#1745,#1416,#1417);
#1234=AXIS2_PLACEMENT_3D('',#1751,#1421,#1422);
#1235=AXIS2_PLACEMENT_3D('',#1752,#1423,#1424);
#1236=AXIS2_PLACEMENT_3D('',#1753,#1425,#1426);
#1237=AXIS2_PLACEMENT_3D('',#1754,#1427,#1428);
#1238=AXIS2_PLACEMENT_3D('',#1763,#1433,#1434);
#1239=AXIS2_PLACEMENT_3D('',#1765,#1435,#1436);
#1240=AXIS2_PLACEMENT_3D('',#1767,#1437,#1438);
#1241=AXIS2_PLACEMENT_3D('',#1769,#1440,#1441);
#1242=AXIS2_PLACEMENT_3D('',#1775,#1445,#1446);
#1243=AXIS2_PLACEMENT_3D('',#1777,#1447,#1448);
#1244=AXIS2_PLACEMENT_3D('',#1779,#1449,#1450);
#1245=AXIS2_PLACEMENT_3D('',#1781,#1452,#1453);
#1246=AXIS2_PLACEMENT_3D('',#1787,#1457,#1458);
#1247=AXIS2_PLACEMENT_3D('',#1789,#1459,#1460);
#1248=AXIS2_PLACEMENT_3D('',#1791,#1461,#1462);
#1249=AXIS2_PLACEMENT_3D('',#1793,#1464,#1465);
#1250=AXIS2_PLACEMENT_3D('',#1799,#1469,#1470);
#1251=AXIS2_PLACEMENT_3D('',#1800,#1471,#1472);
#1252=AXIS2_PLACEMENT_3D('',#1801,#1473,#1474);
#1253=AXIS2_PLACEMENT_3D('',#1802,#1475,#1476);
#1254=AXIS2_PLACEMENT_3D('',#1811,#1481,#1482);
#1255=AXIS2_PLACEMENT_3D('',#1813,#1483,#1484);
#1256=AXIS2_PLACEMENT_3D('',#1815,#1485,#1486);
#1257=AXIS2_PLACEMENT_3D('',#1817,#1488,#1489);
#1258=AXIS2_PLACEMENT_3D('',#1823,#1493,#1494);
#1259=AXIS2_PLACEMENT_3D('',#1825,#1495,#1496);
#1260=AXIS2_PLACEMENT_3D('',#1827,#1497,#1498);
#1261=AXIS2_PLACEMENT_3D('',#1829,#1500,#1501);
#1262=AXIS2_PLACEMENT_3D('',#1835,#1505,#1506);
#1263=AXIS2_PLACEMENT_3D('',#1837,#1507,#1508);
#1264=AXIS2_PLACEMENT_3D('',#1839,#1509,#1510);
#1265=AXIS2_PLACEMENT_3D('',#1841,#1512,#1513);
#1266=AXIS2_PLACEMENT_3D('',#1847,#1517,#1518);
#1267=AXIS2_PLACEMENT_3D('',#1848,#1519,#1520);
#1268=AXIS2_PLACEMENT_3D('',#1849,#1521,#1522);
#1269=AXIS2_PLACEMENT_3D('',#1850,#1523,#1524);
#1270=AXIS2_PLACEMENT_3D('',#1859,#1529,#1530);
#1271=AXIS2_PLACEMENT_3D('',#1865,#1534,#1535);
#1272=AXIS2_PLACEMENT_3D('',#1871,#1539,#1540);
#1273=AXIS2_PLACEMENT_3D('',#1874,#1543,#1544);
#1274=AXIS2_PLACEMENT_3D('',#1875,#1545,#1546);
#1275=AXIS2_PLACEMENT_3D('',#1876,#1547,#1548);
#1276=AXIS2_PLACEMENT_3D('',#1885,#1553,#1554);
#1277=AXIS2_PLACEMENT_3D('',#1892,#1558,#1559);
#1278=AXIS2_PLACEMENT_3D('',#1894,#1560,#1561);
#1279=AXIS2_PLACEMENT_3D('',#1895,#1562,#1563);
#1280=AXIS2_PLACEMENT_3D('',#1901,#1567,#1568);
#1281=AXIS2_PLACEMENT_3D('',#1904,#1570,#1571);
#1282=AXIS2_PLACEMENT_3D('',#1905,#1572,#1573);
#1283=AXIS2_PLACEMENT_3D('',#1908,#1575,#1576);
#1284=AXIS2_PLACEMENT_3D('',#1909,#1577,#1578);
#1285=AXIS2_PLACEMENT_3D('',#1915,#1582,#1583);
#1286=AXIS2_PLACEMENT_3D('',#1918,#1586,#1587);
#1287=AXIS2_PLACEMENT_3D('',#1919,#1588,#1589);
#1288=AXIS2_PLACEMENT_3D('',#1920,#1590,#1591);
#1289=AXIS2_PLACEMENT_3D('',#1929,#1596,#1597);
#1290=AXIS2_PLACEMENT_3D('',#1936,#1601,#1602);
#1291=AXIS2_PLACEMENT_3D('',#1938,#1603,#1604);
#1292=AXIS2_PLACEMENT_3D('',#1939,#1605,#1606);
#1293=AXIS2_PLACEMENT_3D('',#1945,#1610,#1611);
#1294=AXIS2_PLACEMENT_3D('',#1948,#1613,#1614);
#1295=AXIS2_PLACEMENT_3D('',#1949,#1615,#1616);
#1296=AXIS2_PLACEMENT_3D('',#1952,#1618,#1619);
#1297=AXIS2_PLACEMENT_3D('',#1953,#1620,#1621);
#1298=AXIS2_PLACEMENT_3D('',#1959,#1625,#1626);
#1299=AXIS2_PLACEMENT_3D('',#1962,#1629,#1630);
#1300=AXIS2_PLACEMENT_3D('',#1963,#1631,#1632);
#1301=DIRECTION('axis',(0.,0.,1.));
#1302=DIRECTION('refdir',(1.,0.,0.));
#1303=DIRECTION('center_axis',(0.,0.,1.));
#1304=DIRECTION('ref_axis',(1.,0.,0.));
#1305=DIRECTION('center_axis',(0.,0.,1.));
#1306=DIRECTION('ref_axis',(1.,0.,0.));
#1307=DIRECTION('',(0.,0.,1.));
#1308=DIRECTION('center_axis',(0.,0.,-1.));
#1309=DIRECTION('ref_axis',(1.,0.,0.));
#1310=DIRECTION('center_axis',(0.,0.,1.));
#1311=DIRECTION('ref_axis',(1.,0.,0.));
#1312=DIRECTION('center_axis',(0.,0.,1.));
#1313=DIRECTION('ref_axis',(1.,0.,0.));
#1314=DIRECTION('',(0.,0.,1.));
#1315=DIRECTION('center_axis',(0.,0.,-1.));
#1316=DIRECTION('ref_axis',(1.,0.,0.));
#1317=DIRECTION('center_axis',(0.,0.,1.));
#1318=DIRECTION('ref_axis',(1.,0.,0.));
#1319=DIRECTION('center_axis',(0.,0.,1.));
#1320=DIRECTION('ref_axis',(1.,0.,0.));
#1321=DIRECTION('',(0.,0.,1.));
#1322=DIRECTION('center_axis',(0.,0.,-1.));
#1323=DIRECTION('ref_axis',(1.,0.,0.));
#1324=DIRECTION('center_axis',(0.,0.,1.));
#1325=DIRECTION('ref_axis',(1.,0.,0.));
#1326=DIRECTION('center_axis',(0.,0.,1.));
#1327=DIRECTION('ref_axis',(1.,0.,0.));
#1328=DIRECTION('',(0.,0.,1.));
#1329=DIRECTION('center_axis',(0.,0.,-1.));
#1330=DIRECTION('ref_axis',(1.,0.,0.));
#1331=DIRECTION('center_axis',(1.77635683940025E-15,1.,0.));
#1332=DIRECTION('ref_axis',(-1.,1.77635683940025E-15,0.));
#1333=DIRECTION('',(-1.,1.77635683940025E-15,0.));
#1334=DIRECTION('',(0.,0.,1.));
#1335=DIRECTION('',(-1.,1.77635683940025E-15,0.));
#1336=DIRECTION('',(0.,0.,1.));
#1337=DIRECTION('center_axis',(0.,0.,1.));
#1338=DIRECTION('ref_axis',(-1.42108547152022E-14,-1.,0.));
#1339=DIRECTION('center_axis',(0.,0.,-1.));
#1340=DIRECTION('ref_axis',(-1.42108547152022E-14,-1.,0.));
#1341=DIRECTION('center_axis',(0.,0.,-1.));
#1342=DIRECTION('ref_axis',(-1.42108547152022E-14,-1.,0.));
#1343=DIRECTION('',(0.,0.,1.));
#1344=DIRECTION('center_axis',(-1.,0.,0.));
#1345=DIRECTION('ref_axis',(0.,-1.,0.));
#1346=DIRECTION('',(0.,-1.,0.));
#1347=DIRECTION('',(0.,-1.,0.));
#1348=DIRECTION('',(0.,0.,1.));
#1349=DIRECTION('center_axis',(0.,0.,1.));
#1350=DIRECTION('ref_axis',(1.,-1.4210854715202E-14,0.));
#1351=DIRECTION('center_axis',(0.,0.,-1.));
#1352=DIRECTION('ref_axis',(1.,-1.4210854715202E-14,0.));
#1353=DIRECTION('center_axis',(0.,0.,-1.));
#1354=DIRECTION('ref_axis',(1.,-1.4210854715202E-14,0.));
#1355=DIRECTION('',(0.,0.,1.));
#1356=DIRECTION('center_axis',(0.,-1.,0.));
#1357=DIRECTION('ref_axis',(1.,0.,0.));
#1358=DIRECTION('',(1.,0.,0.));
#1359=DIRECTION('',(1.,0.,0.));
#1360=DIRECTION('',(0.,0.,1.));
#1361=DIRECTION('center_axis',(0.,0.,1.));
#1362=DIRECTION('ref_axis',(1.42108547152022E-14,1.,0.));
#1363=DIRECTION('center_axis',(0.,0.,-1.));
#1364=DIRECTION('ref_axis',(1.42108547152022E-14,1.,0.));
#1365=DIRECTION('center_axis',(0.,0.,-1.));
#1366=DIRECTION('ref_axis',(1.42108547152022E-14,1.,0.));
#1367=DIRECTION('',(0.,0.,1.));
#1368=DIRECTION('center_axis',(1.,0.,0.));
#1369=DIRECTION('ref_axis',(0.,1.,0.));
#1370=DIRECTION('',(0.,1.,0.));
#1371=DIRECTION('',(0.,1.,0.));
#1372=DIRECTION('',(0.,0.,1.));
#1373=DIRECTION('center_axis',(0.,0.,1.));
#1374=DIRECTION('ref_axis',(-1.,1.06581410364017E-14,0.));
#1375=DIRECTION('center_axis',(0.,0.,-1.));
#1376=DIRECTION('ref_axis',(-1.,1.06581410364017E-14,0.));
#1377=DIRECTION('center_axis',(0.,0.,-1.));
#1378=DIRECTION('ref_axis',(-1.,1.06581410364017E-14,0.));
#1379=DIRECTION('center_axis',(1.77635683940025E-15,1.,0.));
#1380=DIRECTION('ref_axis',(-1.,1.77635683940025E-15,0.));
#1381=DIRECTION('',(-1.,1.77635683940025E-15,0.));
#1382=DIRECTION('',(0.,0.,1.));
#1383=DIRECTION('',(-1.,1.77635683940025E-15,0.));
#1384=DIRECTION('',(0.,0.,1.));
#1385=DIRECTION('center_axis',(0.,0.,1.));
#1386=DIRECTION('ref_axis',(-1.42108547152022E-14,-1.,0.));
#1387=DIRECTION('center_axis',(0.,0.,-1.));
#1388=DIRECTION('ref_axis',(-1.42108547152022E-14,-1.,0.));
#1389=DIRECTION('center_axis',(0.,0.,-1.));
#1390=DIRECTION('ref_axis',(-1.42108547152022E-14,-1.,0.));
#1391=DIRECTION('',(0.,0.,1.));
#1392=DIRECTION('center_axis',(-1.,0.,0.));
#1393=DIRECTION('ref_axis',(0.,-1.,0.));
#1394=DIRECTION('',(0.,-1.,0.));
#1395=DIRECTION('',(0.,-1.,0.));
#1396=DIRECTION('',(0.,0.,1.));
#1397=DIRECTION('center_axis',(0.,0.,1.));
#1398=DIRECTION('ref_axis',(1.,-1.4210854715202E-14,0.));
#1399=DIRECTION('center_axis',(0.,0.,-1.));
#1400=DIRECTION('ref_axis',(1.,-1.4210854715202E-14,0.));
#1401=DIRECTION('center_axis',(0.,0.,-1.));
#1402=DIRECTION('ref_axis',(1.,-1.4210854715202E-14,0.));
#1403=DIRECTION('',(0.,0.,1.));
#1404=DIRECTION('center_axis',(0.,-1.,0.));
#1405=DIRECTION('ref_axis',(1.,0.,0.));
#1406=DIRECTION('',(1.,0.,0.));
#1407=DIRECTION('',(1.,0.,0.));
#1408=DIRECTION('',(0.,0.,1.));
#1409=DIRECTION('center_axis',(0.,0.,1.));
#1410=DIRECTION('ref_axis',(1.42108547152022E-14,1.,0.));
#1411=DIRECTION('center_axis',(0.,0.,-1.));
#1412=DIRECTION('ref_axis',(1.42108547152022E-14,1.,0.));
#1413=DIRECTION('center_axis',(0.,0.,-1.));
#1414=DIRECTION('ref_axis',(1.42108547152022E-14,1.,0.));
#1415=DIRECTION('',(0.,0.,1.));
#1416=DIRECTION('center_axis',(1.,0.,0.));
#1417=DIRECTION('ref_axis',(0.,1.,0.));
#1418=DIRECTION('',(0.,1.,0.));
#1419=DIRECTION('',(0.,1.,0.));
#1420=DIRECTION('',(0.,0.,1.));
#1421=DIRECTION('center_axis',(0.,0.,1.));
#1422=DIRECTION('ref_axis',(-1.,1.06581410364017E-14,0.));
#1423=DIRECTION('center_axis',(0.,0.,-1.));
#1424=DIRECTION('ref_axis',(-1.,1.06581410364017E-14,0.));
#1425=DIRECTION('center_axis',(0.,0.,-1.));
#1426=DIRECTION('ref_axis',(-1.,1.06581410364017E-14,0.));
#1427=DIRECTION('center_axis',(1.77635683940025E-15,1.,0.));
#1428=DIRECTION('ref_axis',(-1.,1.77635683940025E-15,0.));
#1429=DIRECTION('',(-1.,1.77635683940025E-15,0.));
#1430=DIRECTION('',(0.,0.,1.));
#1431=DIRECTION('',(-1.,1.77635683940025E-15,0.));
#1432=DIRECTION('',(0.,0.,1.));
#1433=DIRECTION('center_axis',(0.,0.,1.));
#1434=DIRECTION('ref_axis',(-1.42108547152022E-14,-1.,0.));
#1435=DIRECTION('center_axis',(0.,0.,-1.));
#1436=DIRECTION('ref_axis',(-1.42108547152022E-14,-1.,0.));
#1437=DIRECTION('center_axis',(0.,0.,-1.));
#1438=DIRECTION('ref_axis',(-1.42108547152022E-14,-1.,0.));
#1439=DIRECTION('',(0.,0.,1.));
#1440=DIRECTION('center_axis',(-1.,0.,0.));
#1441=DIRECTION('ref_axis',(0.,-1.,0.));
#1442=DIRECTION('',(0.,-1.,0.));
#1443=DIRECTION('',(0.,-1.,0.));
#1444=DIRECTION('',(0.,0.,1.));
#1445=DIRECTION('center_axis',(0.,0.,1.));
#1446=DIRECTION('ref_axis',(1.,-1.4210854715202E-14,0.));
#1447=DIRECTION('center_axis',(0.,0.,-1.));
#1448=DIRECTION('ref_axis',(1.,-1.4210854715202E-14,0.));
#1449=DIRECTION('center_axis',(0.,0.,-1.));
#1450=DIRECTION('ref_axis',(1.,-1.4210854715202E-14,0.));
#1451=DIRECTION('',(0.,0.,1.));
#1452=DIRECTION('center_axis',(0.,-1.,0.));
#1453=DIRECTION('ref_axis',(1.,0.,0.));
#1454=DIRECTION('',(1.,0.,0.));
#1455=DIRECTION('',(1.,0.,0.));
#1456=DIRECTION('',(0.,0.,1.));
#1457=DIRECTION('center_axis',(0.,0.,1.));
#1458=DIRECTION('ref_axis',(1.42108547152022E-14,1.,0.));
#1459=DIRECTION('center_axis',(0.,0.,-1.));
#1460=DIRECTION('ref_axis',(1.42108547152022E-14,1.,0.));
#1461=DIRECTION('center_axis',(0.,0.,-1.));
#1462=DIRECTION('ref_axis',(1.42108547152022E-14,1.,0.));
#1463=DIRECTION('',(0.,0.,1.));
#1464=DIRECTION('center_axis',(1.,0.,0.));
#1465=DIRECTION('ref_axis',(0.,1.,0.));
#1466=DIRECTION('',(0.,1.,0.));
#1467=DIRECTION('',(0.,1.,0.));
#1468=DIRECTION('',(0.,0.,1.));
#1469=DIRECTION('center_axis',(0.,0.,1.));
#1470=DIRECTION('ref_axis',(-1.,1.06581410364017E-14,0.));
#1471=DIRECTION('center_axis',(0.,0.,-1.));
#1472=DIRECTION('ref_axis',(-1.,1.06581410364017E-14,0.));
#1473=DIRECTION('center_axis',(0.,0.,-1.));
#1474=DIRECTION('ref_axis',(-1.,1.06581410364017E-14,0.));
#1475=DIRECTION('center_axis',(1.77635683940025E-15,1.,0.));
#1476=DIRECTION('ref_axis',(-1.,1.77635683940025E-15,0.));
#1477=DIRECTION('',(-1.,1.77635683940025E-15,0.));
#1478=DIRECTION('',(0.,0.,1.));
#1479=DIRECTION('',(-1.,1.77635683940025E-15,0.));
#1480=DIRECTION('',(0.,0.,1.));
#1481=DIRECTION('center_axis',(0.,0.,1.));
#1482=DIRECTION('ref_axis',(-1.42108547152022E-14,-1.,0.));
#1483=DIRECTION('center_axis',(0.,0.,-1.));
#1484=DIRECTION('ref_axis',(-1.42108547152022E-14,-1.,0.));
#1485=DIRECTION('center_axis',(0.,0.,-1.));
#1486=DIRECTION('ref_axis',(-1.42108547152022E-14,-1.,0.));
#1487=DIRECTION('',(0.,0.,1.));
#1488=DIRECTION('center_axis',(-1.,0.,0.));
#1489=DIRECTION('ref_axis',(0.,-1.,0.));
#1490=DIRECTION('',(0.,-1.,0.));
#1491=DIRECTION('',(0.,-1.,0.));
#1492=DIRECTION('',(0.,0.,1.));
#1493=DIRECTION('center_axis',(0.,0.,1.));
#1494=DIRECTION('ref_axis',(1.,-1.4210854715202E-14,0.));
#1495=DIRECTION('center_axis',(0.,0.,-1.));
#1496=DIRECTION('ref_axis',(1.,-1.4210854715202E-14,0.));
#1497=DIRECTION('center_axis',(0.,0.,-1.));
#1498=DIRECTION('ref_axis',(1.,-1.4210854715202E-14,0.));
#1499=DIRECTION('',(0.,0.,1.));
#1500=DIRECTION('center_axis',(0.,-1.,0.));
#1501=DIRECTION('ref_axis',(1.,0.,0.));
#1502=DIRECTION('',(1.,0.,0.));
#1503=DIRECTION('',(1.,0.,0.));
#1504=DIRECTION('',(0.,0.,1.));
#1505=DIRECTION('center_axis',(0.,0.,1.));
#1506=DIRECTION('ref_axis',(1.42108547152022E-14,1.,0.));
#1507=DIRECTION('center_axis',(0.,0.,-1.));
#1508=DIRECTION('ref_axis',(1.42108547152022E-14,1.,0.));
#1509=DIRECTION('center_axis',(0.,0.,-1.));
#1510=DIRECTION('ref_axis',(1.42108547152022E-14,1.,0.));
#1511=DIRECTION('',(0.,0.,1.));
#1512=DIRECTION('center_axis',(1.,0.,0.));
#1513=DIRECTION('ref_axis',(0.,1.,0.));
#1514=DIRECTION('',(0.,1.,0.));
#1515=DIRECTION('',(0.,1.,0.));
#1516=DIRECTION('',(0.,0.,1.));
#1517=DIRECTION('center_axis',(0.,0.,1.));
#1518=DIRECTION('ref_axis',(-1.,1.06581410364017E-14,0.));
#1519=DIRECTION('center_axis',(0.,0.,-1.));
#1520=DIRECTION('ref_axis',(-1.,1.06581410364017E-14,0.));
#1521=DIRECTION('center_axis',(0.,0.,-1.));
#1522=DIRECTION('ref_axis',(-1.,1.06581410364017E-14,0.));
#1523=DIRECTION('center_axis',(0.,-1.,0.));
#1524=DIRECTION('ref_axis',(1.,0.,0.));
#1525=DIRECTION('',(-1.,0.,0.));
#1526=DIRECTION('',(0.,0.,1.));
#1527=DIRECTION('',(1.,0.,0.));
#1528=DIRECTION('',(0.,0.,1.));
#1529=DIRECTION('center_axis',(-1.,0.,0.));
#1530=DIRECTION('ref_axis',(0.,-1.,0.));
#1531=DIRECTION('',(0.,-1.,0.));
#1532=DIRECTION('',(0.,-1.,0.));
#1533=DIRECTION('',(0.,0.,1.));
#1534=DIRECTION('center_axis',(0.,1.,0.));
#1535=DIRECTION('ref_axis',(-1.,0.,0.));
#1536=DIRECTION('',(-1.,0.,0.));
#1537=DIRECTION('',(-1.,0.,0.));
#1538=DIRECTION('',(0.,0.,1.));
#1539=DIRECTION('center_axis',(1.,0.,0.));
#1540=DIRECTION('ref_axis',(0.,1.,0.));
#1541=DIRECTION('',(0.,1.,0.));
#1542=DIRECTION('',(0.,1.,0.));
#1543=DIRECTION('center_axis',(0.,0.,1.));
#1544=DIRECTION('ref_axis',(1.,0.,0.));
#1545=DIRECTION('center_axis',(0.,0.,1.));
#1546=DIRECTION('ref_axis',(1.,0.,0.));
#1547=DIRECTION('center_axis',(0.,-0.707106781186548,-0.707106781186548));
#1548=DIRECTION('ref_axis',(-1.,0.,0.));
#1549=DIRECTION('',(0.,-0.707106781186548,0.707106781186548));
#1550=DIRECTION('',(-1.,0.,0.));
#1551=DIRECTION('',(0.,0.707106781186548,-0.707106781186548));
#1552=DIRECTION('',(1.,0.,0.));
#1553=DIRECTION('center_axis',(0.,-1.,0.));
#1554=DIRECTION('ref_axis',(1.,0.,0.));
#1555=DIRECTION('',(0.,0.,1.));
#1556=DIRECTION('',(1.,0.,0.));
#1557=DIRECTION('',(0.,0.,1.));
#1558=DIRECTION('center_axis',(0.,1.,0.));
#1559=DIRECTION('ref_axis',(1.,0.,0.));
#1560=DIRECTION('center_axis',(0.,1.,0.));
#1561=DIRECTION('ref_axis',(1.,0.,0.));
#1562=DIRECTION('center_axis',(1.,0.,0.));
#1563=DIRECTION('ref_axis',(0.,1.,0.));
#1564=DIRECTION('',(0.,1.,0.));
#1565=DIRECTION('',(0.,0.,1.));
#1566=DIRECTION('',(0.,1.,0.));
#1567=DIRECTION('center_axis',(0.,1.,0.));
#1568=DIRECTION('ref_axis',(1.,0.,0.));
#1569=DIRECTION('',(0.,1.,0.));
#1570=DIRECTION('center_axis',(0.,-1.,0.));
#1571=DIRECTION('ref_axis',(1.,0.,0.));
#1572=DIRECTION('center_axis',(0.,1.,0.));
#1573=DIRECTION('ref_axis',(1.,0.,0.));
#1574=DIRECTION('',(0.,1.,0.));
#1575=DIRECTION('center_axis',(0.,-1.,0.));
#1576=DIRECTION('ref_axis',(1.,0.,0.));
#1577=DIRECTION('center_axis',(0.,1.,0.));
#1578=DIRECTION('ref_axis',(-1.,0.,0.));
#1579=DIRECTION('',(-1.,0.,0.));
#1580=DIRECTION('',(0.,0.,1.));
#1581=DIRECTION('',(-1.,0.,0.));
#1582=DIRECTION('center_axis',(-1.,0.,0.));
#1583=DIRECTION('ref_axis',(0.,-1.,0.));
#1584=DIRECTION('',(0.,-1.,0.));
#1585=DIRECTION('',(0.,-1.,0.));
#1586=DIRECTION('center_axis',(0.,0.,1.));
#1587=DIRECTION('ref_axis',(1.,0.,0.));
#1588=DIRECTION('center_axis',(0.,0.,1.));
#1589=DIRECTION('ref_axis',(1.,0.,0.));
#1590=DIRECTION('center_axis',(0.,0.707106781186549,-0.707106781186546));
#1591=DIRECTION('ref_axis',(-1.,0.,0.));
#1592=DIRECTION('',(0.,-0.707106781186546,-0.707106781186549));
#1593=DIRECTION('',(-1.,0.,0.));
#1594=DIRECTION('',(0.,0.707106781186546,0.707106781186549));
#1595=DIRECTION('',(1.,0.,0.));
#1596=DIRECTION('center_axis',(0.,1.,0.));
#1597=DIRECTION('ref_axis',(-1.,0.,0.));
#1598=DIRECTION('',(0.,0.,1.));
#1599=DIRECTION('',(-1.,0.,0.));
#1600=DIRECTION('',(0.,0.,1.));
#1601=DIRECTION('center_axis',(0.,-1.,0.));
#1602=DIRECTION('ref_axis',(-1.,0.,0.));
#1603=DIRECTION('center_axis',(0.,-1.,0.));
#1604=DIRECTION('ref_axis',(-1.,0.,0.));
#1605=DIRECTION('center_axis',(-1.,0.,0.));
#1606=DIRECTION('ref_axis',(0.,-1.,0.));
#1607=DIRECTION('',(0.,1.,0.));
#1608=DIRECTION('',(0.,0.,1.));
#1609=DIRECTION('',(0.,-1.,0.));
#1610=DIRECTION('center_axis',(0.,-1.,0.));
#1611=DIRECTION('ref_axis',(-1.,0.,0.));
#1612=DIRECTION('',(0.,-1.,0.));
#1613=DIRECTION('center_axis',(0.,1.,0.));
#1614=DIRECTION('ref_axis',(-1.,0.,0.));
#1615=DIRECTION('center_axis',(0.,-1.,0.));
#1616=DIRECTION('ref_axis',(-1.,0.,0.));
#1617=DIRECTION('',(0.,-1.,0.));
#1618=DIRECTION('center_axis',(0.,1.,0.));
#1619=DIRECTION('ref_axis',(-1.,0.,0.));
#1620=DIRECTION('center_axis',(1.,0.,0.));
#1621=DIRECTION('ref_axis',(0.,1.,0.));
#1622=DIRECTION('',(0.,1.,0.));
#1623=DIRECTION('',(0.,0.,1.));
#1624=DIRECTION('',(0.,-1.,0.));
#1625=DIRECTION('center_axis',(0.,-1.,0.));
#1626=DIRECTION('ref_axis',(1.,0.,0.));
#1627=DIRECTION('',(-1.,0.,0.));
#1628=DIRECTION('',(1.,0.,0.));
#1629=DIRECTION('center_axis',(0.,0.,1.));
#1630=DIRECTION('ref_axis',(1.,0.,0.));
#1631=DIRECTION('center_axis',(0.,0.,1.));
#1632=DIRECTION('ref_axis',(1.,0.,0.));
#1633=CARTESIAN_POINT('',(0.,0.,0.));
#1634=CARTESIAN_POINT('Origin',(210.,22.8,0.));
#1635=CARTESIAN_POINT('',(208.,22.8,0.));
#1636=CARTESIAN_POINT('Origin',(210.,22.8,0.));
#1637=CARTESIAN_POINT('',(208.,22.8,3.4));
#1638=CARTESIAN_POINT('',(208.,22.8,0.));
#1639=CARTESIAN_POINT('Origin',(210.,22.8,3.4));
#1640=CARTESIAN_POINT('Origin',(20.,22.8,0.));
#1641=CARTESIAN_POINT('',(18.,22.8,0.));
#1642=CARTESIAN_POINT('Origin',(20.,22.8,0.));
#1643=CARTESIAN_POINT('',(18.,22.8,3.4));
#1644=CARTESIAN_POINT('',(18.,22.8,0.));
#1645=CARTESIAN_POINT('Origin',(20.,22.8,3.4));
#1646=CARTESIAN_POINT('Origin',(210.,141.6,0.));
#1647=CARTESIAN_POINT('',(208.,141.6,0.));
#1648=CARTESIAN_POINT('Origin',(210.,141.6,0.));
#1649=CARTESIAN_POINT('',(208.,141.6,3.4));
#1650=CARTESIAN_POINT('',(208.,141.6,0.));
#1651=CARTESIAN_POINT('Origin',(210.,141.6,3.4));
#1652=CARTESIAN_POINT('Origin',(20.,141.6,0.));
#1653=CARTESIAN_POINT('',(18.,141.6,0.));
#1654=CARTESIAN_POINT('Origin',(20.,141.6,0.));
#1655=CARTESIAN_POINT('',(18.,141.6,3.4));
#1656=CARTESIAN_POINT('',(18.,141.6,0.));
#1657=CARTESIAN_POINT('Origin',(20.,141.6,3.4));
#1658=CARTESIAN_POINT('Origin',(137.5,10.,0.));
#1659=CARTESIAN_POINT('',(137.5,10.,0.));
#1660=CARTESIAN_POINT('',(132.5,10.,0.));
#1661=CARTESIAN_POINT('',(132.5,10.,0.));
#1662=CARTESIAN_POINT('',(132.5,10.,3.4));
#1663=CARTESIAN_POINT('',(132.5,10.,0.));
#1664=CARTESIAN_POINT('',(137.5,10.,3.4));
#1665=CARTESIAN_POINT('',(132.5,10.,3.4));
#1666=CARTESIAN_POINT('',(137.5,10.,0.));
#1667=CARTESIAN_POINT('Origin',(137.5,12.5,0.));
#1668=CARTESIAN_POINT('',(140.,12.5,0.));
#1669=CARTESIAN_POINT('Origin',(137.5,12.5,0.));
#1670=CARTESIAN_POINT('',(140.,12.5,3.4));
#1671=CARTESIAN_POINT('Origin',(137.5,12.5,3.4));
#1672=CARTESIAN_POINT('',(140.,12.5,0.));
#1673=CARTESIAN_POINT('Origin',(140.,151.9,0.));
#1674=CARTESIAN_POINT('',(140.,151.9,0.));
#1675=CARTESIAN_POINT('',(140.,12.5,0.));
#1676=CARTESIAN_POINT('',(140.,151.9,3.4));
#1677=CARTESIAN_POINT('',(140.,12.5,3.4));
#1678=CARTESIAN_POINT('',(140.,151.9,0.));
#1679=CARTESIAN_POINT('Origin',(137.5,151.9,0.));
#1680=CARTESIAN_POINT('',(137.5,154.4,0.));
#1681=CARTESIAN_POINT('Origin',(137.5,151.9,0.));
#1682=CARTESIAN_POINT('',(137.5,154.4,3.4));
#1683=CARTESIAN_POINT('Origin',(137.5,151.9,3.4));
#1684=CARTESIAN_POINT('',(137.5,154.4,0.));
#1685=CARTESIAN_POINT('Origin',(132.5,154.4,0.));
#1686=CARTESIAN_POINT('',(132.5,154.4,0.));
#1687=CARTESIAN_POINT('',(137.5,154.4,0.));
#1688=CARTESIAN_POINT('',(132.5,154.4,3.4));
#1689=CARTESIAN_POINT('',(137.5,154.4,3.4));
#1690=CARTESIAN_POINT('',(132.5,154.4,0.));
#1691=CARTESIAN_POINT('Origin',(132.5,151.9,0.));
#1692=CARTESIAN_POINT('',(130.,151.9,0.));
#1693=CARTESIAN_POINT('Origin',(132.5,151.9,0.));
#1694=CARTESIAN_POINT('',(130.,151.9,3.4));
#1695=CARTESIAN_POINT('Origin',(132.5,151.9,3.4));
#1696=CARTESIAN_POINT('',(130.,151.9,0.));
#1697=CARTESIAN_POINT('Origin',(130.,12.5,0.));
#1698=CARTESIAN_POINT('',(130.,12.5,0.));
#1699=CARTESIAN_POINT('',(130.,151.9,0.));
#1700=CARTESIAN_POINT('',(130.,12.5,3.4));
#1701=CARTESIAN_POINT('',(130.,151.9,3.4));
#1702=CARTESIAN_POINT('',(130.,12.5,0.));
#1703=CARTESIAN_POINT('Origin',(132.5,12.5,0.));
#1704=CARTESIAN_POINT('Origin',(132.5,12.5,0.));
#1705=CARTESIAN_POINT('Origin',(132.5,12.5,3.4));
#1706=CARTESIAN_POINT('Origin',(177.5,10.,0.));
#1707=CARTESIAN_POINT('',(177.5,10.,0.));
#1708=CARTESIAN_POINT('',(172.5,10.,0.));
#1709=CARTESIAN_POINT('',(172.5,10.,0.));
#1710=CARTESIAN_POINT('',(172.5,10.,3.4));
#1711=CARTESIAN_POINT('',(172.5,10.,0.));
#1712=CARTESIAN_POINT('',(177.5,10.,3.4));
#1713=CARTESIAN_POINT('',(172.5,10.,3.4));
#1714=CARTESIAN_POINT('',(177.5,10.,0.));
#1715=CARTESIAN_POINT('Origin',(177.5,12.5,0.));
#1716=CARTESIAN_POINT('',(180.,12.5,0.));
#1717=CARTESIAN_POINT('Origin',(177.5,12.5,0.));
#1718=CARTESIAN_POINT('',(180.,12.5,3.4));
#1719=CARTESIAN_POINT('Origin',(177.5,12.5,3.4));
#1720=CARTESIAN_POINT('',(180.,12.5,0.));
#1721=CARTESIAN_POINT('Origin',(180.,151.9,0.));
#1722=CARTESIAN_POINT('',(180.,151.9,0.));
#1723=CARTESIAN_POINT('',(180.,12.5,0.));
#1724=CARTESIAN_POINT('',(180.,151.9,3.4));
#1725=CARTESIAN_POINT('',(180.,12.5,3.4));
#1726=CARTESIAN_POINT('',(180.,151.9,0.));
#1727=CARTESIAN_POINT('Origin',(177.5,151.9,0.));
#1728=CARTESIAN_POINT('',(177.5,154.4,0.));
#1729=CARTESIAN_POINT('Origin',(177.5,151.9,0.));
#1730=CARTESIAN_POINT('',(177.5,154.4,3.4));
#1731=CARTESIAN_POINT('Origin',(177.5,151.9,3.4));
#1732=CARTESIAN_POINT('',(177.5,154.4,0.));
#1733=CARTESIAN_POINT('Origin',(172.5,154.4,0.));
#1734=CARTESIAN_POINT('',(172.5,154.4,0.));
#1735=CARTESIAN_POINT('',(177.5,154.4,0.));
#1736=CARTESIAN_POINT('',(172.5,154.4,3.4));
#1737=CARTESIAN_POINT('',(177.5,154.4,3.4));
#1738=CARTESIAN_POINT('',(172.5,154.4,0.));
#1739=CARTESIAN_POINT('Origin',(172.5,151.9,0.));
#1740=CARTESIAN_POINT('',(170.,151.9,0.));
#1741=CARTESIAN_POINT('Origin',(172.5,151.9,0.));
#1742=CARTESIAN_POINT('',(170.,151.9,3.4));
#1743=CARTESIAN_POINT('Origin',(172.5,151.9,3.4));
#1744=CARTESIAN_POINT('',(170.,151.9,0.));
#1745=CARTESIAN_POINT('Origin',(170.,12.5,0.));
#1746=CARTESIAN_POINT('',(170.,12.5,0.));
#1747=CARTESIAN_POINT('',(170.,151.9,0.));
#1748=CARTESIAN_POINT('',(170.,12.5,3.4));
#1749=CARTESIAN_POINT('',(170.,151.9,3.4));
#1750=CARTESIAN_POINT('',(170.,12.5,0.));
#1751=CARTESIAN_POINT('Origin',(172.5,12.5,0.));
#1752=CARTESIAN_POINT('Origin',(172.5,12.5,0.));
#1753=CARTESIAN_POINT('Origin',(172.5,12.5,3.4));
#1754=CARTESIAN_POINT('Origin',(117.5,10.,0.));
#1755=CARTESIAN_POINT('',(117.5,10.,0.));
#1756=CARTESIAN_POINT('',(112.5,10.,0.));
#1757=CARTESIAN_POINT('',(112.5,10.,0.));
#1758=CARTESIAN_POINT('',(112.5,10.,3.4));
#1759=CARTESIAN_POINT('',(112.5,10.,0.));
#1760=CARTESIAN_POINT('',(117.5,10.,3.4));
#1761=CARTESIAN_POINT('',(112.5,10.,3.4));
#1762=CARTESIAN_POINT('',(117.5,10.,0.));
#1763=CARTESIAN_POINT('Origin',(117.5,12.5,0.));
#1764=CARTESIAN_POINT('',(120.,12.5,0.));
#1765=CARTESIAN_POINT('Origin',(117.5,12.5,0.));
#1766=CARTESIAN_POINT('',(120.,12.5,3.4));
#1767=CARTESIAN_POINT('Origin',(117.5,12.5,3.4));
#1768=CARTESIAN_POINT('',(120.,12.5,0.));
#1769=CARTESIAN_POINT('Origin',(120.,151.9,0.));
#1770=CARTESIAN_POINT('',(120.,151.9,0.));
#1771=CARTESIAN_POINT('',(120.,12.5,0.));
#1772=CARTESIAN_POINT('',(120.,151.9,3.4));
#1773=CARTESIAN_POINT('',(120.,12.5,3.4));
#1774=CARTESIAN_POINT('',(120.,151.9,0.));
#1775=CARTESIAN_POINT('Origin',(117.5,151.9,0.));
#1776=CARTESIAN_POINT('',(117.5,154.4,0.));
#1777=CARTESIAN_POINT('Origin',(117.5,151.9,0.));
#1778=CARTESIAN_POINT('',(117.5,154.4,3.4));
#1779=CARTESIAN_POINT('Origin',(117.5,151.9,3.4));
#1780=CARTESIAN_POINT('',(117.5,154.4,0.));
#1781=CARTESIAN_POINT('Origin',(112.5,154.4,0.));
#1782=CARTESIAN_POINT('',(112.5,154.4,0.));
#1783=CARTESIAN_POINT('',(117.5,154.4,0.));
#1784=CARTESIAN_POINT('',(112.5,154.4,3.4));
#1785=CARTESIAN_POINT('',(117.5,154.4,3.4));
#1786=CARTESIAN_POINT('',(112.5,154.4,0.));
#1787=CARTESIAN_POINT('Origin',(112.5,151.9,0.));
#1788=CARTESIAN_POINT('',(110.,151.9,0.));
#1789=CARTESIAN_POINT('Origin',(112.5,151.9,0.));
#1790=CARTESIAN_POINT('',(110.,151.9,3.4));
#1791=CARTESIAN_POINT('Origin',(112.5,151.9,3.4));
#1792=CARTESIAN_POINT('',(110.,151.9,0.));
#1793=CARTESIAN_POINT('Origin',(110.,12.5,0.));
#1794=CARTESIAN_POINT('',(110.,12.5,0.));
#1795=CARTESIAN_POINT('',(110.,151.9,0.));
#1796=CARTESIAN_POINT('',(110.,12.5,3.4));
#1797=CARTESIAN_POINT('',(110.,151.9,3.4));
#1798=CARTESIAN_POINT('',(110.,12.5,0.));
#1799=CARTESIAN_POINT('Origin',(112.5,12.5,0.));
#1800=CARTESIAN_POINT('Origin',(112.5,12.5,0.));
#1801=CARTESIAN_POINT('Origin',(112.5,12.5,3.4));
#1802=CARTESIAN_POINT('Origin',(157.5,10.,0.));
#1803=CARTESIAN_POINT('',(157.5,10.,0.));
#1804=CARTESIAN_POINT('',(152.5,10.,0.));
#1805=CARTESIAN_POINT('',(152.5,10.,0.));
#1806=CARTESIAN_POINT('',(152.5,10.,3.4));
#1807=CARTESIAN_POINT('',(152.5,10.,0.));
#1808=CARTESIAN_POINT('',(157.5,10.,3.4));
#1809=CARTESIAN_POINT('',(152.5,10.,3.4));
#1810=CARTESIAN_POINT('',(157.5,10.,0.));
#1811=CARTESIAN_POINT('Origin',(157.5,12.5,0.));
#1812=CARTESIAN_POINT('',(160.,12.5,0.));
#1813=CARTESIAN_POINT('Origin',(157.5,12.5,0.));
#1814=CARTESIAN_POINT('',(160.,12.5,3.4));
#1815=CARTESIAN_POINT('Origin',(157.5,12.5,3.4));
#1816=CARTESIAN_POINT('',(160.,12.5,0.));
#1817=CARTESIAN_POINT('Origin',(160.,151.9,0.));
#1818=CARTESIAN_POINT('',(160.,151.9,0.));
#1819=CARTESIAN_POINT('',(160.,12.5,0.));
#1820=CARTESIAN_POINT('',(160.,151.9,3.4));
#1821=CARTESIAN_POINT('',(160.,12.5,3.4));
#1822=CARTESIAN_POINT('',(160.,151.9,0.));
#1823=CARTESIAN_POINT('Origin',(157.5,151.9,0.));
#1824=CARTESIAN_POINT('',(157.5,154.4,0.));
#1825=CARTESIAN_POINT('Origin',(157.5,151.9,0.));
#1826=CARTESIAN_POINT('',(157.5,154.4,3.4));
#1827=CARTESIAN_POINT('Origin',(157.5,151.9,3.4));
#1828=CARTESIAN_POINT('',(157.5,154.4,0.));
#1829=CARTESIAN_POINT('Origin',(152.5,154.4,0.));
#1830=CARTESIAN_POINT('',(152.5,154.4,0.));
#1831=CARTESIAN_POINT('',(157.5,154.4,0.));
#1832=CARTESIAN_POINT('',(152.5,154.4,3.4));
#1833=CARTESIAN_POINT('',(157.5,154.4,3.4));
#1834=CARTESIAN_POINT('',(152.5,154.4,0.));
#1835=CARTESIAN_POINT('Origin',(152.5,151.9,0.));
#1836=CARTESIAN_POINT('',(150.,151.9,0.));
#1837=CARTESIAN_POINT('Origin',(152.5,151.9,0.));
#1838=CARTESIAN_POINT('',(150.,151.9,3.4));
#1839=CARTESIAN_POINT('Origin',(152.5,151.9,3.4));
#1840=CARTESIAN_POINT('',(150.,151.9,0.));
#1841=CARTESIAN_POINT('Origin',(150.,12.5,0.));
#1842=CARTESIAN_POINT('',(150.,12.5,0.));
#1843=CARTESIAN_POINT('',(150.,151.9,0.));
#1844=CARTESIAN_POINT('',(150.,12.5,3.4));
#1845=CARTESIAN_POINT('',(150.,151.9,3.4));
#1846=CARTESIAN_POINT('',(150.,12.5,0.));
#1847=CARTESIAN_POINT('Origin',(152.5,12.5,0.));
#1848=CARTESIAN_POINT('Origin',(152.5,12.5,0.));
#1849=CARTESIAN_POINT('Origin',(152.5,12.5,3.4));
#1850=CARTESIAN_POINT('Origin',(0.,2.8,0.));
#1851=CARTESIAN_POINT('',(230.000003427267,2.8,0.));
#1852=CARTESIAN_POINT('',(0.,2.8,0.));
#1853=CARTESIAN_POINT('',(230.000003427267,2.8,0.));
#1854=CARTESIAN_POINT('',(230.000003427267,2.8,3.4));
#1855=CARTESIAN_POINT('',(230.000003427267,2.8,0.));
#1856=CARTESIAN_POINT('',(0.,2.8,3.4));
#1857=CARTESIAN_POINT('',(230.000003427267,2.8,3.4));
#1858=CARTESIAN_POINT('',(0.,2.8,0.));
#1859=CARTESIAN_POINT('Origin',(0.,161.6,0.));
#1860=CARTESIAN_POINT('',(0.,161.6,0.));
#1861=CARTESIAN_POINT('',(0.,164.4,0.));
#1862=CARTESIAN_POINT('',(0.,161.6,3.4));
#1863=CARTESIAN_POINT('',(0.,164.4,3.4));
#1864=CARTESIAN_POINT('',(0.,161.6,0.));
#1865=CARTESIAN_POINT('Origin',(230.000003427267,161.6,0.));
#1866=CARTESIAN_POINT('',(230.000003427267,161.6,0.));
#1867=CARTESIAN_POINT('',(230.000003427267,161.6,0.));
#1868=CARTESIAN_POINT('',(230.000003427267,161.6,3.4));
#1869=CARTESIAN_POINT('',(230.000003427267,161.6,3.4));
#1870=CARTESIAN_POINT('',(230.000003427267,161.6,0.));
#1871=CARTESIAN_POINT('Origin',(230.,2.8,0.));
#1872=CARTESIAN_POINT('',(230.,0.,0.));
#1873=CARTESIAN_POINT('',(230.,0.,3.4));
#1874=CARTESIAN_POINT('Origin',(115.000008427267,82.2,3.4));
#1875=CARTESIAN_POINT('Origin',(115.000008427267,82.2,0.));
#1876=CARTESIAN_POINT('Origin',(57.5000008568168,1.,1.));
#1877=CARTESIAN_POINT('',(230.000003427267,2.,0.));
#1878=CARTESIAN_POINT('',(230.000003427267,0.,2.));
#1879=CARTESIAN_POINT('',(230.000003427267,1.,1.));
#1880=CARTESIAN_POINT('',(0.,0.,2.));
#1881=CARTESIAN_POINT('',(57.5000008568168,0.,2.));
#1882=CARTESIAN_POINT('',(0.,2.,0.));
#1883=CARTESIAN_POINT('',(0.,1.7,0.3));
#1884=CARTESIAN_POINT('',(57.5000008568168,2.,0.));
#1885=CARTESIAN_POINT('Origin',(0.,0.,0.));
#1886=CARTESIAN_POINT('',(230.000003427267,0.,50.2));
#1887=CARTESIAN_POINT('',(230.000003427267,0.,0.));
#1888=CARTESIAN_POINT('',(0.,0.,50.2));
#1889=CARTESIAN_POINT('',(0.,0.,50.2));
#1890=CARTESIAN_POINT('',(0.,0.,0.));
#1891=CARTESIAN_POINT('',(218.500003427267,0.,23.));
#1892=CARTESIAN_POINT('Origin',(220.000003427267,0.,23.));
#1893=CARTESIAN_POINT('',(8.49999672174452,0.,23.));
#1894=CARTESIAN_POINT('Origin',(9.99999672174454,0.,23.));
#1895=CARTESIAN_POINT('Origin',(230.000003427267,0.,0.));
#1896=CARTESIAN_POINT('',(230.000003427267,2.8,0.));
#1897=CARTESIAN_POINT('',(230.000003427267,0.,0.));
#1898=CARTESIAN_POINT('',(230.000003427267,2.8,50.2));
#1899=CARTESIAN_POINT('',(230.000003427267,2.8,0.));
#1900=CARTESIAN_POINT('',(230.000003427267,0.,50.2));
#1901=CARTESIAN_POINT('Origin',(9.99999672174454,0.,23.));
#1902=CARTESIAN_POINT('',(8.49999672174452,2.8,23.));
#1903=CARTESIAN_POINT('',(8.49999672174452,0.,23.));
#1904=CARTESIAN_POINT('Origin',(9.99999672174454,2.8,23.));
#1905=CARTESIAN_POINT('Origin',(220.000003427267,0.,23.));
#1906=CARTESIAN_POINT('',(218.500003427267,2.8,23.));
#1907=CARTESIAN_POINT('',(218.500003427267,0.,23.));
#1908=CARTESIAN_POINT('Origin',(220.000003427267,2.8,23.));
#1909=CARTESIAN_POINT('Origin',(230.000003427267,2.8,0.));
#1910=CARTESIAN_POINT('',(0.,2.8,0.));
#1911=CARTESIAN_POINT('',(230.000003427267,2.8,0.));
#1912=CARTESIAN_POINT('',(0.,2.8,50.2));
#1913=CARTESIAN_POINT('',(0.,2.8,0.));
#1914=CARTESIAN_POINT('',(230.000003427267,2.8,50.2));
#1915=CARTESIAN_POINT('Origin',(0.,2.8,0.));
#1916=CARTESIAN_POINT('',(0.,2.8,50.2));
#1917=CARTESIAN_POINT('',(0.,2.8,0.));
#1918=CARTESIAN_POINT('Origin',(115.000001713634,1.4,50.2));
#1919=CARTESIAN_POINT('Origin',(115.000001713634,1.4,0.));
#1920=CARTESIAN_POINT('Origin',(172.50000257045,163.4,1.));
#1921=CARTESIAN_POINT('',(230.000003427267,164.4,2.));
#1922=CARTESIAN_POINT('',(230.000003427267,162.4,0.));
#1923=CARTESIAN_POINT('',(230.000003427267,162.7,0.3));
#1924=CARTESIAN_POINT('',(0.,162.4,0.));
#1925=CARTESIAN_POINT('',(172.50000257045,162.4,0.));
#1926=CARTESIAN_POINT('',(0.,164.4,2.));
#1927=CARTESIAN_POINT('',(0.,163.4,1.));
#1928=CARTESIAN_POINT('',(172.50000257045,164.4,2.));
#1929=CARTESIAN_POINT('Origin',(230.000003427267,164.4,0.));
#1930=CARTESIAN_POINT('',(0.,164.4,50.2));
#1931=CARTESIAN_POINT('',(0.,164.4,0.));
#1932=CARTESIAN_POINT('',(230.000003427267,164.4,50.2));
#1933=CARTESIAN_POINT('',(0.,164.4,50.2));
#1934=CARTESIAN_POINT('',(230.000003427267,164.4,0.));
#1935=CARTESIAN_POINT('',(221.500003427267,164.4,23.));
#1936=CARTESIAN_POINT('Origin',(220.000003427267,164.4,23.));
#1937=CARTESIAN_POINT('',(11.5,164.4,23.));
#1938=CARTESIAN_POINT('Origin',(10.,164.4,23.));
#1939=CARTESIAN_POINT('Origin',(0.,164.4,0.));
#1940=CARTESIAN_POINT('',(0.,161.6,0.));
#1941=CARTESIAN_POINT('',(0.,161.6,0.));
#1942=CARTESIAN_POINT('',(0.,161.6,50.2));
#1943=CARTESIAN_POINT('',(0.,161.6,0.));
#1944=CARTESIAN_POINT('',(0.,161.6,50.2));
#1945=CARTESIAN_POINT('Origin',(10.,164.4,23.));
#1946=CARTESIAN_POINT('',(11.5,161.6,23.));
#1947=CARTESIAN_POINT('',(11.5,164.4,23.));
#1948=CARTESIAN_POINT('Origin',(10.,161.6,23.));
#1949=CARTESIAN_POINT('Origin',(220.000003427267,164.4,23.));
#1950=CARTESIAN_POINT('',(221.500003427267,161.6,23.));
#1951=CARTESIAN_POINT('',(221.500003427267,164.4,23.));
#1952=CARTESIAN_POINT('Origin',(220.000003427267,161.6,23.));
#1953=CARTESIAN_POINT('Origin',(230.000003427267,161.6,0.));
#1954=CARTESIAN_POINT('',(230.000003427267,161.6,50.2));
#1955=CARTESIAN_POINT('',(230.000003427267,164.4,50.2));
#1956=CARTESIAN_POINT('',(230.000003427267,161.6,0.));
#1957=CARTESIAN_POINT('',(230.000003427267,161.6,0.));
#1958=CARTESIAN_POINT('',(230.000003427267,164.4,0.));
#1959=CARTESIAN_POINT('Origin',(0.,161.6,0.));
#1960=CARTESIAN_POINT('',(230.000003427267,161.6,0.));
#1961=CARTESIAN_POINT('',(230.000003427267,161.6,50.2));
#1962=CARTESIAN_POINT('Origin',(115.000001713634,163.,50.2));
#1963=CARTESIAN_POINT('Origin',(115.000001713634,163.,0.));
#1964=UNCERTAINTY_MEASURE_WITH_UNIT(LENGTH_MEASURE(0.01),#1968,
'DISTANCE_ACCURACY_VALUE',
'Maximum model space distance between geometric entities at asserted c
onnectivities');
#1965=UNCERTAINTY_MEASURE_WITH_UNIT(LENGTH_MEASURE(0.01),#1968,
'DISTANCE_ACCURACY_VALUE',
'Maximum model space distance between geometric entities at asserted c
onnectivities');
#1966=(
GEOMETRIC_REPRESENTATION_CONTEXT(3)
GLOBAL_UNCERTAINTY_ASSIGNED_CONTEXT((#1964))
GLOBAL_UNIT_ASSIGNED_CONTEXT((#1968,#1970,#1971))
REPRESENTATION_CONTEXT('','3D')
);
#1967=(
GEOMETRIC_REPRESENTATION_CONTEXT(3)
GLOBAL_UNCERTAINTY_ASSIGNED_CONTEXT((#1965))
GLOBAL_UNIT_ASSIGNED_CONTEXT((#1968,#1970,#1971))
REPRESENTATION_CONTEXT('','3D')
);
#1968=(
LENGTH_UNIT()
NAMED_UNIT(*)
SI_UNIT(.MILLI.,.METRE.)
);
#1969=(
LENGTH_UNIT()
NAMED_UNIT(*)
SI_UNIT($,.METRE.)
);
#1970=(
NAMED_UNIT(*)
PLANE_ANGLE_UNIT()
SI_UNIT($,.RADIAN.)
);
#1971=(
NAMED_UNIT(*)
SI_UNIT($,.STERADIAN.)
SOLID_ANGLE_UNIT()
);
#1972=SHAPE_DEFINITION_REPRESENTATION(#1973,#1974);
#1973=PRODUCT_DEFINITION_SHAPE('',$,#1976);
#1974=SHAPE_REPRESENTATION('',(#1192),#1966);
#1975=PRODUCT_DEFINITION_CONTEXT('part definition',#1980,'design');
#1976=PRODUCT_DEFINITION('2026-08-30-18-43-01-152','Lid',#1977,#1975);
#1977=PRODUCT_DEFINITION_FORMATION('',$,#1982);
#1978=PRODUCT_RELATED_PRODUCT_CATEGORY('Lid','Lid',(#1982));
#1979=APPLICATION_PROTOCOL_DEFINITION('international standard',
'automotive_design',2009,#1980);
#1980=APPLICATION_CONTEXT(
'Core Data for Automotive Mechanical Design Process');
#1981=PRODUCT_CONTEXT('part definition',#1980,'mechanical');
#1982=PRODUCT('2026-08-30-18-43-01-152','Lid',$,(#1981));
#1983=PRESENTATION_STYLE_ASSIGNMENT((#1984));
#1984=SURFACE_STYLE_USAGE(.BOTH.,#1985);
#1985=SURFACE_SIDE_STYLE('',(#1986));
#1986=SURFACE_STYLE_FILL_AREA(#1987);
#1987=FILL_AREA_STYLE('Steel - Satin',(#1988));
#1988=FILL_AREA_STYLE_COLOUR('Steel - Satin',#1989);
#1989=COLOUR_RGB('Steel - Satin',0.627450980392157,0.627450980392157,0.627450980392157);
ENDSEC;
END-ISO-10303-21;
